<svg width="220" height="50" viewBox="0 0 220 50" fill="none" xmlns="http://www.w3.org/2000/svg">
<path d="M18.478 0H0V7.32479H6.65208L18.478 7.26157C20.6778 7.35188 30.2863 6.57515 30.2863 20.4028C30.3215 33.3093 22.8775 33.4809 18.478 33.6164L6.65208 33.5441V14.1799H0V40.8057H18.478C28.3241 40.8057 37.7391 35.0434 37.7391 20.4932C37.7127 5.00362 28.1569 0 18.478 0Z" fill="#212B52"/>
<path d="M64.233 30.5455V22.6337C64.2394 21.8463 64.0897 21.0658 63.7931 20.3396C63.5122 19.6338 63.0895 18.9967 62.5524 18.47C62.0203 17.9315 61.3971 17.497 60.7134 17.1875C60.0118 16.872 59.2532 16.712 58.4872 16.7178H46.9517C46.1931 16.7083 45.4403 16.8561 44.7387 17.1526C44.0372 17.449 43.4012 17.8879 42.8689 18.4429C42.3387 18.986 41.9172 19.6303 41.6283 20.3396C41.3316 21.0658 41.1819 21.8463 41.1883 22.6337V34.7273C41.1812 35.5118 41.3309 36.2895 41.6283 37.0123C41.908 37.7214 42.3308 38.3616 42.8689 38.8909C43.3998 39.4268 44.0196 39.8611 44.6991 40.1734C45.4084 40.4952 46.1763 40.6584 46.9517 40.6521H58.3905C59.1557 40.6567 59.9146 40.5095 60.6254 40.2186C61.3087 39.9382 61.9375 39.5344 62.482 39.0264C63.0133 38.5152 63.4409 37.9014 63.7403 37.22C64.0597 36.5249 64.2279 35.7668 64.233 34.9982V33.0925H57.8889V33.3725C57.8955 33.6424 57.8463 33.9107 57.7447 34.1598C57.6431 34.4088 57.4913 34.633 57.2994 34.8176C57.1196 35.0054 56.9044 35.1536 56.6668 35.253C56.4292 35.3524 56.1744 35.4009 55.9179 35.3956H49.6794C49.4186 35.4041 49.1589 35.3572 48.9166 35.2577C48.6743 35.1582 48.4547 35.0084 48.2716 34.8176C48.0874 34.6283 47.9425 34.4027 47.8457 34.1543C47.7489 33.9059 47.7022 33.6399 47.7084 33.3725V30.5455H64.233ZM47.7084 23.7626C47.7012 23.5195 47.7419 23.2774 47.8281 23.0508C47.9143 22.8242 48.0442 22.6178 48.21 22.444C48.5491 22.1224 48.9979 21.9504 49.4594 21.9653H56.1379C56.5994 21.9504 57.0482 22.1224 57.3874 22.444C57.5566 22.6152 57.6888 22.8212 57.7752 23.0484C57.8616 23.2756 57.9004 23.519 57.8889 23.7626V26.3277H47.7084V23.7626Z" fill="#212B52"/>
<path d="M78.8658 12.9787C79.0502 12.7896 79.2701 12.6409 79.512 12.5416C79.754 12.4422 80.0131 12.3943 80.2737 12.4006H83.9253V6.78287H77.59C76.7845 6.77822 75.9871 6.94747 75.2494 7.27962C74.5567 7.59799 73.9273 8.04505 73.3928 8.59826C72.868 9.17321 72.4478 9.84006 72.1522 10.5672C71.8436 11.2968 71.6849 12.0839 71.6858 12.8793V16.754H67.6823V22.3085H71.6858V40.6521H78.3115V22.3085H83.6789V16.7178H78.3115V14.4238C78.302 14.1567 78.3464 13.8905 78.4418 13.6419C78.5372 13.3932 78.6815 13.1674 78.8658 12.9787Z" fill="#212B52"/>
<path d="M110.437 30.5455V22.6337C110.439 21.8467 110.289 21.0671 109.997 20.3396C109.709 19.6379 109.287 19.0023 108.756 18.47C108.214 17.9315 107.582 17.4971 106.891 17.1875C106.189 16.872 105.431 16.712 104.665 16.7178H93.1467C92.388 16.7083 91.6353 16.8561 90.9337 17.1526C90.2321 17.449 89.5961 17.8879 89.0639 18.4429C88.5337 18.986 88.1122 19.6303 87.8232 20.3396C87.5279 21.0665 87.3754 21.8461 87.3745 22.6337V34.7273C87.3745 35.512 87.527 36.2888 87.8232 37.0123C88.103 37.7214 88.5258 38.3616 89.0639 38.8909C89.596 39.4294 90.2192 39.864 90.9029 40.1734C91.6088 40.4961 92.374 40.6594 93.1467 40.6521H104.585C106.1 40.6571 107.561 40.0767 108.677 39.0264C109.211 38.5177 109.639 37.9032 109.935 37.22C110.248 36.5172 110.407 35.7527 110.402 34.9801V33.0925H104.049V33.3725C104.055 33.6415 104.006 33.9089 103.906 34.1577C103.806 34.4064 103.657 34.6312 103.468 34.8176C103.286 35.0048 103.069 35.1525 102.83 35.2519C102.591 35.3512 102.335 35.4001 102.078 35.3956H95.9096C95.6491 35.4031 95.39 35.3559 95.148 35.2568C94.906 35.1577 94.6864 35.0088 94.5026 34.8192C94.3188 34.6297 94.1747 34.4036 94.0792 34.1548C93.9837 33.906 93.9389 33.6398 93.9474 33.3725V30.5455H110.437ZM93.9122 23.7627C93.899 23.5196 93.9361 23.2765 94.0211 23.0492C94.106 22.8219 94.2368 22.6157 94.4049 22.444C94.7441 22.1224 95.1929 21.9504 95.6544 21.9653H102.333C102.794 21.9504 103.243 22.1224 103.582 22.444C103.752 22.6152 103.884 22.8212 103.97 23.0484C104.057 23.2756 104.095 23.519 104.084 23.7627V26.3277H93.9122V23.7627Z" fill="#212B52"/>
<path d="M138.541 20.3486C138.236 19.6367 137.803 18.9902 137.265 18.4429C136.731 17.9006 136.101 17.4683 135.408 17.1694C134.716 16.8668 133.97 16.7131 133.218 16.7178H126.803L122.157 20.8544V16.7178H115.575V40.6521H122.157V24.3949C122.15 24.1243 122.198 23.8552 122.298 23.6048C122.398 23.3544 122.548 23.1282 122.738 22.9408C123.108 22.5738 123.605 22.3725 124.119 22.3808H130.402C130.663 22.3736 130.923 22.4202 131.166 22.5179C131.41 22.6157 131.631 22.7625 131.818 22.9498C132.001 23.1395 132.145 23.3654 132.24 23.6139C132.336 23.8623 132.381 24.128 132.373 24.3949V40.6521H139.025V22.5885C139.015 21.8157 138.85 21.0533 138.541 20.3486Z" fill="#212B52"/>
<path d="M166.891 29.9133C166.597 29.2097 166.176 28.5693 165.651 28.0256C165.119 27.4893 164.495 27.0577 163.812 26.7521C163.11 26.4367 162.352 26.2766 161.586 26.2825H152.223C151.993 26.2896 151.764 26.2475 151.55 26.1588C151.337 26.0702 151.144 25.937 150.983 25.7677C150.673 25.4181 150.508 24.9577 150.525 24.4852V23.6723C150.516 23.4401 150.552 23.2083 150.632 22.991C150.712 22.7736 150.834 22.5752 150.992 22.4079C151.153 22.2437 151.346 22.1155 151.558 22.0316C151.77 21.9477 151.996 21.9097 152.223 21.9201H158.726C158.953 21.9085 159.18 21.9458 159.392 22.0298C159.605 22.1137 159.797 22.2424 159.958 22.4074C160.119 22.5725 160.244 22.7704 160.326 22.9882C160.408 23.2061 160.444 23.4391 160.433 23.6723V23.8168H166.786V22.6336C166.788 21.8469 166.629 21.0685 166.32 20.3486C166.027 19.642 165.599 19.0031 165.061 18.47C164.519 17.9314 163.887 17.4971 163.196 17.1875C162.494 16.872 161.736 16.7119 160.97 16.7178H149.936C149.164 16.7074 148.398 16.8676 147.692 17.1875C147.01 17.4997 146.387 17.934 145.853 18.47C145.32 18.9999 144.897 19.6361 144.612 20.3396C144.32 21.067 144.17 21.8467 144.172 22.6336V25.0722C144.167 25.8712 144.317 26.6633 144.612 27.4024C145.196 28.8503 146.298 30.0138 147.692 30.6539C148.398 30.9766 149.163 31.1398 149.936 31.1326H159.263C159.709 31.1194 160.143 31.2882 160.468 31.6022C160.644 31.761 160.785 31.957 160.881 32.1768C160.977 32.3966 161.025 32.635 161.022 32.8757V33.6886C161.032 33.9252 160.992 34.1611 160.905 34.3807C160.819 34.6002 160.688 34.7984 160.521 34.9621C160.195 35.276 159.762 35.4449 159.315 35.4317H152.373C151.927 35.4449 151.493 35.276 151.168 34.9621C151.004 34.7966 150.875 34.5979 150.79 34.3786C150.706 34.1593 150.666 33.9243 150.675 33.6886V33.5441H144.304V34.7272C144.299 35.5135 144.455 36.2921 144.762 37.0123C145.068 37.7224 145.511 38.3615 146.064 38.8909C146.602 39.4312 147.231 39.8659 147.921 40.1734C148.622 40.4907 149.38 40.6538 150.147 40.6521H161.586C162.352 40.6548 163.111 40.4917 163.812 40.1734C164.495 39.8679 165.119 39.4363 165.651 38.8999C166.176 38.3563 166.597 37.7159 166.891 37.0123C167.202 36.2927 167.36 35.5141 167.358 34.7272V32.2435C167.366 31.4415 167.207 30.6471 166.891 29.9133Z" fill="#4E7AB7"/>
<path d="M188.3 16.7178L181.929 32.2435L175.515 16.6817H169.109L178.515 39.1167L173.236 50H180.583L195.471 16.6817L188.3 16.7178Z" fill="#4E7AB7"/>
<path d="M219.51 29.9133C219.218 29.208 218.797 28.567 218.269 28.0256C217.745 27.492 217.131 27.0605 216.456 26.7521C215.755 26.4367 214.996 26.2766 214.23 26.2825H204.842C204.613 26.2905 204.385 26.2488 204.172 26.1601C203.96 26.0714 203.768 25.9377 203.61 25.7677C203.297 25.4195 203.129 24.9589 203.144 24.4852V23.6723C203.134 23.4401 203.17 23.2083 203.25 22.991C203.33 22.7736 203.453 22.5752 203.61 22.4079C203.771 22.2437 203.964 22.1155 204.176 22.0316C204.388 21.9477 204.615 21.9097 204.842 21.9201H211.353C211.58 21.9084 211.806 21.9457 212.018 22.0297C212.23 22.1137 212.422 22.2426 212.583 22.4078C212.743 22.573 212.867 22.771 212.948 22.9889C213.029 23.2067 213.064 23.4396 213.051 23.6723V23.8168H219.404V22.6336C219.406 21.8469 219.247 21.0685 218.938 20.3486C218.646 19.642 218.218 19.0031 217.68 18.47C217.137 17.9314 216.506 17.4971 215.814 17.1875C215.113 16.872 214.354 16.7119 213.588 16.7178H202.554C201.782 16.7074 201.017 16.8676 200.31 17.1875C199.629 17.5018 199.007 17.9359 198.471 18.47C197.938 18.9999 197.516 19.6361 197.231 20.3396C196.938 21.067 196.789 21.8467 196.791 22.6336V25.0722C196.793 26.2512 197.127 27.4045 197.751 28.3942C198.375 29.384 199.264 30.1684 200.31 30.6539C201.016 30.9766 201.781 31.1398 202.554 31.1326H211.925C212.145 31.1263 212.364 31.1645 212.569 31.2451C212.774 31.3257 212.962 31.447 213.122 31.6022C213.288 31.7659 213.419 31.9641 213.506 32.1836C213.592 32.4032 213.632 32.6391 213.623 32.8757V33.6886C213.632 33.9252 213.592 34.1611 213.506 34.3807C213.419 34.6002 213.288 34.7984 213.122 34.9621C212.962 35.1173 212.774 35.2386 212.569 35.3192C212.364 35.3998 212.145 35.438 211.925 35.4317H205.018C204.571 35.4449 204.138 35.276 203.812 34.9621C203.637 34.8022 203.497 34.606 203.402 34.3864C203.306 34.1669 203.257 33.929 203.258 33.6886V33.5441H196.923V34.7272C196.917 35.5135 197.073 36.2921 197.38 37.0123C197.676 37.7193 198.107 38.3581 198.647 38.8909C199.185 39.4312 199.814 39.8659 200.504 40.1734C201.208 40.4917 201.969 40.6548 202.739 40.6521H214.178C214.944 40.6548 215.703 40.4917 216.404 40.1734C217.087 39.8679 217.711 39.4363 218.243 38.8999C218.771 38.3585 219.192 37.7176 219.483 37.0123C219.793 36.2927 219.952 35.5141 219.95 34.7272V32.2435C219.966 31.4435 219.816 30.6491 219.51 29.9133Z" fill="#4E7AB7"/>
<path d="M24.2854 20.6196C24.2854 26.9419 20.6162 27.0231 18.4692 27.0864H12.697V14.1799H18.478C19.5779 14.2251 24.2854 13.8458 24.2854 20.6196Z" fill="#4E7AB7"/>
</svg>
