<svg xmlns="http://www.w3.org/2000/svg" width="172" height="60" viewBox="0 0 172 60" fill="none"><path d="M62.7093 29.2277C62.7093 28.5427 62.8326 27.8645 63.0792 27.1932C63.3258 26.5082 63.682 25.8986 64.1478 25.3643C64.6273 24.8163 65.2096 24.3779 65.8946 24.0491C66.5933 23.7066 67.381 23.5353 68.2578 23.5353C69.0387 23.5353 69.7648 23.6792 70.4361 23.9669C71.1211 24.2409 71.7171 24.6313 72.224 25.1382C72.7309 25.6451 73.1282 26.2479 73.4159 26.9466C73.7036 27.6453 73.8475 28.4057 73.8475 29.2277V29.3715H63.6752C63.6889 30.0565 63.8053 30.6936 64.0245 31.2827C64.2574 31.8581 64.5725 32.3581 64.9698 32.7829C65.3671 33.1939 65.8466 33.5158 66.4083 33.7487C66.9837 33.9816 67.6139 34.0981 68.2989 34.0981C69.3949 34.0981 70.2923 33.8446 70.991 33.3377C71.6897 32.8171 72.2582 32.1389 72.6966 31.3032L73.4775 31.7348C72.9706 32.7623 72.2788 33.5638 71.402 34.1392C70.5389 34.7009 69.5045 34.9817 68.2989 34.9817C67.4221 34.9817 66.6344 34.8379 65.9357 34.5502C65.237 34.2488 64.6479 33.8378 64.1684 33.3172C63.7026 32.7966 63.3395 32.1869 63.0792 31.4882C62.8326 30.7895 62.7093 30.036 62.7093 29.2277ZM63.7574 28.529H72.7994C72.7172 27.8303 72.5322 27.2275 72.2445 26.7206C71.9568 26.2 71.6006 25.7753 71.1759 25.4465C70.7649 25.104 70.306 24.8505 69.7991 24.6861C69.2922 24.508 68.7784 24.419 68.2578 24.419C67.7235 24.419 67.2029 24.508 66.696 24.6861C66.2028 24.8505 65.7576 25.104 65.3603 25.4465C64.963 25.7753 64.6205 26.2 64.3328 26.7206C64.0588 27.2275 63.867 27.8303 63.7574 28.529ZM74.9719 23.823H75.9789L79.9656 32.9678L83.9318 23.823H84.9387L80.13 34.7351H79.7806L74.9719 23.823ZM85.7479 29.2688C85.7479 28.5153 85.8849 27.796 86.1589 27.111C86.4329 26.4123 86.8165 25.8027 87.3097 25.2821C87.8029 24.7478 88.392 24.3231 89.077 24.008C89.7757 23.6929 90.5429 23.5353 91.3786 23.5353C92.4472 23.5353 93.3856 23.7956 94.1939 24.3162C95.016 24.8231 95.6599 25.5492 96.1257 26.4945V23.823H97.0504V34.7351H96.1257V32.1869C95.6736 33.05 95.0434 33.735 94.235 34.2419C93.4267 34.7351 92.4677 34.9817 91.358 34.9817C90.5223 34.9817 89.762 34.8242 89.077 34.5091C88.392 34.194 87.8029 33.7761 87.3097 33.2555C86.8165 32.7212 86.4329 32.1115 86.1589 31.4265C85.8849 30.7415 85.7479 30.0223 85.7479 29.2688ZM91.4197 34.1392C92.0362 34.1392 92.6253 34.0364 93.187 33.8309C93.7624 33.6254 94.2693 33.3172 94.7077 32.9062C95.1598 32.4951 95.516 31.9951 95.7763 31.406C96.0503 30.8032 96.1873 30.1113 96.1873 29.3304C96.1873 28.7002 96.0777 28.0906 95.8585 27.5015C95.653 26.9124 95.3448 26.3918 94.9338 25.9397C94.5227 25.4739 94.0227 25.104 93.4336 24.83C92.8445 24.556 92.1732 24.419 91.4197 24.419C90.7073 24.419 90.0565 24.556 89.4674 24.83C88.892 25.0903 88.3988 25.4465 87.9878 25.8986C87.5768 26.3507 87.2617 26.8713 87.0425 27.4604C86.8233 28.0495 86.7137 28.6591 86.7137 29.2893C86.7137 29.9469 86.8302 30.5703 87.0631 31.1594C87.296 31.7485 87.6179 32.2622 88.0289 32.7007C88.4399 33.1391 88.9331 33.4884 89.5085 33.7487C90.0839 34.009 90.721 34.1392 91.4197 34.1392ZM100.452 34.7351V23.823H101.377V26.2068C101.897 25.3026 102.527 24.6313 103.267 24.1929C104.021 23.7545 104.843 23.5353 105.733 23.5353C107.035 23.5353 108.035 23.9669 108.734 24.83C109.446 25.6931 109.802 26.974 109.802 28.6728V34.7351H108.877V28.755C108.877 28.07 108.816 27.4604 108.693 26.9261C108.569 26.3781 108.377 25.9191 108.117 25.5492C107.857 25.1656 107.521 24.8779 107.11 24.6861C106.699 24.4806 106.199 24.3779 105.61 24.3779C105.035 24.3779 104.493 24.4943 103.987 24.7272C103.48 24.9601 103.028 25.2821 102.63 25.6931C102.247 26.1041 101.938 26.5904 101.705 27.1521C101.486 27.7138 101.377 28.3235 101.377 28.9811V34.7351H100.452ZM112.09 33.4816L112.686 32.824C113.083 33.2761 113.494 33.6049 113.919 33.8104C114.344 34.0159 114.803 34.1186 115.296 34.1186C115.981 34.1186 116.536 33.9337 116.96 33.5638C117.399 33.1802 117.618 32.6664 117.618 32.0225C117.618 31.5841 117.502 31.2005 117.269 30.8717C117.036 30.5429 116.577 30.1935 115.892 29.8236C115.385 29.5359 114.926 29.2756 114.515 29.0427C114.104 28.7961 113.755 28.5427 113.467 28.2824C113.193 28.0084 112.981 27.7138 112.83 27.3987C112.679 27.0836 112.604 26.7137 112.604 26.289C112.604 25.8643 112.679 25.4876 112.83 25.1588C112.981 24.8163 113.186 24.5286 113.446 24.2957C113.72 24.0491 114.035 23.8641 114.392 23.7408C114.748 23.6038 115.131 23.5353 115.542 23.5353C116.104 23.5353 116.618 23.6518 117.084 23.8847C117.549 24.1039 118.008 24.4327 118.461 24.8711L117.844 25.4876C117.488 25.1314 117.118 24.8642 116.734 24.6861C116.364 24.508 115.96 24.419 115.522 24.419C114.905 24.419 114.412 24.5971 114.042 24.9533C113.672 25.3095 113.487 25.741 113.487 26.2479C113.487 26.7 113.624 27.0836 113.898 27.3987C114.172 27.7138 114.59 28.0289 115.152 28.344C115.714 28.6454 116.2 28.9263 116.611 29.1866C117.036 29.4469 117.385 29.714 117.659 29.988C117.947 30.262 118.159 30.5566 118.296 30.8717C118.433 31.1868 118.502 31.5567 118.502 31.9814C118.502 32.3787 118.433 32.7623 118.296 33.1322C118.159 33.4884 117.954 33.8104 117.68 34.0981C117.419 34.3721 117.091 34.5913 116.693 34.7557C116.31 34.9201 115.858 35.0023 115.337 35.0023C114.666 35.0023 114.049 34.8721 113.487 34.6118C112.939 34.3378 112.474 33.9611 112.09 33.4816ZM120.278 33.4816L120.874 32.824C121.271 33.2761 121.682 33.6049 122.107 33.8104C122.532 34.0159 122.991 34.1186 123.484 34.1186C124.169 34.1186 124.724 33.9337 125.148 33.5638C125.587 33.1802 125.806 32.6664 125.806 32.0225C125.806 31.5841 125.689 31.2005 125.457 30.8717C125.224 30.5429 124.765 30.1935 124.08 29.8236C123.573 29.5359 123.114 29.2756 122.703 29.0427C122.292 28.7961 121.942 28.5427 121.655 28.2824C121.381 28.0084 121.168 27.7138 121.018 27.3987C120.867 27.0836 120.792 26.7137 120.792 26.289C120.792 25.8643 120.867 25.4876 121.018 25.1588C121.168 24.8163 121.374 24.5286 121.634 24.2957C121.908 24.0491 122.223 23.8641 122.58 23.7408C122.936 23.6038 123.319 23.5353 123.73 23.5353C124.292 23.5353 124.806 23.6518 125.272 23.8847C125.737 24.1039 126.196 24.4327 126.648 24.8711L126.032 25.4876C125.676 25.1314 125.306 24.8642 124.922 24.6861C124.552 24.508 124.148 24.419 123.71 24.419C123.093 24.419 122.6 24.5971 122.23 24.9533C121.86 25.3095 121.675 25.741 121.675 26.2479C121.675 26.7 121.812 27.0836 122.086 27.3987C122.36 27.7138 122.778 28.0289 123.34 28.344C123.902 28.6454 124.388 28.9263 124.799 29.1866C125.224 29.4469 125.573 29.714 125.847 29.988C126.135 30.262 126.347 30.5566 126.484 30.8717C126.621 31.1868 126.69 31.5567 126.69 31.9814C126.69 32.3787 126.621 32.7623 126.484 33.1322C126.347 33.4884 126.142 33.8104 125.868 34.0981C125.607 34.3721 125.278 34.5913 124.881 34.7557C124.498 34.9201 124.045 35.0023 123.525 35.0023C122.854 35.0023 122.237 34.8721 121.675 34.6118C121.127 34.3378 120.662 33.9611 120.278 33.4816ZM129.37 34.7351V23.823H130.295V34.7351H129.37ZM128.959 20.6789C128.959 20.4323 129.041 20.2268 129.206 20.0624C129.384 19.898 129.589 19.8158 129.822 19.8158C130.055 19.8158 130.254 19.898 130.418 20.0624C130.596 20.2268 130.685 20.4323 130.685 20.6789C130.685 20.9118 130.596 21.1173 130.418 21.2954C130.254 21.4598 130.055 21.542 129.822 21.542C129.576 21.542 129.37 21.4598 129.206 21.2954C129.041 21.1173 128.959 20.9118 128.959 20.6789ZM133.069 29.2893C133.069 28.5221 133.206 27.796 133.48 27.111C133.754 26.4123 134.138 25.8027 134.631 25.2821C135.124 24.7478 135.72 24.3231 136.419 24.008C137.118 23.6929 137.892 23.5353 138.741 23.5353C139.604 23.5353 140.385 23.6929 141.084 24.008C141.782 24.3231 142.378 24.7478 142.872 25.2821C143.365 25.8164 143.742 26.4329 144.002 27.1316C144.276 27.8166 144.413 28.5358 144.413 29.2893C144.413 30.0428 144.276 30.7689 144.002 31.4676C143.742 32.1526 143.365 32.7623 142.872 33.2966C142.378 33.8172 141.782 34.2351 141.084 34.5502C140.385 34.8653 139.604 35.0228 138.741 35.0228C137.892 35.0228 137.118 34.8721 136.419 34.5707C135.72 34.2556 135.124 33.8378 134.631 33.3172C134.138 32.7829 133.754 32.1732 133.48 31.4882C133.206 30.7895 133.069 30.0565 133.069 29.2893ZM134.035 29.3099C134.035 29.9538 134.145 30.5703 134.364 31.1594C134.597 31.7348 134.919 32.2485 135.33 32.7007C135.754 33.1391 136.254 33.4884 136.83 33.7487C137.405 34.009 138.042 34.1392 138.741 34.1392C139.453 34.1392 140.097 34.009 140.673 33.7487C141.248 33.4884 141.741 33.1391 142.152 32.7007C142.563 32.2622 142.878 31.7553 143.098 31.1799C143.331 30.5908 143.447 29.9675 143.447 29.3099C143.447 28.6523 143.331 28.0289 143.098 27.4398C142.865 26.837 142.543 26.3164 142.132 25.878C141.721 25.4259 141.228 25.0697 140.652 24.8094C140.077 24.5491 139.44 24.419 138.741 24.419C138.056 24.419 137.426 24.5491 136.85 24.8094C136.275 25.0697 135.775 25.4259 135.35 25.878C134.939 26.3301 134.617 26.8507 134.384 27.4398C134.152 28.0289 134.035 28.6523 134.035 29.3099ZM147.231 34.7351V23.823H148.156V26.2068C148.677 25.3026 149.307 24.6313 150.047 24.1929C150.8 23.7545 151.622 23.5353 152.513 23.5353C153.814 23.5353 154.814 23.9669 155.513 24.83C156.226 25.6931 156.582 26.974 156.582 28.6728V34.7351H155.657V28.755C155.657 28.07 155.595 27.4604 155.472 26.9261C155.349 26.3781 155.157 25.9191 154.897 25.5492C154.636 25.1656 154.301 24.8779 153.89 24.6861C153.479 24.4806 152.979 24.3779 152.389 24.3779C151.814 24.3779 151.273 24.4943 150.766 24.7272C150.259 24.9601 149.807 25.2821 149.41 25.6931C149.026 26.1041 148.718 26.5904 148.485 27.1521C148.266 27.7138 148.156 28.3235 148.156 28.9811V34.7351H147.231Z" fill="#1C1C1C"></path><path d="M41.5588 30.8827C41.7903 30.337 43.1286 28.9445 45.3443 28.8809C47.5599 28.8172 48.259 30.4403 48.1709 31.4025C47.9722 32.4493 47.4804 33.4573 44.5618 34.3221C43.1004 34.5455 42.441 34.1201 42.342 33.9678C40.7672 33.9973 38.4108 33.9231 36.191 33.5689C32.7873 33.0257 27.6606 31.0535 25.1492 29.1222C22.6379 27.191 19.8055 25.7896 14.7625 14.8052C14.3936 14.7086 14 13.8097 13.7417 13.0599C13.4362 11.7672 13.3762 10.7814 13.6697 10.0095C14.0365 9.04457 14.5283 8.0366 15.9077 7.98117C17.0112 7.93683 17.8871 9.39661 18.1871 10.132C18.444 10.7425 18.819 12.2908 18.2632 13.6004C17.9698 14.2917 17.8303 14.5924 17.7739 14.6915C17.8123 15.759 18.1356 18.2377 19.1656 20.2788C20.4878 22.8989 21.7198 24.8511 23.1977 26.2994C24.4645 27.5407 26.4479 28.8325 27.6621 29.5154C30.4374 31.0762 32.9325 31.4754 33.7046 31.629C34.4767 31.7826 36.8857 31.932 38.7652 31.7044C39.2935 31.6404 40.8517 31.2658 41.5588 30.8827Z" fill="url(#paint0_linear_1995_26042)"></path><path d="M38.8735 21.3907C39.3963 21.6705 41.3124 21.916 43.0781 20.5766C44.8437 19.2372 44.3696 17.5348 43.6972 16.8406C42.8855 16.1499 41.8699 15.6731 39.0541 16.8293C37.7757 17.5714 37.5291 18.3161 37.5475 18.4968C36.3025 19.4611 34.5138 20.9961 33.0072 22.6636C30.6971 25.2204 27.9418 29.9705 27.1978 33.049C26.4537 36.1276 25.1272 38.9947 28.0924 50.7112C27.8657 51.0178 28.1233 51.9647 28.3926 52.7106C28.9658 53.9089 29.5377 54.7142 30.2507 55.1315C31.1419 55.6531 32.1575 56.1298 33.2666 55.3082C34.1539 54.6509 33.92 52.9649 33.6922 52.2041C33.5092 51.5675 32.8296 50.1266 31.575 49.4551C30.9127 49.1006 30.6153 48.9538 30.5092 48.912C29.8692 48.0565 28.5655 45.9233 28.0869 43.6879C27.4726 40.8183 27.207 38.5255 27.4493 36.471C27.6569 34.71 28.3911 32.4605 28.9082 31.1675C30.0903 28.212 31.783 26.3369 32.288 25.7332C32.793 25.1295 34.5755 23.503 36.1821 22.502C36.6337 22.2206 38.0824 21.5355 38.8735 21.3907Z" fill="url(#paint1_linear_1995_26042)"></path><path d="M17.9082 49.3228C17.3168 49.3663 15.567 50.1846 14.7936 52.2608C14.0201 54.337 15.3326 55.521 16.2724 55.7473C17.328 55.8962 18.4411 55.7552 20.1996 53.2716C20.8816 51.9606 20.6909 51.1998 20.5786 51.057C21.1134 49.5762 21.8015 47.3224 22.1804 45.1078C22.7615 41.712 22.5434 36.2257 21.5223 33.2275C20.5013 30.2294 20.0854 27.098 11.3037 18.7902C11.3309 18.41 10.6061 17.7482 9.97899 17.2624C8.85286 16.5572 7.93835 16.1832 7.11267 16.2125C6.08057 16.249 4.96747 16.39 4.47099 17.6775C4.0738 18.7075 5.17466 20.0062 5.77474 20.5268C6.27031 20.9664 7.61628 21.8196 9.03561 21.7152C9.7849 21.6601 10.1147 21.6248 10.2267 21.6033C11.2255 21.9832 13.4694 23.087 15.0713 24.7187C17.1276 26.8133 18.5803 28.6075 19.4765 30.4722C20.2447 32.0706 20.8299 34.3632 21.0859 35.7321C21.6711 38.8608 21.2462 41.3504 21.1432 42.1305C21.0402 42.9106 20.4063 45.2383 19.5858 46.9437C19.3551 47.423 18.4988 48.777 17.9082 49.3228Z" fill="url(#paint2_linear_1995_26042)"></path><path d="M39.7053 41.3486C39.5658 41.9246 39.8097 43.8401 41.5505 45.2115C43.2913 46.5829 44.8207 45.6963 45.324 44.8714C45.7888 43.9125 45.9952 42.8102 44.1678 40.3767C43.1278 39.3265 42.3448 39.2752 42.1744 39.3384C40.9277 38.3763 38.9915 37.0317 36.9981 35.9934C33.9415 34.4012 28.6491 32.9297 25.4809 32.9837C22.3128 33.0377 19.2029 32.4751 8.60222 38.2887C8.24836 38.1465 7.39618 38.6336 6.74156 39.0816C5.72525 39.9374 5.08913 40.6931 4.86427 41.4877C4.5832 42.481 4.37683 43.5833 5.45122 44.4498C6.31073 45.143 7.88464 44.4929 8.56415 44.0812C9.13457 43.7442 10.3591 42.7246 10.694 41.3421C10.8709 40.6122 10.9382 40.2876 10.952 40.1745C11.6196 39.3403 13.3576 37.5429 15.4021 36.518C18.0265 35.2024 20.18 34.3692 22.2304 34.0871C23.9879 33.8454 26.3507 33.9902 27.7329 34.1655C30.892 34.5662 33.1333 35.7324 33.8448 36.0692C34.5564 36.406 36.5795 37.7215 37.9527 39.0242C38.3387 39.3903 39.3662 40.6196 39.7053 41.3486Z" fill="url(#paint3_linear_1995_26042)"></path><path d="M30.7389 14.7739C30.3118 14.3628 29.4888 12.6159 30.2209 10.5248C30.9531 8.43368 32.7196 8.36106 33.5872 8.78705C34.4945 9.34663 35.2606 10.1659 35.0258 13.1995C34.7125 14.6436 34.0794 15.1071 33.9017 15.1452C33.3665 16.6258 32.4552 18.799 31.3311 20.7447C29.6073 23.728 25.9325 27.8093 23.2306 29.4636C20.5286 31.118 18.207 33.2613 6.14083 34.0443C5.91868 34.3541 4.93806 34.4004 4.14514 34.3736C2.82806 34.197 1.88547 33.9007 1.26898 33.3509C0.498364 32.6637 -0.267789 31.8444 0.173291 30.5369C0.526155 29.4909 2.2032 29.1949 2.99761 29.1776C3.65986 29.1558 5.24065 29.3591 6.26576 30.3458C6.80694 30.8667 7.03811 31.1044 7.1105 31.1925C8.12173 31.538 10.5535 32.1219 12.8288 31.8896C15.7496 31.5915 18.0141 31.139 19.8955 30.2768C21.5081 29.5377 23.4239 28.1478 24.4958 27.2583C26.946 25.2251 28.2106 23.0386 28.63 22.3727C29.0494 21.7067 30.0497 19.5113 30.5086 17.6754C30.6376 17.1594 30.8443 15.5709 30.7389 14.7739Z" fill="url(#paint4_linear_1995_26042)"></path><defs><linearGradient id="paint0_linear_1995_26042" x1="43.5489" y1="32.4624" x2="15.7166" y2="12.1191" gradientUnits="userSpaceOnUse"><stop stop-color="#3968AE"></stop><stop offset="0.290011" stop-color="#5EACD0"></stop><stop offset="0.751055" stop-color="#64B6D5"></stop><stop offset="1" stop-color="#3968AE"></stop></linearGradient><linearGradient id="paint1_linear_1995_26042" x1="39.4322" y1="18.9127" x2="30.5137" y2="52.2033" gradientUnits="userSpaceOnUse"><stop stop-color="#8C017E"></stop><stop offset="0.290011" stop-color="#EA7FBE"></stop><stop offset="0.751055" stop-color="#DD3D9C"></stop><stop offset="1" stop-color="#9B1588"></stop></linearGradient><linearGradient id="paint2_linear_1995_26042" x1="18.7641" y1="51.7146" x2="8.47684" y2="18.8207" gradientUnits="userSpaceOnUse"><stop stop-color="#900000"></stop><stop offset="0.290011" stop-color="#FC1600"></stop><stop offset="0.751055" stop-color="#FF1700"></stop><stop offset="1" stop-color="#900000"></stop></linearGradient><linearGradient id="paint3_linear_1995_26042" x1="42.2454" y1="41.2662" x2="7.76605" y2="40.9973" gradientUnits="userSpaceOnUse"><stop stop-color="#FDD101"></stop><stop offset="0.290011" stop-color="#F3EE0C"></stop><stop offset="0.751055" stop-color="#F9DC05"></stop><stop offset="1" stop-color="#FECF00"></stop></linearGradient><linearGradient id="paint4_linear_1995_26042" x1="32.9262" y1="13.4806" x2="3.98886" y2="32.2205" gradientUnits="userSpaceOnUse"><stop stop-color="#288327"></stop><stop offset="0.290011" stop-color="#88C433"></stop><stop offset="0.751055" stop-color="#80BF32"></stop><stop offset="1" stop-color="#288327"></stop></linearGradient></defs></svg>