<?xml version="1.0" encoding="utf-8"?>
<!-- Generator: Adobe Illustrator 28.2.0, SVG Export Plug-In . SVG Version: 6.00 Build 0)  -->
<svg version="1.1" id="Layer_1" xmlns="http://www.w3.org/2000/svg" xmlns:xlink="http://www.w3.org/1999/xlink" x="0px" y="0px"
	 viewBox="0 0 100.7 22.6" style="enable-background:new 0 0 100.7 22.6;" xml:space="preserve">
<style type="text/css">
	.st0{fill:#0068AD;}
	.st1{opacity:7.000000e-02;fill:#FFFFFF;enable-background:new    ;}
	.st2{opacity:0.29;fill:#010303;enable-background:new    ;}
	.st3{fill:#FFFFFF;}
</style>
<g>
	<path class="st0" d="M15.9,0C10.1,1.1,4.8,2.7,0.3,4.9C0.1,4.9,0,5.1,0,5.3v0.9v1v0.9v0.3v0.9v1v0.9v0.7v1.8v1.1v1.8
		c0,1.1,0.6,2.1,1.5,2.6l5.2,3c0.9,0.5,2.1,0.5,3,0l5.2-3c0.9-0.5,1.5-1.5,1.5-2.6v-3v-0.7l0,0v-3V7.5V6.6V4.5V3.6V3.2V0.4
		C16.5,0.2,16.2,0,15.9,0z"/>
	<path class="st1" d="M15.9,0c-2.6,0.5-5.2,1.1-7.7,1.9v20.6c0.5,0,1-0.1,1.5-0.4l5.2-3c0.9-0.5,1.5-1.5,1.5-2.6v-3v-0.6l0,0v-3V7.5
		V6.6V4.5V3.6V3.2V0.4C16.5,0.2,16.2,0,15.9,0z"/>
	<path class="st2" d="M12.9,3.2C8.9,3.7,5.2,4.7,2,6.1c-0.1,0-0.2,0.2-0.2,0.3V7v0.7v0.6V9c0,0,0,0,0-0.1c3.3-1.4,7.2-2.5,11.4-3
		l0,0l0,0V3.5C13.3,3.3,13.1,3.2,12.9,3.2z"/>
	<path class="st2" d="M8.9,8C6.4,8.5,4.1,9.2,2,10c-0.1,0.1-0.2,0.2-0.2,0.3v0.6v0.7v0.6v0.7c0,0,0,0,0-0.1c2.1-0.9,4.5-1.6,7-2.1
		L8.9,8L8.9,8z"/>
	<path class="st3" d="M13.4,2.4C9.2,3.2,5.3,4.5,2,6.1c-0.1,0-0.2,0.2-0.2,0.3V7v0.7v0.6V9c0,0,0,0,0-0.1c3.4-1.7,7.4-3,11.9-3.8
		l0,0l0,0V2.7C13.8,2.5,13.6,2.4,13.4,2.4z"/>
	<path class="st3" d="M9.4,7.3C6.7,8,4.2,8.9,2,10c-0.1,0.1-0.2,0.2-0.2,0.3v0.6v0.7v0.6v0.7c0,0,0,0,0-0.1c2.2-1.1,4.8-2,7.5-2.8
		L9.4,7.3L9.4,7.3z"/>
	<path class="st2" d="M4.6,13.3C3.7,13.5,2.8,13.7,2,14c-0.1,0-0.2,0.2-0.2,0.3v0.6v0.7v0.6v0.7c0,0,0,0,0-0.1
		c0.9-0.3,1.8-0.5,2.7-0.7L4.6,13.3L4.6,13.3z"/>
	<path class="st3" d="M5,12.6c-1,0.4-2,0.8-3,1.3c-0.1,0.1-0.2,0.2-0.2,0.3v0.7v0.7v0.6v0.7c0,0,0,0,0-0.1c1-0.5,2.1-1,3.2-1.4V12.6
		z"/>
</g>
<g>
	<path d="M24.2,6.4c0,0,0.1-0.1,0.2-0.1h5.1c0.1,0,0.2,0,0.2,0.1c0,0,0.1,0.1,0.1,0.2V7c0,0.1,0,0.2-0.1,0.2c0,0-0.1,0.1-0.2,0.1
		h-4.3c-0.1,0-0.1,0-0.1,0.1v3.4c0,0.1,0,0.1,0.1,0.1h3.3c0.1,0,0.2,0,0.2,0.1c0,0,0.1,0.1,0.1,0.2v0.3c0,0.1,0,0.2-0.1,0.2
		c0,0-0.1,0.1-0.2,0.1h-3.3c-0.1,0-0.1,0-0.1,0.1v4c0,0.1,0,0.2-0.1,0.2c0,0-0.1,0.1-0.2,0.1h-0.4c-0.1,0-0.2,0-0.2-0.1
		c0,0-0.1-0.1-0.1-0.2V6.7C24.1,6.5,24.2,6.5,24.2,6.4z"/>
	<path d="M31.8,6.4c0,0,0.1-0.1,0.2-0.1h0.4c0.1,0,0.2,0,0.2,0.1c0,0,0.1,0.1,0.1,0.2V16c0,0.1,0,0.2-0.1,0.2c0,0-0.1,0.1-0.2,0.1
		H32c-0.1,0-0.2,0-0.2-0.1c0,0-0.1-0.1-0.1-0.2V6.7C31.7,6.5,31.7,6.5,31.8,6.4z"/>
	<path d="M35.4,6.4c0,0,0.1-0.1,0.2-0.1H36c0.1,0,0.2,0,0.2,0.1c0,0,0.1,0.1,0.1,0.2v8.6c0,0.1,0,0.1,0.1,0.1h4.4
		c0.1,0,0.2,0,0.2,0.1s0.1,0.1,0.1,0.2V16c0,0.1,0,0.2-0.1,0.2c0,0-0.1,0.1-0.2,0.1h-5.2c-0.1,0-0.2,0-0.2-0.1c0,0-0.1-0.1-0.1-0.2
		V6.7C35.3,6.5,35.3,6.5,35.4,6.4z"/>
	<path d="M43,6.4c0,0,0.1-0.1,0.2-0.1h5.1c0.1,0,0.2,0,0.2,0.1c0,0,0.1,0.1,0.1,0.2V7c0,0.1,0,0.2-0.1,0.2c0,0-0.1,0.1-0.2,0.1H44
		c-0.1,0-0.1,0-0.1,0.1v3.3c0,0.1,0,0.1,0.1,0.1h3c0.1,0,0.2,0,0.2,0.1c0,0,0.1,0.1,0.1,0.2v0.3c0,0.1,0,0.2-0.1,0.2
		c0,0-0.1,0.1-0.2,0.1h-3c-0.1,0-0.1,0-0.1,0.1v3.4c0,0.1,0,0.1,0.1,0.1h4.3c0.1,0,0.2,0,0.2,0.1c0,0,0.1,0.1,0.1,0.2V16
		c0,0.1,0,0.2-0.1,0.2c0,0-0.1,0.1-0.2,0.1h-5.1c-0.1,0-0.2,0-0.2-0.1c0,0-0.1-0.1-0.1-0.2V6.7C43,6.5,43,6.5,43,6.4z"/>
	<path d="M59,14.9V15l-0.1,0.1c-0.5,0.4-1.1,0.8-1.7,1c-0.6,0.2-1.3,0.3-2,0.3c-0.9,0-1.8-0.2-2.5-0.7c-0.8-0.4-1.4-1-1.8-1.8
		c-0.4-0.8-0.7-1.6-0.7-2.6s0.2-1.9,0.7-2.6c0.4-0.8,1.1-1.4,1.8-1.8c0.8-0.4,1.7-0.7,2.6-0.7c0.7,0,1.3,0.1,1.9,0.4
		c0.6,0.2,1.2,0.6,1.6,1c0.1,0,0.2,0.1,0.2,0.1c0,0.1,0,0.1-0.1,0.2l-0.4,0.6c-0.1,0.1-0.2,0.2-0.2,0.2c-0.1,0-0.1,0-0.2-0.1
		c-0.4-0.3-0.8-0.6-1.3-0.7c-0.5-0.2-1-0.3-1.5-0.3c-0.7,0-1.3,0.2-1.8,0.5c-0.6,0.3-1,0.8-1.3,1.3c-0.3,0.6-0.5,1.2-0.5,2
		c0,0.7,0.2,1.3,0.5,1.9c0.3,0.6,0.8,1,1.3,1.4s1.2,0.5,1.8,0.5c1.1,0,2-0.3,2.8-1c0.1-0.1,0.2-0.1,0.2-0.1h0.1l0.1,0.1l0.4,0.6
		C59,14.7,59,14.8,59,14.9z"/>
	<path d="M60.7,6.4c0,0,0.1-0.1,0.2-0.1h0.8c0.1,0,0.2,0,0.2,0.1c0,0,0.1,0.1,0.1,0.2v8.1c0,0.1,0,0.1,0,0.1h0.1h4.2
		c0.1,0,0.2,0,0.2,0.1c0,0,0.1,0.1,0.1,0.2V16c0,0.1,0,0.2-0.1,0.2c0,0-0.1,0.1-0.2,0.1H61c-0.1,0-0.2,0-0.2-0.1
		c0,0-0.1-0.1-0.1-0.2V6.7C60.6,6.6,60.7,6.5,60.7,6.4z"/>
	<path d="M67.9,8.7C68.4,8,69,7.3,69.8,6.9s1.7-0.7,2.6-0.7c1,0,1.8,0.2,2.6,0.7c0.8,0.4,1.4,1.1,1.8,1.8c0.4,0.8,0.7,1.6,0.7,2.6
		s-0.2,1.8-0.7,2.6c-0.4,0.8-1.1,1.4-1.8,1.8c-0.8,0.4-1.7,0.7-2.6,0.7c-1,0-1.8-0.2-2.6-0.7c-0.8-0.4-1.4-1-1.8-1.8
		s-0.7-1.6-0.7-2.6C67.3,10.4,67.5,9.5,67.9,8.7z M74.2,14.6c0.6-0.3,1-0.8,1.3-1.4S76,12,76,11.3s-0.2-1.4-0.5-1.9
		c-0.3-0.6-0.8-1-1.3-1.3c-0.6-0.3-1.2-0.5-1.8-0.5c-0.7,0-1.3,0.2-1.8,0.5c-0.6,0.3-1,0.8-1.3,1.4c-0.3,0.6-0.5,1.2-0.5,2
		c0,0.7,0.2,1.3,0.5,1.9s0.8,1,1.3,1.3c0.6,0.3,1.2,0.5,1.8,0.5S73.6,14.9,74.2,14.6z"/>
	<path d="M79.4,6.4c0,0,0.1-0.1,0.2-0.1h0.8c0.1,0,0.2,0,0.3,0.1c0,0,0.1,0.1,0.1,0.2V12c0,1,0.2,1.7,0.7,2.3c0.5,0.5,1.1,0.8,2,0.8
		c0.6,0,1.1-0.1,1.5-0.4c0.4-0.2,0.7-0.6,0.9-1.1c0.2-0.5,0.3-1,0.3-1.6V6.7c0-0.1,0-0.2,0.1-0.2c0,0,0.1-0.1,0.2-0.1h0.8
		c0.1,0,0.2,0,0.3,0.1c0,0,0.1,0.1,0.1,0.2v5.4c0,1-0.2,1.8-0.5,2.4c-0.4,0.7-0.8,1.1-1.5,1.5c-0.6,0.3-1.3,0.5-2.2,0.5
		c-0.8,0-1.5-0.2-2.1-0.5c-0.6-0.3-1.1-0.8-1.4-1.4c-0.3-0.7-0.5-1.5-0.5-2.4V6.7C79.3,6.6,79.4,6.5,79.4,6.4z"/>
	<path d="M97.3,8.7c-0.4-0.7-1-1.3-1.9-1.7c-0.8-0.4-1.8-0.6-2.9-0.6h-2.9c-0.1,0-0.2,0-0.2,0.1c0,0-0.1,0.1-0.1,0.2v0.1v0.3v0.3
		c0,0.1,0,0.2,0.1,0.2c0,0,0.1,0.1,0.2,0.1h0.3l0,0H92l0,0h0.4c0.8,0,1.5,0.1,2.1,0.4c0.6,0.3,1.1,0.7,1.4,1.2s0.5,1.2,0.5,1.9
		c0,0.8-0.2,1.4-0.5,2c-0.3,0.5-0.8,1-1.4,1.3s-1.3,0.4-2.2,0.4h-1.5l0,0h-1l0,0h-0.2c-0.1,0-0.2,0-0.2,0.1c0,0-0.1,0.1-0.1,0.2v0.4
		v0.2V16c0,0.1,0,0.2,0.1,0.2c0,0,0.1,0.1,0.2,0.1h2.7c1.1,0,2.1-0.2,3-0.6c0.8-0.4,1.5-1,1.9-1.8s0.7-1.7,0.7-2.7
		S97.7,9.4,97.3,8.7z"/>
</g>
</svg>
