<?xml version="1.0" encoding="UTF-8"?>
<svg id="Layer_2" data-name="Layer 2" xmlns="http://www.w3.org/2000/svg" viewBox="0 0 378.6 66.57">
  <defs>
    <style>
      .cls-1 {
        fill: #ca2031;
      }

      .cls-1, .cls-2, .cls-3, .cls-4, .cls-5 {
        stroke-width: 0px;
      }

      .cls-1, .cls-2, .cls-4, .cls-5 {
        fill-rule: evenodd;
      }

      .cls-2 {
        fill: #009a50;
      }

      .cls-3 {
        fill: #231f20;
      }

      .cls-4 {
        fill: #ffcd22;
      }

      .cls-5 {
        fill: #0078b6;
      }
    </style>
  </defs>
  <g id="ec671cd5-8430-447c-ad2d-f67bb826235e">
    <g id="Layer_1-2" data-name="Layer 1-2">
      <g>
        <path class="cls-4" d="M360.78,1.88c22.25,15.47,12.97,51.38-10.82,55.26h0c30.54.02,40.46-41.39,10.82-55.26"/>
        <path class="cls-5" d="M337.08,1.65c26.53-3.91,37.41,28.87,25.8,44.02,19.21-19.36,3.84-53.56-25.8-44.02"/>
        <path class="cls-2" d="M321.41,17.64c13.08-19.38,40.26-7.39,42.98,12.2,3.12-24.2-28.78-37.62-42.98-12.2"/>
        <path class="cls-1" d="M320.77,32.13c3.18-20.11,29.35-22.22,38.78-8.09-7.71-20.02-38.27-17.57-38.78,8.09"/>
        <g>
          <path class="cls-3" d="M0,21.42h10.64l8.87,23.27,8.65-23.27h10.45v35.57h-8.02v-24.98l-9.84,24.98h-3.64l-9.89-24.98v24.98H0V21.42Z"/>
          <path class="cls-3" d="M60.32,53.84c-1.85,2.75-4.59,3.69-7.68,3.69-5.05,0-8.84-2.53-8.84-7.73,0-6.61,6.17-8.38,11.78-8.38h4.66c0-3.5-.34-5.86-4.42-5.86-2.29,0-4.54,1.04-5.32,3.35l-5.51-2.41c1.7-4.69,6.97-6.17,11.66-6.17,6.29,0,10.71,2.69,10.71,9.67v16.96h-7.04v-3.13ZM57.48,45.68c-2.57,0-6.63.19-6.63,3.69,0,2.31,1.72,3.13,3.82,3.13,2.82,0,5.59-1.48,5.59-4.64v-2.18h-2.77Z"/>
          <path class="cls-3" d="M73.58,30.96h7.22v4.13c1.67-3.2,5.23-4.74,8.8-4.74,6.07,0,8.67,4.4,8.67,10.06v16.57h-7.22v-15.52c0-3.23-1.46-5.23-4.81-5.23-3.57,0-5.44,2.29-5.44,5.74v15.01h-7.22v-26.02h0Z"/>
          <path class="cls-3" d="M119.33,53.84c-1.85,2.75-4.59,3.69-7.68,3.69-5.05,0-8.84-2.53-8.84-7.73,0-6.61,6.17-8.38,11.78-8.38h4.66c0-3.5-.34-5.86-4.42-5.86-2.29,0-4.54,1.04-5.32,3.35l-5.51-2.41c1.7-4.69,6.97-6.17,11.66-6.17,6.29,0,10.71,2.69,10.71,9.67v16.96h-7.04v-3.13ZM116.48,45.68c-2.57,0-6.63.19-6.63,3.69,0,2.31,1.72,3.13,3.82,3.13,2.82,0,5.59-1.48,5.59-4.64v-2.18h-2.77Z"/>
          <path class="cls-3" d="M137.62,57.83c1.09,2.65,3.86,3.47,6.56,3.47,4.2,0,6.53-2.02,6.53-6.37v-3.94c-1.7,2.92-4.98,4.84-8.36,4.84-7.39,0-11.35-5.88-11.35-12.78s4.35-12.71,11.64-12.71c3.38,0,6.29,1.29,8.06,4.49v-3.89h7.17v23.98c0,8.48-6.07,11.64-13.7,11.64-4.88,0-10.28-1.29-12.22-6.27l5.66-2.48h0ZM150.91,43.01c0-4.06-1.97-7.17-6.32-7.17s-6.22,3.43-6.22,7.55c0,3.77,2.06,7.02,6.29,7.02s6.25-3.4,6.25-7.41h0Z"/>
          <path class="cls-3" d="M188.08,51.41c-2.02,4.69-7.14,6.12-11.59,6.12-8.6,0-13.82-5.32-13.82-13.65,0-7.8,5.54-13.53,13.43-13.53,5.05,0,9.59,2.33,11.54,7.09,1.09,2.67,1.09,5.42,1.09,8.14h-18.75c.19,4.01,2.21,6.83,6.46,6.83,2.82,0,4.96-.73,6.32-3.35l5.32,2.36h0ZM181.71,41.16c-.19-3.57-1.92-5.83-5.51-5.83s-5.66,2.48-6.12,5.83h11.64,0Z"/>
          <path class="cls-3" d="M194.39,21.42h22.55v4.42h-17.03v10.84h13.9v4.35h-13.9v11.54h17.88v4.42h-23.39V21.42h0Z"/>
          <path class="cls-3" d="M223.49,30.94h5.17v4.13c1.55-3.23,5-4.61,8.53-4.61,6.32,0,9.28,4.49,9.28,10.49v16.03h-5.17v-15.89c0-4.01-1.9-6.29-5.88-6.29-4.21,0-6.76,2.55-6.76,6.63v15.55h-5.17v-26.04h0Z"/>
          <path class="cls-3" d="M256.89,58.41c1.36,3.04,4.74,4.03,7.8,4.03,4.79,0,8.11-2.43,8.11-7.46v-3.84c-1.82,3.06-5.49,4.88-9.01,4.88-7.31,0-11.63-5.76-11.63-12.56s4.71-13.02,11.9-13.02c3.52,0,6.92,1.41,8.75,4.52v-4.03h5.12v24.2c0,7.92-5.95,11.39-13.36,11.39-4.81,0-9.55-1.46-11.76-6.32l4.08-1.8ZM272.95,43.01c0-4.79-2.65-8.48-7.7-8.48-5.32,0-7.82,4.08-7.82,8.96,0,4.4,2.89,8.45,7.55,8.45,5.15,0,7.97-4.01,7.97-8.94h0Z"/>
          <path class="cls-3" d="M287.36,20.32c1.72,0,3.21,1.34,3.21,3.13s-1.46,3.13-3.21,3.13-3.2-1.39-3.2-3.13,1.46-3.13,3.2-3.13ZM284.86,31.01h5.12v25.97h-5.12v-25.97Z"/>
          <path class="cls-3" d="M297.88,30.94h5.17v4.13c1.55-3.23,5-4.61,8.53-4.61,6.32,0,9.28,4.49,9.28,10.49v16.03h-5.17v-15.89c0-4.01-1.9-6.29-5.88-6.29-4.21,0-6.76,2.55-6.76,6.63v15.55h-5.17v-26.04h0Z"/>
          <path class="cls-3" d="M350.61,51.15c-2.29,4.42-6.37,6.32-11.03,6.32-8.21,0-13.04-5.83-13.04-13.41s4.91-13.61,12.58-13.61c9.11,0,12,6.46,12,14.57h-19.31c0,4.79,2.55,8.43,7.53,8.43,3.18,0,5.61-1.51,7-4.13l4.28,1.82h0ZM346,41.33c-.27-4.2-2.45-6.95-6.68-6.95s-6.78,3.04-7.36,6.95h14.04Z"/>
        </g>
      </g>
    </g>
  </g>
</svg>