<?xml version="1.0" encoding="UTF-8"?>
<svg id="Layer_2" data-name="Layer 2" xmlns="http://www.w3.org/2000/svg" viewBox="0 0 70.62 44.38">
  <defs>
    <style>
      .cls-1 {
        fill: #2b372e;
        stroke-width: 0px;
      }
    </style>
  </defs>
  <g id="Layer_1-2" data-name="Layer 1">
    <path class="cls-1" d="M61.59,15.69h-1.11c.91-1.18,1.45-2.66,1.45-4.27v-1.95c0-3.87-3.15-7.03-7.03-7.03s-7.03,3.15-7.03,7.03v1.51L37.49.61c-.58-.58-1.42-.76-2.18-.49-.76-.27-1.61-.09-2.18.49l-10.38,10.38v-1.51c0-3.87-3.15-7.03-7.03-7.03s-7.03,3.15-7.03,7.03v1.95c0,1.6.54,3.08,1.45,4.27h-1.11c-4.98,0-9.03,4.05-9.03,9.03v18.28c0,.76.62,1.38,1.38,1.38h5.83c.14,0,.27-.02.4-.06.13.04.26.06.4.06h15.45c.76,0,1.38-.62,1.38-1.38v-4.69c0-.76-.62-1.38-1.38-1.38s-1.38.62-1.38,1.38v3.31h-12.69v-15.72c0-.76-.62-1.38-1.38-1.38s-1.38.62-1.38,1.38v15.72h-3.86v-16.9c0-3.46,2.82-6.28,6.28-6.28h9.59c.38,0,.72-.15.97-.4,0,0,0,0,0,0l14.33-14.33c-.09,2.86-.98,5.62-2.59,8.01l-9.03,13.41c-.15.23-.24.5-.24.77v1.51c0,.76.62,1.38,1.38,1.38s1.38-.62,1.38-1.38v-1.09l8.79-13.06c.67-1,1.24-2.05,1.69-3.15.46,1.09,1.02,2.15,1.69,3.15l8.79,13.06v16.68c0,.76.62,1.38,1.38,1.38h15.45c.14,0,.27-.02.4-.06.13.04.26.06.4.06h5.83c.76,0,1.38-.62,1.38-1.38v-18.28c0-4.98-4.05-9.03-9.03-9.03ZM19.99,11.42c0,2.35-1.91,4.27-4.27,4.27s-4.27-1.91-4.27-4.27v-1.95c0-2.35,1.91-4.27,4.27-4.27s4.27,1.91,4.27,4.27v1.95ZM50.63,9.47c0-2.35,1.91-4.27,4.27-4.27s4.27,1.91,4.27,4.27v1.95c0,2.35-1.91,4.27-4.27,4.27s-4.27-1.91-4.27-4.27v-1.95ZM67.86,41.62h-3.86v-10.21c0-.76-.62-1.38-1.38-1.38s-1.38.62-1.38,1.38v10.21h-12.69v-15.72c0-.27-.08-.54-.24-.77l-9.03-13.41c-1.61-2.39-2.5-5.14-2.59-8.01l14.33,14.33s.04.03.05.05c.24.22.57.36.92.36h9.59c3.46,0,6.28,2.82,6.28,6.28v16.9h0Z"/>
  </g>
</svg>