<?xml version="1.0" encoding="UTF-8"?>
<svg id="Layer_2" data-name="Layer 2" xmlns="http://www.w3.org/2000/svg" viewBox="0 0 65.11 65.11">
  <defs>
    <style>
      .cls-1 {
        fill: #2b372e;
        stroke-width: 0px;
      }
    </style>
  </defs>
  <g id="Layer_1-2" data-name="Layer 1">
    <g>
      <g>
        <path class="cls-1" d="M21.11,15.48c-2.1,0-3.81-1.71-3.81-3.81s1.71-3.81,3.81-3.81,3.81,1.71,3.81,3.81-1.71,3.81-3.81,3.81ZM21.11,10.4c-.7,0-1.27.57-1.27,1.27s.57,1.27,1.27,1.27,1.27-.57,1.27-1.27-.57-1.27-1.27-1.27Z"/>
        <path class="cls-1" d="M32.55,15.48c-2.1,0-3.81-1.71-3.81-3.81s1.71-3.81,3.81-3.81,3.81,1.71,3.81,3.81-1.71,3.81-3.81,3.81ZM32.55,10.4c-.7,0-1.27.57-1.27,1.27s.57,1.27,1.27,1.27,1.27-.57,1.27-1.27-.57-1.27-1.27-1.27Z"/>
        <path class="cls-1" d="M44,15.48c-2.1,0-3.81-1.71-3.81-3.81s1.71-3.81,3.81-3.81,3.81,1.71,3.81,3.81-1.71,3.81-3.81,3.81ZM44,10.4c-.7,0-1.27.57-1.27,1.27s.57,1.27,1.27,1.27,1.27-.57,1.27-1.27-.57-1.27-1.27-1.27Z"/>
      </g>
      <g>
        <path class="cls-1" d="M10.15,23.17v2.88c0,.47.26.9.68,1.12.42.22.92.19,1.31-.07l5.59-3.79h10.59l2.99,3.55c.24.29.6.45.97.45s.73-.17.97-.45l2.99-3.55h11.15l5.59,3.79c.21.15.46.22.71.22.2,0,.41-.05.6-.15.42-.22.68-.65.68-1.12v-2.88c2.46-.58,4.3-2.79,4.3-5.42V5.57c0-3.07-2.5-5.57-5.57-5.57h-27.19c-.7,0-1.27.57-1.27,1.27s.57,1.27,1.27,1.27h27.19c1.67,0,3.03,1.36,3.03,3.03v12.17c0,1.67-1.36,3.03-3.03,3.03-.7,0-1.27.57-1.27,1.27v1.61l-3.93-2.66c-.21-.14-.46-.22-.71-.22h-12.13c-.38,0-.73.17-.97.45l-2.4,2.85-2.4-2.85c-.24-.29-.6-.45-.97-.45h-11.57c-.25,0-.5.08-.71.22l-3.93,2.66v-1.61c0-.7-.57-1.27-1.27-1.27-1.67,0-3.03-1.36-3.03-3.03V5.57c0-1.67,1.36-3.03,3.03-3.03h3.63c.7,0,1.27-.57,1.27-1.27s-.57-1.27-1.27-1.27h-3.63c-3.07,0-5.57,2.5-5.57,5.57v12.17c0,2.63,1.84,4.85,4.3,5.42h0Z"/>
        <path class="cls-1" d="M61.58,43.82c2.08-1.35,3.46-3.69,3.46-6.35,0-4.17-3.39-7.57-7.57-7.57s-7.57,3.39-7.57,7.57c0,2.66,1.38,5,3.46,6.35-1.84,1.18-3.14,3.13-3.45,5.39h-4.52c-.31,0-.6.03-.89.09-1.13-1.86-2.68-3.43-4.53-4.6-.85-.54-1.76-.98-2.69-1.32,1.69-1.39,2.77-3.5,2.77-5.85,0-4.17-3.39-7.57-7.57-7.57s-7.57,3.39-7.57,7.57c0,2.37,1.1,4.49,2.81,5.88-.9.33-1.78.76-2.6,1.28-1.85,1.17-3.4,2.74-4.53,4.6-.29-.06-.59-.09-.89-.09h-4.52c-.31-2.26-1.61-4.21-3.45-5.39,2.08-1.35,3.46-3.69,3.46-6.35,0-4.17-3.39-7.57-7.57-7.57S.06,33.3.06,37.47c0,2.66,1.38,5,3.46,6.35-2.12,1.36-3.52,3.73-3.52,6.43v13.58c0,.7.57,1.27,1.27,1.27h62.56c.7,0,1.27-.57,1.27-1.27v-13.58c0-2.7-1.41-5.07-3.52-6.43h0ZM57.48,32.45c2.77,0,5.02,2.25,5.02,5.02s-2.25,5.02-5.02,5.02-5.02-2.25-5.02-5.02,2.25-5.02,5.02-5.02ZM49.85,58.11v4.45H15.26v-4.45h34.59ZM32.49,32.51c2.77,0,5.02,2.25,5.02,5.02s-2.25,5.02-5.02,5.02-5.02-2.25-5.02-5.02,2.25-5.02,5.02-5.02h0ZM32.55,45.1c3.98,0,7.62,2.05,9.71,5.4-.81.81-1.32,1.92-1.32,3.16,0,.68.16,1.33.43,1.91h-17.65c.28-.58.43-1.23.43-1.91,0-1.23-.5-2.35-1.32-3.16,2.09-3.36,5.72-5.4,9.71-5.4ZM7.63,32.45c2.77,0,5.02,2.25,5.02,5.02s-2.25,5.02-5.02,5.02-5.02-2.25-5.02-5.02,2.25-5.02,5.02-5.02ZM2.54,50.25c0-2.8,2.28-5.09,5.09-5.09s5.09,2.28,5.09,5.09v.23c0,.7.57,1.27,1.27,1.27h5.72c1.05,0,1.91.86,1.91,1.91s-.85,1.9-1.89,1.91h-8.92c-1.05,0-1.91-.86-1.91-1.91v-3.12c0-.7-.57-1.27-1.27-1.27s-1.27.57-1.27,1.27v3.12c0,2.45,2,4.45,4.45,4.45h1.91v4.45H2.54v-12.31ZM62.56,62.56h-10.17v-4.45h1.91c2.45,0,4.45-2,4.45-4.45v-3.12c0-.7-.57-1.27-1.27-1.27s-1.27.57-1.27,1.27v3.12c0,1.05-.86,1.91-1.91,1.91h-8.92s0,0,0,0c-1.04-.01-1.88-.87-1.88-1.91s.86-1.91,1.91-1.91h5.72c.7,0,1.27-.57,1.27-1.27v-.23c0-2.8,2.28-5.09,5.09-5.09s5.09,2.28,5.09,5.09v12.31Z"/>
        <path class="cls-1" d="M47.81,11.67c0-2.1-1.71-3.81-3.81-3.81s-3.81,1.71-3.81,3.81,1.71,3.81,3.81,3.81,3.81-1.71,3.81-3.81ZM42.73,11.67c0-.7.57-1.27,1.27-1.27s1.27.57,1.27,1.27-.57,1.27-1.27,1.27-1.27-.57-1.27-1.27Z"/>
        <path class="cls-1" d="M32.55,15.48c2.1,0,3.81-1.71,3.81-3.81s-1.71-3.81-3.81-3.81-3.81,1.71-3.81,3.81,1.71,3.81,3.81,3.81ZM32.55,10.4c.7,0,1.27.57,1.27,1.27s-.57,1.27-1.27,1.27-1.27-.57-1.27-1.27.57-1.27,1.27-1.27Z"/>
        <path class="cls-1" d="M21.11,15.48c2.1,0,3.81-1.71,3.81-3.81s-1.71-3.81-3.81-3.81-3.81,1.71-3.81,3.81,1.71,3.81,3.81,3.81ZM21.11,10.4c.7,0,1.27.57,1.27,1.27s-.57,1.27-1.27,1.27-1.27-.57-1.27-1.27.57-1.27,1.27-1.27Z"/>
        <path class="cls-1" d="M20.77,2.54c.7,0,1.27-.57,1.27-1.27S21.48,0,20.77,0h0C20.07,0,19.5.57,19.5,1.27s.57,1.27,1.27,1.27Z"/>
      </g>
    </g>
  </g>
</svg>