<?xml version="1.0" encoding="UTF-8"?>
<svg id="Layer_2" data-name="Layer 2" xmlns="http://www.w3.org/2000/svg" viewBox="0 0 65.11 65.11">
  <defs>
    <style>
      .cls-1 {
        fill: #2b372e;
        stroke-width: 0px;
      }
    </style>
  </defs>
  <g id="Layer_1-2" data-name="Layer 1">
    <g>
      <path class="cls-1" d="M43.42,51.35c.5.5,1.3.5,1.8,0l6.14-6.14c.24-.24.37-.56.37-.9s-.13-.66-.37-.9l-1.77-1.77c.59-1.11,1.08-2.28,1.44-3.48h2.5c.7,0,1.27-.57,1.27-1.27v-8.68c0-.7-.57-1.27-1.27-1.27h-2.5c-.37-1.21-.85-2.37-1.44-3.48l1.77-1.77c.24-.24.37-.56.37-.9s-.13-.66-.37-.9l-6.14-6.14c-.5-.5-1.3-.5-1.8,0l-1.77,1.77c-1.11-.59-2.28-1.08-3.48-1.44v-2.5c0-.7-.57-1.27-1.27-1.27h-8.68c-.7,0-1.27.57-1.27,1.27v2.5c-1.21.37-2.37.85-3.48,1.44l-1.77-1.77c-.24-.24-.56-.37-.9-.37s-.66.13-.9.37l-6.14,6.14c-.24.24-.37.56-.37.9s.13.66.37.9l1.77,1.77c-.59,1.11-1.08,2.28-1.44,3.48h-2.5c-.7,0-1.27.57-1.27,1.27v8.68c0,.7.57,1.27,1.27,1.27h2.5c.37,1.21.85,2.37,1.44,3.48l-1.77,1.77c-.24.24-.37.56-.37.9s.13.66.37.9l6.14,6.14c.24.24.56.37.9.37s.66-.13.9-.37l1.77-1.77c1.11.59,2.28,1.08,3.48,1.44v2.5c0,.7.57,1.27,1.27,1.27h8.68c.7,0,1.27-.57,1.27-1.27v-2.5c1.21-.37,2.37-.85,3.48-1.44l1.77,1.77ZM36.59,48.82c-.57.14-.97.65-.97,1.23v2.2h-6.14v-2.2c0-.58-.4-1.09-.97-1.23-1.63-.4-3.18-1.05-4.62-1.91-.5-.3-1.14-.22-1.56.19l-1.56,1.56-4.34-4.34,1.56-1.56c.41-.41.49-1.06.19-1.56-.87-1.44-1.51-2.99-1.91-4.62-.14-.57-.65-.97-1.23-.97h-2.2v-6.14h2.2c.58,0,1.09-.4,1.23-.97.4-1.63,1.05-3.18,1.91-4.62.3-.5.22-1.14-.19-1.56l-1.56-1.56,4.34-4.34,1.56,1.56c.41.41,1.06.49,1.56.19,1.44-.87,2.99-1.51,4.62-1.91.57-.14.97-.65.97-1.23v-2.2h6.14v2.2c0,.58.4,1.09.97,1.23,1.63.4,3.18,1.05,4.62,1.91.5.3,1.14.22,1.56-.19l1.56-1.56,4.34,4.34-1.56,1.56c-.41.41-.49,1.06-.19,1.56.87,1.44,1.51,2.99,1.91,4.62.14.57.65.97,1.23.97h2.2v6.14h-2.2c-.58,0-1.09.4-1.23.97-.4,1.63-1.05,3.18-1.91,4.62-.3.5-.22,1.14.19,1.56l1.56,1.56-4.34,4.34-1.56-1.56c-.41-.41-1.06-.49-1.56-.19-1.44.87-2.99,1.51-4.62,1.91h0Z"/>
      <path class="cls-1" d="M43.43,38.1v-11.09c0-.45-.24-.87-.64-1.1l-9.61-5.55c-.39-.23-.88-.23-1.27,0l-9.61,5.55c-.39.23-.64.65-.64,1.1v11.09c0,.45.24.87.64,1.1l9.61,5.55c.2.11.42.17.64.17s.44-.06.64-.17l9.61-5.55c.39-.23.64-.65.64-1.1ZM32.55,22.93l7.06,4.08-7.06,4.08-7.06-4.08,7.06-4.08ZM24.22,29.21l7.06,4.08v8.16l-7.06-4.08v-8.16ZM33.82,41.44v-8.16l7.06-4.08v8.16l-7.06,4.08Z"/>
      <path class="cls-1" d="M32.55,2.74c5.06,0,10.07,1.3,14.46,3.75.2.11.41.16.62.16.45,0,.88-.24,1.11-.65.34-.61.12-1.39-.49-1.73C43.48,1.6,38.05.19,32.55.19c-.7,0-1.27.57-1.27,1.27s.57,1.27,1.27,1.27Z"/>
      <path class="cls-1" d="M64.15,19.76c-.67-.17-1.35.22-1.53.88-1.27-3.18-3.04-6.17-5.23-8.8-.45-.54-1.25-.61-1.79-.16-.54.45-.61,1.25-.16,1.79,2.17,2.6,3.89,5.58,5.07,8.75l-.69-.45c-.59-.39-1.38-.22-1.76.37-.39.59-.22,1.38.37,1.76l3.64,2.39c.21.14.45.21.7.21.16,0,.31-.03.46-.09.38-.15.67-.47.77-.87l1.08-4.23c.17-.68-.24-1.37-.92-1.55h0Z"/>
      <path class="cls-1" d="M32.55,62.37c-6.8,0-13.21-2.24-18.52-6.47-4.26-3.4-7.53-7.93-9.42-13.01l.68.45c.59.39,1.38.22,1.76-.37.39-.59.22-1.38-.37-1.76l-3.64-2.39c-.34-.23-.77-.27-1.16-.12-.38.15-.67.47-.77.87L.04,43.8c-.17.68.24,1.37.92,1.55.11.03.21.04.31.04.55,0,1.06-.37,1.22-.92,2.08,5.22,5.52,9.89,9.95,13.42,5.77,4.6,12.72,7.03,20.11,7.03.7,0,1.27-.57,1.27-1.27s-.57-1.27-1.27-1.27h0Z"/>
      <path class="cls-1" d="M63.64,31.28c-.7,0-1.27.57-1.27,1.27,0,6.8-2.24,13.21-6.47,18.52-3.4,4.26-7.93,7.53-13.01,9.42l.45-.68c.39-.59.22-1.38-.37-1.76-.59-.39-1.38-.22-1.76.37l-2.39,3.64c-.23.34-.27.77-.12,1.16.15.38.47.67.87.77l4.23,1.08c.11.03.21.04.31.04.57,0,1.08-.38,1.23-.96.17-.67-.22-1.35-.88-1.53,5.22-2.08,9.89-5.52,13.42-9.95,4.6-5.77,7.03-12.72,7.03-20.11,0-.7-.57-1.27-1.27-1.27h0Z"/>
      <path class="cls-1" d="M1.47,33.82c.7,0,1.27-.57,1.27-1.27,0-6.8,2.24-13.21,6.47-18.52,3.4-4.26,7.93-7.53,13.01-9.42l-.45.68c-.39.59-.22,1.38.37,1.76.22.14.46.21.7.21.41,0,.82-.2,1.06-.57l2.39-3.64c.23-.34.27-.77.12-1.16-.15-.38-.47-.67-.87-.77L21.31.04c-.68-.17-1.37.24-1.55.92-.17.67.22,1.34.88,1.53-5.22,2.08-9.89,5.52-13.42,9.95C2.62,18.22.19,25.17.19,32.55c0,.7.57,1.27,1.27,1.27h0Z"/>
      <circle class="cls-1" cx="52.36" cy="8.6" r="1.27"/>
    </g>
  </g>
</svg>