<?xml version="1.0" encoding="UTF-8"?>
<svg id="Layer_2" data-name="Layer 2" xmlns="http://www.w3.org/2000/svg" viewBox="0 0 74.08 65.11">
  <defs>
    <style>
      .cls-1 {
        fill: #2b372e;
        stroke-width: 0px;
      }
    </style>
  </defs>
  <g id="Layer_1-2" data-name="Layer 1">
    <g>
      <path class="cls-1" d="M37.04,10.26c.8,0,1.45-.65,1.45-1.45V1.45c0-.8-.65-1.45-1.45-1.45s-1.45.65-1.45,1.45v7.37c0,.8.65,1.45,1.45,1.45Z"/>
      <path class="cls-1" d="M26.16,12.64c.28.44.74.68,1.23.68.26,0,.53-.07.77-.22.68-.43.88-1.32.45-2l-3.85-6.12c-.43-.68-1.32-.88-2-.45-.68.43-.88,1.32-.45,2l3.85,6.12Z"/>
      <path class="cls-1" d="M45.93,13.09c.24.15.51.22.77.22.48,0,.95-.24,1.23-.68l3.85-6.12c.43-.68.22-1.57-.45-2-.68-.43-1.57-.22-2,.45l-3.85,6.12c-.43.68-.22,1.57.45,2Z"/>
      <path class="cls-1" d="M73.61,34.06l-2.51-4.44c-.39-.7-1.28-.94-1.97-.55-.7.39-.94,1.28-.55,1.97l2.51,4.44c.13.22.09.44.06.55-.03.1-.11.3-.32.41l-3.87,2.15c-.34.19-.79.07-.98-.26l-.98-1.74s0-.02-.01-.02l-10.18-18c-.13-.22-.09-.43-.06-.54.03-.1.11-.29.32-.41l3.88-2.15c.35-.19.79-.08.98.26l2.27,4.01c.39.7,1.28.94,1.97.55.7-.39.94-1.28.55-1.97l-2.27-4c-.97-1.71-3.16-2.33-4.9-1.37l-3.88,2.15c-.84.46-1.45,1.23-1.71,2.16-.25.88-.16,1.79.25,2.59l-2.14.62c-.91.26-1.46.41-1.77.41h0c-.21,0-.44-.08-1.1-.33-.3-.11-.67-.25-1.13-.41l-3.79-1.32c-2.09-.73-3.04-.69-4.41-.57l-6.46.58c-2.94.26-4.82.92-5.85,2.08l-3.68-1.07c.4-.8.48-1.7.24-2.57-.26-.93-.87-1.69-1.71-2.16l-3.88-2.15c-1.74-.96-3.93-.34-4.9,1.37L.47,34.06c-.48.84-.6,1.82-.33,2.76.26.93.87,1.7,1.71,2.16l3.88,2.15c.55.31,1.16.45,1.75.45,1.26,0,2.49-.66,3.15-1.82l.41-.72c1.12.49,2.06,1.21,2.7,2.05-.62.73-1.02,1.63-1.13,2.61-.15,1.3.22,2.57,1.03,3.58.8,1,1.95,1.64,3.24,1.79-.14,1.28.23,2.54,1.04,3.55.83,1.04,2.01,1.65,3.24,1.79-.14,1.28.23,2.54,1.03,3.54.8,1.01,1.95,1.64,3.24,1.79-.14,1.29.23,2.55,1.04,3.55.96,1.2,2.37,1.82,3.8,1.82,1.07,0,2.14-.35,3.04-1.06l3.03-2.42c.24-.19.46-.4.66-.63l1.73,1.38c.89.71,1.97,1.06,3.03,1.06,1.43,0,2.85-.62,3.81-1.82.51-.63.83-1.35.97-2.1.51.18,1.04.27,1.58.27.18,0,.37-.01.55-.03,1.3-.14,2.46-.78,3.26-1.79.81-1,1.17-2.26,1.04-3.55,1.23-.14,2.4-.75,3.24-1.79.83-1.04,1.16-2.32,1.03-3.55,1.28-.15,2.43-.78,3.23-1.79.81-1.01,1.18-2.28,1.04-3.58-.11-.98-.5-1.89-1.13-2.62.64-.85,1.57-1.56,2.69-2.05l.41.73c.66,1.16,1.89,1.82,3.15,1.82.59,0,1.2-.15,1.75-.45l3.87-2.15c.84-.46,1.44-1.23,1.71-2.16.27-.94.15-1.91-.33-2.76h0ZM8.1,38.33c-.19.33-.64.45-.98.26l-3.88-2.15c-.21-.12-.29-.31-.32-.41-.03-.11-.06-.32.07-.55L14.16,15.73c.13-.23.37-.35.62-.35.12,0,.25.03.36.09l3.88,2.15s0,0,0,0c.21.12.29.31.32.41.03.11.06.32-.07.54l-11.17,19.76ZM18.66,45.78c-.41.33-.92.47-1.45.42-.53-.06-1-.32-1.32-.72-.33-.41-.47-.92-.41-1.45.06-.52.32-.99.73-1.32l5.42-4.33c.85-.68,2.09-.54,2.77.31.33.41.47.92.42,1.45-.06.52-.32.99-.72,1.31,0,0-.02.02-.03.02l-5.39,4.31s0,0,0,0ZM20.16,50.8c-.33-.41-.47-.92-.42-1.44.06-.52.32-.99.72-1.32h0s0,0,0,0c0,0,0,0,0,0l7.8-6.23c.85-.68,2.09-.54,2.77.31.33.41.47.92.42,1.45-.06.53-.32.99-.73,1.32l-7.8,6.23c-.85.68-2.1.54-2.78-.31h0ZM25.75,56.86c-.53-.06-1-.32-1.32-.72-.33-.41-.47-.92-.42-1.45.06-.52.32-.99.72-1.32,0,0,0,0,0,0l5.4-4.31s.01,0,.02-.01c.85-.68,2.09-.54,2.77.31.33.41.47.92.42,1.45-.06.52-.32.99-.73,1.32l-5.42,4.33c-.41.33-.93.47-1.45.42h0ZM35.23,58.04c-.06.52-.32.99-.73,1.32l-3.03,2.42c-.85.68-2.1.54-2.78-.31-.33-.41-.47-.92-.42-1.45s.32-.99.72-1.32c0,0,0,0,0,0l3.03-2.42s0,0,0,0c.85-.68,2.09-.54,2.77.31.33.41.47.92.41,1.44ZM58.19,45.47c-.33.41-.8.66-1.32.72-.53.06-1.04-.09-1.45-.42,0,0,0,0,0,0,0,0,0,0,0,0l-3.87-3.09c-.62-.5-1.53-.4-2.03.23-.5.62-.4,1.53.23,2.03l3.87,3.09c.85.68.99,1.92.31,2.77-.68.85-1.93.99-2.78.31l-4.2-3.35c-.62-.5-1.53-.4-2.03.23-.5.62-.4,1.53.23,2.03l4.2,3.35c.41.33.67.8.72,1.32.06.52-.09,1.04-.42,1.45-.33.41-.79.66-1.32.72-.53.06-1.04-.09-1.45-.41l-2.09-1.67s0,0-.01,0l-1.77-1.41-.33-.26c-.62-.5-1.53-.4-2.03.23-.06.08-.12.16-.16.25-.21.41-.21.89,0,1.29.09.19.22.36.39.49l2.1,1.68c.84.68.98,1.92.31,2.76-.68.85-1.92.99-2.77.31l-2.38-1.9c.1-1.24-.27-2.45-1.04-3.42-.48-.6-1.08-1.06-1.74-1.37.48-.67.79-1.45.88-2.3.15-1.3-.22-2.57-1.03-3.58-.48-.6-1.08-1.06-1.74-1.36.48-.67.79-1.46.88-2.3.14-1.29-.22-2.56-1.03-3.57-1.39-1.74-3.75-2.27-5.71-1.44-.16-.72-.48-1.4-.95-1.99-1.68-2.09-4.74-2.44-6.84-.76l-3.87,3.1c-.88-1.12-2.07-2.05-3.47-2.71l7.97-14.1,4.24,1.23c.02.23.06.47.12.72,1.03,4.22,4.92,6.19,10.15,5.14,4.41-.89,6.22.43,9.84,3.07.38.27.76.56,1.17.85,2.6,1.86,5.38,4.06,7.24,5.54l4.7,3.75c.41.33.66.79.72,1.32.06.53-.09,1.04-.42,1.45h0ZM58.14,39.21l-3.15-2.52c-1.89-1.51-4.71-3.73-7.36-5.63-.4-.29-.79-.57-1.15-.84-3.75-2.73-6.46-4.7-12.11-3.56-1.73.35-5.86.76-6.76-2.98-.13-.53,0-.71.06-.79.19-.27.97-.93,4.02-1.2l6.46-.58c1.05-.1,1.58-.14,3.19.42l3.79,1.32c.42.15.76.27,1.05.39,1.82.69,2.31.69,4.7,0l2.79-.81,7.96,14.08c-1.41.66-2.6,1.59-3.47,2.7Z"/>
      <path class="cls-1" d="M66.64,26.13c.8,0,1.45-.65,1.45-1.45s-.65-1.45-1.45-1.45-1.45.65-1.45,1.45h0c0,.8.65,1.45,1.45,1.45Z"/>
    </g>
  </g>
</svg>