<?xml version="1.0" encoding="UTF-8"?>
<svg id="Layer_2" data-name="Layer 2" xmlns="http://www.w3.org/2000/svg" viewBox="0 0 21.37 21.37">
  <defs>
    <style>
      .cls-1 {
        fill: #025585;
        fill-rule: evenodd;
        stroke-width: 0px;
      }
    </style>
  </defs>
  <g id="Layer_1-2" data-name="Layer 1">
    <path class="cls-1" d="M10.69,0c1.99.02,3.79.51,5.39,1.47,1.59.94,2.91,2.26,3.83,3.86.95,1.62,1.44,3.42,1.46,5.43-.06,2.74-.92,5.08-2.59,7.02-1.67,1.94-3.81,3.14-6.03,3.6v-7.68h2.1l.47-3.02h-3.17v-1.98c-.02-.41.11-.81.37-1.14.25-.32.7-.49,1.34-.51h1.92v-2.64s-.29-.04-.78-.1c-.56-.07-1.12-.1-1.69-.1-1.28,0-2.29.37-3.03,1.08-.74.71-1.12,1.75-1.14,3.1v2.29h-2.41v3.02h2.41v7.68c-2.72-.46-4.86-1.66-6.53-3.6S.06,13.49,0,10.75c.02-2,.51-3.81,1.46-5.43.93-1.59,2.25-2.92,3.83-3.86C6.9.51,8.7.02,10.69,0h0Z"/>
  </g>
</svg>