<?xml version="1.0" encoding="UTF-8"?>
<svg id="Layer_2" data-name="Layer 2" xmlns="http://www.w3.org/2000/svg" viewBox="0 0 21.37 21.37">
  <defs>
    <style>
      .cls-1 {
        fill: #025585;
        stroke-width: 0px;
      }
    </style>
  </defs>
  <g id="Layer_1-2" data-name="Layer 1">
    <g>
      <path class="cls-1" d="M12.73,10.69c0,1.13-.92,2.05-2.05,2.05s-2.05-.92-2.05-2.05.92-2.05,2.05-2.05,2.05.92,2.05,2.05Z"/>
      <path class="cls-1" d="M15.47,7.07c-.1-.27-.26-.51-.46-.71-.2-.2-.44-.36-.71-.46-.22-.08-.54-.18-1.14-.21-.65-.03-.84-.04-2.48-.04s-1.83,0-2.48.04c-.6.03-.92.13-1.14.21-.27.1-.51.26-.71.46-.2.2-.36.44-.46.71-.08.22-.18.54-.21,1.14-.03.65-.04.84-.04,2.48s0,1.83.04,2.48c.03.6.13.92.21,1.14.1.27.26.51.46.71.2.2.44.36.71.46.22.08.54.18,1.14.21.65.03.84.04,2.48.04s1.83,0,2.48-.04c.6-.03.92-.13,1.14-.21.54-.21.96-.63,1.16-1.16.08-.22.18-.54.21-1.14.03-.65.04-.84.04-2.48s0-1.83-.04-2.48c-.03-.6-.13-.92-.21-1.14ZM10.69,13.84c-1.74,0-3.15-1.41-3.15-3.15s1.41-3.15,3.15-3.15,3.15,1.41,3.15,3.15-1.41,3.15-3.15,3.15ZM13.96,8.15c-.41,0-.74-.33-.74-.74s.33-.74.74-.74.74.33.74.74c0,.41-.33.74-.74.74Z"/>
      <path class="cls-1" d="M10.69,0C4.79,0,0,4.79,0,10.69s4.79,10.69,10.69,10.69,10.69-4.79,10.69-10.69S16.59,0,10.69,0ZM16.78,13.22c-.03.65-.13,1.1-.29,1.49-.32.82-.97,1.48-1.79,1.79-.39.15-.84.26-1.49.29-.65.03-.86.04-2.53.04s-1.88,0-2.53-.04c-.65-.03-1.1-.13-1.49-.29-.41-.15-.78-.4-1.09-.71-.31-.31-.55-.68-.71-1.09-.15-.39-.26-.84-.29-1.49-.03-.65-.04-.86-.04-2.53s0-1.88.04-2.53c.03-.65.13-1.1.29-1.49.15-.41.4-.78.71-1.09.31-.31.68-.55,1.09-.71.39-.15.84-.26,1.49-.29.65-.03.86-.04,2.53-.04s1.88,0,2.53.04c.65.03,1.1.13,1.49.28.41.15.78.4,1.09.71.31.31.55.68.71,1.09.15.39.26.84.29,1.49.03.65.04.86.04,2.53s0,1.88-.04,2.53Z"/>
    </g>
  </g>
</svg>