<?xml version="1.0" encoding="UTF-8"?>
<svg id="Layer_2" data-name="Layer 2" xmlns="http://www.w3.org/2000/svg" viewBox="0 0 21.37 21.37">
  <defs>
    <style>
      .cls-1 {
        fill: #025585;
        stroke-width: 0px;
      }
    </style>
  </defs>
  <g id="Layer_1-2" data-name="Layer 1">
    <g id="Layer_2-2" data-name="Layer 2">
      <g id="Color">
        <path id="_10.Linkedin" data-name=" 10.Linkedin" class="cls-1" d="M10.69,0C4.78,0,0,4.78,0,10.69s4.78,10.69,10.69,10.69,10.69-4.78,10.69-10.69S16.59,0,10.69,0ZM7.58,16.31h-2.33v-7.51h2.33v7.51ZM6.41,7.78c-.75,0-1.36-.6-1.36-1.35,0-.75.6-1.36,1.35-1.36.75,0,1.36.6,1.36,1.35,0,.75-.6,1.36-1.35,1.36ZM16.31,16.31h-2.33v-3.66c0-.87-.02-1.99-1.21-1.99s-1.41.95-1.41,1.93v3.72h-2.32v-7.51h2.24v1.02h.03c.31-.59,1.07-1.21,2.21-1.21,2.36,0,2.79,1.56,2.79,3.57v4.13Z"/>
      </g>
    </g>
  </g>
</svg>