<?xml version="1.0" encoding="UTF-8"?>
<svg id="Layer_2" data-name="Layer 2" xmlns="http://www.w3.org/2000/svg" viewBox="0 0 21.37 21.37">
  <defs>
    <style>
      .cls-1 {
        fill: #025585;
        stroke-width: 0px;
      }
    </style>
  </defs>
  <g id="Layer_1-2" data-name="Layer 1">
    <g>
      <path class="cls-1" d="M10.69,0C4.79,0,0,4.79,0,10.69s4.79,10.69,10.69,10.69,10.69-4.79,10.69-10.69S16.59,0,10.69,0ZM10.91,16.91s0,0,0,0h0c-1.07,0-2.12-.27-3.06-.78l-3.39.89.91-3.31c-.56-.97-.85-2.07-.85-3.2,0-3.53,2.87-6.39,6.4-6.39,1.71,0,3.32.67,4.52,1.87,1.21,1.21,1.87,2.81,1.87,4.52,0,3.53-2.87,6.39-6.4,6.39Z"/>
      <path class="cls-1" d="M10.91,5.2c-2.93,0-5.32,2.38-5.32,5.31,0,1,.28,1.98.81,2.83l.13.2-.54,1.96,2.01-.53.19.12c.82.48,1.75.74,2.71.74h0c2.93,0,5.31-2.38,5.32-5.31,0-1.42-.55-2.76-1.56-3.76s-2.34-1.56-3.76-1.56ZM14.04,12.79c-.13.37-.77.71-1.08.76-.28.04-.62.06-1.01-.06-.23-.07-.53-.17-.91-.34-1.6-.69-2.65-2.31-2.73-2.41s-.65-.87-.65-1.65.41-1.17.56-1.33c.15-.16.32-.2.43-.2s.21,0,.31,0c.1,0,.23-.04.36.27.13.32.45,1.11.49,1.19.04.08.07.17.01.28-.05.11-.23.34-.4.55-.07.09-.16.17-.07.33.09.16.41.68.89,1.11.61.54,1.13.71,1.29.79.16.08.25.07.35-.04.09-.11.4-.47.51-.63s.21-.13.36-.08c.15.05.93.44,1.09.52.16.08.27.12.31.19.04.07.04.39-.09.76Z"/>
    </g>
  </g>
</svg>