<?xml version="1.0" encoding="UTF-8"?>
<svg id="Layer_2" data-name="Layer 2" xmlns="http://www.w3.org/2000/svg" viewBox="0 0 24.6 22.71">
  <defs>
    <style>
      .cls-1 {
        fill: #afc097;
        stroke-width: 0px;
      }
    </style>
  </defs>
  <g id="Layer_1-2" data-name="Layer 1">
    <path class="cls-1" d="M23.73,20.61h-.05v-.55c0-.47-.39-.84-.86-.84h-1.03v-.76c0-.36-.29-.66-.66-.68v-7.16c.37-.02.66-.32.66-.68v-.76h1c.38,0,.69-.3.69-.67v-.72h.52c.31,0,.56-.24.56-.55v-.62c0-.2-.11-.39-.3-.48L16.01,1.77c-.17-.09-.39-.03-.49.14s-.03.39.15.48l8.18,4.31v.37H.75v-.36L12.47.7l1.71.9c.17.09.39.03.49-.14.1-.17.03-.39-.15-.48l-1.71-.9c-.21-.11-.46-.11-.68,0L.33,6.13c-.18.09-.3.28-.3.48v.62c0,.3.25.55.56.55h.52v.72c0,.37.31.67.69.67h1v.76c0,.36.29.66.66.68v4.66c0,.19.16.35.36.35s.36-.16.36-.35v-4.66h1.16v7.16h-1.16v-.84c0-.19-.16-.35-.36-.35s-.36.16-.36.35v.85c-.37.02-.66.32-.66.68v.76h-1.03c-.48,0-.86.38-.86.84v.55h-.05c-.48,0-.86.38-.86.84v.74c0,.29.24.52.53.52h23.53c.3,0,.53-.24.53-.52v-.74c0-.47-.39-.84-.86-.84h0ZM1.83,8.46v-.69h20.93v.69H1.83ZM21.07,18.47v.74h-2.47v-.74h2.47ZM19.26,17.77v-7.16h1.16v7.16h-1.16ZM18.61,9.9v-.74h2.47v.74h-2.47ZM16.11,17.77v-7.16c.37-.02.66-.32.66-.68v-.76h1.11v.76c0,.36.29.66.66.68v7.16c-.37.02-.66.32-.66.68v.76h-1.11v-.76c0-.36-.29-.66-.66-.68ZM16.05,18.47v.74h-2.47v-.74h2.47ZM14.24,17.77v-7.16h1.16v7.16h-1.16ZM13.58,9.9v-.74h2.47v.74h-2.47ZM11.09,17.77v-7.16c.37-.02.66-.32.66-.68v-.76h1.11v.76c0,.36.29.66.66.68v7.16c-.37.02-.66.32-.66.68v.76h-1.11v-.76c0-.36-.29-.66-.66-.68ZM10.72,18.47h.3v.74h-2.47v-.74h2.17ZM9.21,17.77v-7.16h1.16v7.16h-1.16ZM8.55,9.9v-.74h2.47v.74h-2.47ZM6.06,17.77v-7.16c.37-.02.66-.32.66-.68v-.76h1.11v.76c0,.36.29.66.66.68v7.16c-.37.02-.66.32-.66.68v.76h-1.11v-.76c0-.36-.29-.66-.66-.68ZM3.52,9.9v-.74h2.47v.74h-2.47ZM3.52,18.47h2.47v.74h-2.47v-.74ZM1.63,20.05c0-.08.06-.14.14-.14h21.05c.08,0,.14.06.14.14v.55H1.63v-.55ZM23.88,22H.72v-.55c0-.08.06-.14.14-.14h22.87c.08,0,.14.06.14.14v.55Z"/>
  </g>
</svg>