<?xml version="1.0" encoding="UTF-8"?>
<svg id="Layer_2" data-name="Layer 2" xmlns="http://www.w3.org/2000/svg" viewBox="0 0 25 19.97">
  <defs>
    <style>
      .cls-1 {
        fill: #afc097;
        stroke-width: 0px;
      }
    </style>
  </defs>
  <g id="Layer_1-2" data-name="Layer 1">
    <path class="cls-1" d="M24.79,14.64l-1.94-1.94v-6.64l1.26-.46c.29-.1.48-.38.48-.69,0-.31-.19-.58-.48-.69L12.55.04c-.16-.06-.34-.06-.5,0L.48,4.23C.19,4.34,0,4.61,0,4.92c0,.31.19.58.48.69l4.27,1.58v4.83c0,.15.05.3.13.42.05.07.49.68,1.64,1.25,1.44.73,3.34,1.1,5.63,1.1s4.19-.37,5.66-1.09c1.15-.57,1.62-1.17,1.66-1.24.09-.13.14-.28.14-.43v-4.78l1.78-.64v6.11l-1.94,1.94c-.14.14-.21.32-.21.52s.08.38.21.52l1.94,1.94v1.62c0,.4.33.73.73.73s.73-.33.73-.73v-1.62l1.94-1.94c.29-.29.29-.75,0-1.04h0ZM12.3,1.51l9.41,3.41-9.56,3.45L2.86,4.93,12.3,1.51ZM18.14,11.72c-2.5,2.25-9.94,1.99-11.93,0v-4l5.68,2.1c.09.01.18.09.5,0l5.75-2.07v3.96h0ZM22.12,16.28l-1.12-1.12,1.12-1.12,1.12,1.12-1.12,1.12Z"/>
  </g>
</svg>