<?xml version="1.0" encoding="UTF-8"?>
<svg id="Layer_2" data-name="Layer 2" xmlns="http://www.w3.org/2000/svg" viewBox="0 0 25 25">
  <defs>
    <style>
      .cls-1 {
        fill: #afc097;
        stroke-width: 0px;
      }
    </style>
  </defs>
  <g id="Layer_1-2" data-name="Layer 1">
    <g>
      <path class="cls-1" d="M22.03,3.46c.12,0,.25-.05.35-.14l.85-.85c.19-.19.19-.5,0-.69-.19-.19-.5-.19-.69,0l-.85.85c-.19.19-.19.5,0,.69.1.1.22.14.35.14Z"/>
      <path class="cls-1" d="M15.52,3.32c.1.1.22.14.35.14s.25-.05.35-.14c.19-.19.19-.5,0-.69l-.85-.85c-.19-.19-.5-.19-.69,0-.19.19-.19.5,0,.69l.85.85Z"/>
      <path class="cls-1" d="M18.95,8.95c1.6,0,2.89-1.3,2.89-2.89s-1.3-2.89-2.89-2.89-2.89,1.3-2.89,2.89,1.3,2.89,2.89,2.89ZM18.95,4.14c1.05,0,1.92.86,1.92,1.92s-.86,1.92-1.92,1.92-1.92-.86-1.92-1.92.86-1.92,1.92-1.92Z"/>
      <path class="cls-1" d="M22.37,8.79c-.19-.19-.5-.19-.69,0-.19.19-.19.5,0,.69l.85.85c.1.1.22.14.35.14s.25-.05.35-.14c.19-.19.19-.5,0-.69l-.85-.85Z"/>
      <path class="cls-1" d="M15.52,8.79l-.85.85c-.19.19-.19.5,0,.69.1.1.22.14.35.14s.25-.05.35-.14l.85-.85c.19-.19.19-.5,0-.69-.19-.19-.5-.19-.69,0Z"/>
      <path class="cls-1" d="M22.81,6.06c0,.27.22.49.49.49h1.21c.27,0,.49-.22.49-.49s-.22-.49-.49-.49h-1.21c-.27,0-.49.22-.49.49Z"/>
      <path class="cls-1" d="M18.95,2.19c.27,0,.49-.22.49-.49V.49c0-.27-.22-.49-.49-.49s-.49.22-.49.49v1.21c0,.27.22.49.49.49h0Z"/>
      <path class="cls-1" d="M18.46,10.41v1.21c0,.27.22.49.49.49s.49-.22.49-.49v-1.21c0-.27-.22-.49-.49-.49s-.49.22-.49.49Z"/>
      <path class="cls-1" d="M13.38,6.54h1.21c.27,0,.49-.22.49-.49s-.22-.49-.49-.49h-1.21c-.27,0-.49.22-.49.49s.22.49.49.49Z"/>
      <path class="cls-1" d="M24.51,24.03h-6.72v-1.37h5.67c.37,0,.71-.17.93-.46.23-.29.3-.66.2-1.02l-1.85-6.84c-.14-.51-.6-.87-1.13-.87h-11.32c-.53,0-.99.35-1.13.87l-.92,3.39v-7.42l1.92,1.11c.6.35,1.3.53,1.99.53.35,0,.7-.05,1.04-.14.26-.07.41-.34.34-.6-.28-1.02-.93-1.88-1.85-2.41l-3.4-1.96v-3.9c0-1.06-.41-2.05-1.16-2.8-.19-.19-.5-.19-.69,0-.75.74-1.18,1.77-1.18,2.82v3.9l-3.39,1.95c-.92.53-1.57,1.38-1.85,2.41-.07.26.08.53.34.6.34.09.69.14,1.04.14.69,0,1.38-.18,1.99-.53l1.91-1.1v4.5c0,.27.22.49.49.49s.49-.22.49-.49v-5.06l.5-.29.48.28v14.27h-.97v-4.81c0-.27-.22-.49-.49-.49s-.49.22-.49.49v4.81H.49c-.27,0-.49.22-.49.49s.22.49.49.49h24.02c.27,0,.49-.22.49-.49s-.22-.49-.49-.49ZM7.47,7.73c0,.39-.32.7-.7.7s-.7-.32-.7-.7.32-.7.7-.7.7.32.7.7ZM12.4,10.97c-.6.05-1.22-.08-1.75-.39l-2.77-1.6c.27-.24.46-.56.53-.93l2.77,1.6c.53.31.95.76,1.21,1.31h0ZM6.77,1.25c.35.5.53,1.08.53,1.7v3.19c-.17-.06-.35-.09-.54-.09s-.37.03-.54.09v-3.18c0-.61.19-1.21.54-1.71ZM2.9,10.59c-.53.3-1.15.44-1.75.39.26-.55.67-1,1.21-1.31l2.76-1.6c.08.37.27.69.54.93l-2.76,1.59h0ZM12.28,21.68l.24-1.76h2.92v1.76h-3.16ZM8.42,21.68c-.08,0-.13-.05-.15-.08-.02-.03-.05-.09-.03-.17l.41-1.51h2.89l-.24,1.76h-2.88ZM9.39,17.19h2.52l-.24,1.76h-2.76l.48-1.76ZM15.45,14.46v1.76h-2.42l.24-1.76h2.18ZM18.6,14.46l.24,1.76h-2.42v-1.76h2.18ZM22.97,18.95h-2.77l-.24-1.76h2.53l.48,1.76h0ZM19.21,18.95h-2.79v-1.76h2.55l.24,1.76ZM15.45,17.19v1.76h-2.79l.24-1.76h2.55ZM16.42,19.92h2.92l.24,1.76h-3.16v-1.76ZM23.61,21.61s-.07.08-.15.08h-2.88l-.24-1.76h2.9l.41,1.51c.02.08-.01.14-.03.17ZM21.78,14.6l.44,1.61h-2.4l-.24-1.76h2.01c.09,0,.17.06.19.15ZM10.28,14.46h2l-.24,1.76h-2.39l.44-1.61c.03-.08.1-.15.19-.15ZM8.22,22.64c.06.01.13.02.2.02h5.65v1.37h-5.85v-1.38ZM15.05,24.03v-1.37h1.76v1.37h-1.76Z"/>
      <path class="cls-1" d="M5.79,17.51c.13,0,.25-.05.35-.14.09-.09.14-.22.14-.35s-.05-.25-.14-.35c-.09-.09-.22-.14-.35-.14s-.25.05-.35.14c-.09.09-.14.22-.14.35s.05.25.14.35c.09.09.22.14.35.14Z"/>
    </g>
  </g>
</svg>