<?xml version="1.0" encoding="UTF-8"?>
<svg id="Layer_2" data-name="Layer 2" xmlns="http://www.w3.org/2000/svg" viewBox="0 0 25.9 25.9">
  <defs>
    <style>
      .cls-1 {
        fill: #afc097;
        stroke-width: 0px;
      }
    </style>
  </defs>
  <g id="Layer_1-2" data-name="Layer 1">
    <path class="cls-1" d="M1.12,25.14h23.67c.1,0,.19-.04.25-.1s.1-.15.1-.25v-.56c0-.1-.04-.19-.1-.25-.06-.06-.15-.1-.25-.1H1.12c-.1,0-.19.04-.25.1-.07.07-.11.15-.11.25v.56c0,.1.04.19.11.25.06.06.15.1.25.1h0ZM5.6,23.11v-4.73c0-.33-.13-.63-.35-.84-.22-.22-.51-.35-.84-.35s-.63.13-.84.35c-.22.22-.35.51-.35.84v4.73h2.38ZM6.36,18.38v4.73h1.7v-4.73c0-.54.22-1.02.57-1.38.35-.35.84-.57,1.38-.57s1.02.22,1.38.57c.35.35.57.84.57,1.38v4.73h1.7v-4.73c0-.54.22-1.02.57-1.38.35-.35.84-.57,1.38-.57s1.03.22,1.38.57c.35.35.57.84.57,1.38v4.73h1.7v-4.73c0-.54.22-1.02.57-1.38.35-.35.84-.57,1.38-.57s1.03.22,1.38.57c.35.35.57.84.57,1.38v4.73h1.25v-8.09H1.5v3.19c0,.21-.17.38-.38.38s-.38-.17-.38-.38v-3.25c-.15-.06-.3-.15-.41-.26C.13,14.48,0,14.2,0,13.9v-1.54C0,12.05.13,11.77.33,11.57c.2-.2.48-.33.79-.33h.48v-.42c0-.31.13-.59.33-.79.2-.2.48-.33.79-.33h3.29c.06-.23.14-.45.22-.67.32-.83.79-1.59,1.38-2.24.14-.15.38-.17.53-.03.15.14.17.38.03.53-.53.58-.95,1.26-1.24,2.01-.24.62-.38,1.28-.42,1.94h12.88c-.09-1.63-.79-3.1-1.88-4.18-1.17-1.17-2.78-1.89-4.56-1.89-.65,0-1.27.1-1.86.27-.61.18-1.18.45-1.7.8-.17.11-.41.07-.52-.11-.12-.17-.07-.41.11-.52.58-.38,1.22-.69,1.9-.89.54-.16,1.11-.26,1.7-.29V.38c0-.21.17-.38.38-.38h4.55c.21,0,.38.17.38.38,0,.08-.02.15-.06.21l-.67,1.11.68,1.12c.11.18.05.41-.13.52-.06.04-.13.05-.19.05h-4.17v1.03c1.84.1,3.5.88,4.72,2.1.87.87,1.52,1.96,1.85,3.17h3.29c.31,0,.59.13.79.33.2.2.33.48.33.79v.42h.48c.31,0,.59.13.79.33s.33.48.33.79v1.54c0,.31-.12.59-.33.79-.11.11-.25.21-.41.26v8.23c.15.06.29.15.41.26.2.2.33.48.33.79v.56c0,.31-.12.59-.33.79s-.48.33-.79.33H1.12c-.31,0-.59-.12-.79-.33-.2-.2-.33-.48-.33-.79v-.56c0-.31.13-.59.33-.79.11-.11.25-.2.41-.26v-3.25c0-.21.17-.38.38-.38s.38.17.38.38v3.19h.96v-4.73c0-.54.22-1.02.57-1.38.35-.35.84-.57,1.38-.57s1.02.22,1.38.57c.35.35.57.84.57,1.38h0ZM22.39,23.11v-4.73c0-.33-.13-.63-.35-.84-.22-.22-.51-.35-.84-.35s-.63.13-.84.35c-.22.22-.35.51-.35.84v4.73h2.38ZM16.79,23.11v-4.73c0-.33-.13-.63-.35-.84-.22-.22-.51-.35-.84-.35s-.63.13-.84.35c-.22.22-.35.51-.35.84v4.73h2.38ZM11.2,23.11v-4.73c0-.33-.13-.63-.35-.84-.22-.22-.51-.35-.84-.35s-.63.13-.84.35c-.22.22-.35.51-.35.84v4.73h2.38ZM16.83.76h-3.5v1.88h3.5l-.44-.74c-.07-.12-.08-.27,0-.4l.45-.74ZM20.06,10.46c.04.26.07.52.08.78h3.4v-.42c0-.1-.04-.19-.1-.25-.06-.06-.15-.1-.25-.1h-3.12ZM5.75,11.24c.01-.26.04-.52.08-.78h-3.12c-.1,0-.19.04-.25.1-.07.06-.11.15-.11.25v.42h3.4ZM1.12,14.25h23.67c.1,0,.19-.04.25-.1.06-.06.1-.15.1-.25v-1.54c0-.1-.04-.19-.1-.25-.06-.06-.15-.11-.25-.11H1.12c-.1,0-.19.04-.25.11-.07.06-.11.15-.11.25v1.54c0,.1.04.19.11.25.06.06.15.1.25.1Z"/>
  </g>
</svg>