<?xml version="1.0" encoding="UTF-8"?>
<svg id="Layer_2" data-name="Layer 2" xmlns="http://www.w3.org/2000/svg" viewBox="0 0 26.49 25.08">
  <defs>
    <style>
      .cls-1 {
        fill: #afc097;
        stroke-width: 0px;
      }
    </style>
  </defs>
  <g id="Layer_1-2" data-name="Layer 1">
    <g>
      <path class="cls-1" d="M10.15,12.93c.14,0,.26-.07.33-.18l.7-1.12.93,1.42c.07.11.2.18.34.18s.26-.07.33-.19l1.49-2.51,2,3.51c.07.12.2.19.33.19h0c.14,0,.26-.07.33-.18l1.25-2.02h3.01c.21,0,.39-.17.39-.37s-.17-.37-.39-.37h-3.24c-.14,0-.26.07-.33.18l-1.01,1.64-2.01-3.53c-.07-.12-.2-.19-.34-.19s-.27.07-.34.19l-1.52,2.55-.92-1.4c-.07-.11-.2-.18-.33-.18s-.26.07-.33.18l-.91,1.46h-2.2c-.21,0-.39.17-.39.37s.17.37.39.37h2.42,0Z"/>
      <path class="cls-1" d="M21.89,2.58c-.21,0-.39.17-.39.37v1.1h-1.15c-.21,0-.39.17-.39.37s.17.37.39.37h1.15v1.1c0,.21.17.37.39.37s.39-.17.39-.37v-1.1h1.15c.21,0,.39-.17.39-.37s-.17-.37-.39-.37h-1.15v-1.1c0-.21-.17-.37-.39-.37Z"/>
      <path class="cls-1" d="M23.26,15.36c1.89-1.94,2.43-4.88,1.39-7.4,1.11-.81,1.84-2.09,1.84-3.54,0-2.44-2.06-4.42-4.6-4.42-1.04,0-2.06.34-2.87.97-.17.13-.2.36-.06.53.13.16.38.19.55.06.68-.53,1.51-.8,2.39-.8,2.11,0,3.82,1.65,3.82,3.68s-1.72,3.68-3.82,3.68c-1.96,0-3.58-1.43-3.8-3.26h0c-.01-.14-.02-.28-.02-.42,0-.57.13-1.13.4-1.64.1-.18.02-.41-.17-.5-.19-.09-.42-.02-.52.17-.32.61-.48,1.28-.48,1.97v.19c-.98.34-1.89.89-2.66,1.61l-.43.4h0s-.42-.4-.42-.4c-1.36-1.29-3.15-2.01-4.9-1.98-1.46.03-2.75.58-3.73,1.59-.15.15-.14.39.02.53.16.14.4.13.55-.02.84-.86,1.94-1.33,3.18-1.35,1.54-.03,3.12.61,4.34,1.77l.42.4c.21.19.38.29.55.29s.34-.1.54-.29l.43-.4c.64-.61,1.41-1.08,2.22-1.39.45,1.99,2.3,3.48,4.5,3.48.75,0,1.47-.18,2.09-.48.86,2.22.37,4.78-1.29,6.48l-5.57,5.48-.46.09c-.11.02-.21.04-.3.06-.58.11-.73.14-1.41.04l-3.32-.58c-.45-.15-.41-.5-.38-.6.04-.16.2-.42.53-.37h0c.15.02.31.04.48.06.63.08,1.34.17,1.97.23,1.29.13,2.03-.53,2.18-1.23.16-.72-.27-1.67-1.57-2.07-.01,0-.03,0-.05-.01l-2.14-.38c-1.16-.21-2.06-.05-3.43.19-.36.06-.77.14-1.23.21l-1.01.16-.31-.31-.98-.96c-1.82-1.88-2.23-4.82-.98-7.16.1-.18.02-.41-.17-.5-.19-.09-.42-.02-.52.16-1.39,2.61-.94,5.91,1.11,8.01h0s.91.9.91.9l-1.7.27v-.04c0-.29-.26-.52-.59-.52H.59c-.32,0-.59.23-.59.52v6.56c0,.29.26.52.59.52h3.19c.32,0,.59-.23.59-.52v-.04l3.49.91,3.22.84c.73.22,1.33.31,1.87.31.86,0,1.58-.22,2.54-.52.09-.03.17-.05.26-.08l6.35-1.96c.73-.23,1.26-.74,1.4-1.36.11-.49-.04-.97-.41-1.28-.3-.26-.99-.63-2.32-.22l-2.3.43,4.79-4.71h0s0-.01,0-.01ZM.78,22.83v-6.12h2.82v6.11H.78ZM20.98,20.36c.72-.22,1.3-.2,1.59.06.16.14.22.35.17.57-.08.36-.41.67-.88.81l-6.35,1.96c-.09.03-.18.06-.26.08-1.52.47-2.28.71-3.95.21h-.01l-6.92-1.81v-4.94l3.77-.6c.46-.07.88-.14,1.24-.21,1.33-.23,2.13-.37,3.15-.19l2.11.37c.82.26,1.11.8,1.02,1.2-.1.46-.63.71-1.34.64-.62-.06-1.33-.15-1.95-.22-.17-.02-.33-.04-.47-.06-.74-.11-1.26.39-1.4.94-.03.12-.04.24-.03.37.03.45.31.93.95,1.12.02,0,.23.04.23.04l3.17.56h0c.65.1.94.09,1.34.02.11-.02.53-.1.64-.12l.7-.13s3.46-.65,3.47-.66h0Z"/>
    </g>
  </g>
</svg>