<?xml version="1.0" encoding="UTF-8"?>
<svg id="Layer_2" data-name="Layer 2" xmlns="http://www.w3.org/2000/svg" viewBox="0 0 19.3 25.9">
  <defs>
    <style>
      .cls-1 {
        fill: #afc097;
        stroke-width: 0px;
      }
    </style>
  </defs>
  <g id="Layer_1-2" data-name="Layer 1">
    <g id="Industry">
      <path class="cls-1" d="M17.45,9.76h-5.01c-.32,0-.58-.26-.58-.58s.26-.58.58-.58h5.01c.32,0,.58.26.58.58s-.26.58-.58.58Z"/>
      <path class="cls-1" d="M17.61,11.78h-5.36c-.32,0-.58-.26-.58-.58s.26-.58.58-.58h5.36c.32,0,.58.26.58.58s-.26.58-.58.58Z"/>
      <path class="cls-1" d="M18.73,25.9h-6.05c-.32,0-.58-.26-.58-.58v-9.56l-.58-.58c-.12-.12-.18-.29-.17-.46l1.03-11.36c.03-.3.28-.53.58-.52h4.03c.3,0,.55.23.58.53l1.73,21.9c.01.16-.04.32-.15.44-.11.12-.26.19-.43.18ZM13.25,24.75h4.85l-1.64-20.74h-2.97l-.96,10.56.55.56c.11.11.17.25.17.41v9.22Z"/>
      <path class="cls-1" d="M13.54,2.27c-.32,0-.58-.26-.57-.58,0-.15.06-.3.17-.4l1.15-1.15c.24-.21.61-.18.81.06.18.22.18.53,0,.75l-1.15,1.15c-.11.11-.25.17-.41.17Z"/>
      <path class="cls-1" d="M16.42,2.27c-.32,0-.58-.26-.57-.58,0-.15.06-.3.17-.4l1.15-1.15c.24-.21.61-.18.81.06.18.22.18.53,0,.75l-1.15,1.15c-.11.11-.25.17-.41.17Z"/>
      <path class="cls-1" d="M.58,21.29c-.32,0-.58-.26-.58-.58V7.46c0-.32.26-.58.58-.58s.58.26.58.58v13.25c0,.32-.26.58-.58.58Z"/>
      <path class="cls-1" d="M12.68,25.9H.58c-.32,0-.58-.26-.58-.58v-1.15c0-.32.26-.58.58-.58s.58.26.58.58v.58h10.95v-8.98l-7.9-7.9c-.21-.24-.18-.61.06-.81.22-.18.53-.18.75,0l8.07,8.07c.11.11.17.25.17.41v9.8c0,.32-.26.58-.58.58Z"/>
      <path class="cls-1" d="M8.64,25.9c-.32,0-.58-.26-.58-.58v-4.03h-2.88v4.03c0,.32-.26.58-.58.58s-.58-.26-.58-.58v-4.61c0-.32.26-.58.58-.58h4.03c.32,0,.58.26.58.58v4.61c0,.32-.26.58-.58.58Z"/>
      <path class="cls-1" d="M4.61,8.04H.58c-.32,0-.58-.26-.58-.58s.26-.58.58-.58h4.03c.32,0,.58.26.58.58s-.26.58-.58.58Z"/>
      <circle class="cls-1" cx=".58" cy="22.44" r=".58"/>
      <path class="cls-1" d="M6.05,17.83c-.32,0-.58-.26-.57-.58,0-.15.06-.3.17-.4l1.15-1.15c.24-.21.61-.18.81.06.18.22.18.53,0,.75l-1.15,1.15c-.11.11-.25.17-.41.17Z"/>
      <path class="cls-1" d="M3.17,17.83c-.32,0-.58-.26-.57-.58,0-.15.06-.3.17-.4l1.15-1.15c.21-.24.57-.27.81-.06.24.21.27.57.06.81-.02.02-.04.04-.06.06l-1.15,1.15c-.11.11-.25.17-.41.17Z"/>
      <path class="cls-1" d="M8.93,17.83c-.32,0-.58-.26-.57-.58,0-.15.06-.3.17-.4l1.15-1.15c.24-.21.61-.18.81.06.18.22.18.53,0,.75l-1.15,1.15c-.11.11-.25.17-.41.17Z"/>
    </g>
  </g>
</svg>