<?xml version="1.0" encoding="UTF-8"?>
<svg id="Layer_2" data-name="Layer 2" xmlns="http://www.w3.org/2000/svg" viewBox="0 0 25 25">
  <defs>
    <style>
      .cls-1 {
        fill: #afc097;
        stroke-width: 0px;
      }
    </style>
  </defs>
  <g id="Layer_1-2" data-name="Layer 1">
    <g>
      <path class="cls-1" d="M8.42,21.34c-1.01,0-1.83.82-1.83,1.83s.82,1.83,1.83,1.83,1.83-.82,1.83-1.83-.82-1.83-1.83-1.83ZM8.42,24.27c-.6,0-1.1-.49-1.1-1.1s.49-1.1,1.1-1.1,1.1.49,1.1,1.1-.49,1.1-1.1,1.1Z"/>
      <path class="cls-1" d="M8.42,23.54c.2,0,.37-.16.37-.37s-.16-.37-.37-.37-.37.16-.37.37.16.37.37.37Z"/>
      <path class="cls-1" d="M20.97,23.54c.2,0,.37-.16.37-.37s-.16-.37-.37-.37-.37.16-.37.37.16.37.37.37Z"/>
      <path class="cls-1" d="M20.97,21.34c-1.01,0-1.83.82-1.83,1.83s.82,1.83,1.83,1.83,1.83-.82,1.83-1.83-.82-1.83-1.83-1.83ZM20.97,24.27c-.6,0-1.1-.49-1.1-1.1s.49-1.1,1.1-1.1,1.1.49,1.1,1.1-.49,1.1-1.1,1.1Z"/>
      <path class="cls-1" d="M6.05,17.72l2.67-1.51h5.98c.88,0,1.63-.63,1.8-1.47h3.81c1.17,0,2.19-.79,2.48-1.93l2.2-8.6c.03-.11,0-.23-.07-.32-.07-.09-.18-.14-.29-.14H6.65l-.19-.73c-.45-1.78-2.06-3.03-3.9-3.03h-1.47C.49,0,0,.49,0,1.1s.49,1.1,1.1,1.1h1.47c.84,0,1.57.57,1.78,1.38l2.81,11-2.19,1.24c-.8.45-1.3,1.31-1.3,2.23,0,1.41,1.15,2.56,2.56,2.56h16.21c.6,0,1.1-.49,1.1-1.1s-.49-1.1-1.1-1.1H6.23c-.2,0-.37-.16-.37-.37,0-.13.07-.25.19-.32ZM19.62,10.6h-2.25l.14-2.69h2.53l-.41,2.69ZM20.78,7.91h2.51l-.69,2.69h-2.24l.41-2.69ZM19.51,11.33l-.41,2.69h-1.9l.14-2.69h2.18ZM16.64,10.6h-2.25l-.14-2.69h2.53l-.14,2.69ZM17.55,7.18l.14-2.69h2.88l-.41,2.69h-2.6ZM16.81,7.18h-2.6l-.14-2.69h2.88l-.14,2.69ZM13.48,7.18h-1.45c-.2,0-.37.16-.37.37s.16.37.37.37h1.49l.14,2.69h-2.25l-.94-6.1h2.88l.14,2.69h0ZM10.66,10.6h-2.26l-.69-2.69h2.53l.41,2.69ZM10.77,11.33l.41,2.69h-1.91l-.69-2.69h2.18ZM11.93,14.01l-.41-2.69h2.18l.14,2.69h-1.9ZM14.56,14.01l-.14-2.69h2.18l-.14,2.69h-1.9ZM22.08,12.64c-.21.81-.94,1.38-1.78,1.38h-.47l.41-2.69h2.16l-.33,1.31ZM23.48,7.18h-2.59l.41-2.69h2.86l-.69,2.69ZM9.72,4.49l.41,2.69h-2.61l-.69-2.69h2.88ZM2.56,1.47h-1.47c-.2,0-.37-.16-.37-.37s.16-.37.37-.37h1.47c.77,0,1.49.27,2.06.72l-.52.52c-.43-.32-.97-.51-1.53-.51h0ZM6.23,19.14h16.21c.2,0,.37.16.37.37s-.16.37-.37.37H6.23c-1.01,0-1.83-.82-1.83-1.83,0-.66.36-1.27.93-1.6l2.43-1.38c.15-.08.22-.25.18-.41L5.05,3.4c-.08-.33-.23-.64-.43-.9l.52-.52c.28.36.5.78.62,1.24l2.88,11.26c.04.16.19.28.35.28h6.74c-.15.43-.56.73-1.04.73h-6.08c-.06,0-.13.02-.18.05l-2.75,1.56c-.35.2-.56.56-.56.96,0,.6.49,1.1,1.1,1.1h0Z"/>
    </g>
  </g>
</svg>