<?xml version="1.0" encoding="UTF-8"?>
<svg id="Layer_2" data-name="Layer 2" xmlns="http://www.w3.org/2000/svg" viewBox="0 0 25 25">
  <defs>
    <style>
      .cls-1 {
        fill: #afc097;
        stroke-width: 0px;
      }
    </style>
  </defs>
  <g id="Layer_1-2" data-name="Layer 1">
    <g>
      <path class="cls-1" d="M12.5.83c.4,0,.8.02,1.21.06l.08-.83c-1.15-.12-2.31-.08-3.45.12l.14.82c.66-.12,1.34-.17,2.01-.17h0Z"/>
      <path class="cls-1" d="M5.66,3.05l-.49-.68C1.92,4.72,0,8.49,0,12.5c0,1.93.44,3.82,1.29,5.54l.75-.37c-.8-1.61-1.21-3.38-1.21-5.18,0-3.74,1.79-7.26,4.83-9.46h0Z"/>
      <path class="cls-1" d="M12.91,24.16l.03.83c1.17-.04,2.33-.24,3.45-.61l-.26-.79c-1.04.34-2.13.53-3.22.57h0Z"/>
      <path class="cls-1" d="M5,12.09h.83v9.59h-.83v-9.59Z"/>
      <path class="cls-1" d="M7.5,12.09h.83v9.59h-.83v-9.59Z"/>
      <path class="cls-1" d="M10,12.09h.83v9.59h-.83v-9.59Z"/>
      <path class="cls-1" d="M24.77,12.9l-7.51-3.61c-.62-.3-1.37-.04-1.67.58l-2.25,4.68v-4.14c0-1.15-.93-2.08-2.08-2.08h-1.67V1.67c0-.92-.75-1.67-1.67-1.67s-1.67.75-1.67,1.67v6.67h-1.67c-1.15,0-2.08.93-2.08,2.08v10.84c0,.88.55,1.66,1.38,1.96-.3.62-.04,1.37.58,1.67.62.3,1.37.04,1.67-.58.15-.3.16-.65.05-.96h3.48c-.23.65.11,1.37.76,1.6.65.23,1.37-.11,1.6-.76.11-.31.09-.66-.05-.96.67-.24,1.16-.8,1.32-1.5l5.88,2.83c.21.1.45.01.55-.2l5.24-10.89c.1-.21.01-.46-.2-.55h0ZM16.72,10c.06,0,.13.01.18.04l7.13,3.43-.36.75-7.13-3.43c-.21-.1-.3-.35-.2-.55.07-.15.22-.24.38-.24h0ZM7.08,1.67c0-.46.38-.83.83-.83s.83.38.83.83v6.67h-1.67V1.67ZM5.42,23.75c0,.23-.19.42-.42.42s-.42-.19-.42-.42.19-.42.42-.42.42.19.42.42ZM10.84,24.17c-.23,0-.42-.19-.42-.42s.19-.42.42-.42.42.19.42.42-.19.42-.42.42ZM11.25,22.5h-6.67c-.69,0-1.25-.56-1.25-1.25v-10.84c0-.69.56-1.25,1.25-1.25h1.67v2.08h.83v-2.08h1.67v2.08h.83v-2.08h1.67c.69,0,1.25.56,1.25,1.25v5.88l-1.43,2.97c-.3.62-.04,1.37.58,1.67l.84.4c-.05.65-.59,1.16-1.25,1.17ZM19.15,23.62l-7.13-3.43c-.21-.1-.3-.35-.2-.55l4-8.33c.1.1.22.18.35.25l7.13,3.43-4.15,8.64h0Z"/>
      <path class="cls-1" d="M19.19,13.92c-1.45-.7-3.2-.09-3.89,1.36-.7,1.45-.09,3.2,1.36,3.89,1.45.7,3.2.09,3.89-1.36.7-1.45.09-3.19-1.36-3.89ZM19.95,17.06l-.75-.36c.17-.46.25-.95.24-1.44v-.15c.49.52.68,1.25.5,1.94ZM17.36,17.88l-.11.08v-.14c0-.36.05-.72.16-1.06l.68.33c-.2.3-.44.57-.73.79h0ZM17.77,16.01c.2-.3.44-.57.73-.79l.11-.08v.14c0,.36-.05.72-.16,1.06l-.68-.33h0ZM17.93,14.47c.06,0,.11,0,.17,0l-.11.09c-.39.3-.72.67-.97,1.09l-.75-.36c.4-.52,1.01-.83,1.66-.83h0ZM15.91,16.04l.75.36c-.17.46-.25.95-.24,1.44v.15c-.49-.52-.68-1.25-.5-1.94ZM17.75,18.63l.11-.09c.39-.3.72-.67.97-1.09l.75.36c-.43.57-1.13.88-1.83.82h0Z"/>
      <path class="cls-1" d="M13.87,20.15l.36-.75,3.75,1.8-.36.75-3.75-1.8Z"/>
      <path class="cls-1" d="M18.01,5.75c-.51-.51-1.33-.51-1.84,0-.18.18-.48.18-.66,0l-.1-.1c-1.14-1.14-2.99-1.14-4.13,0-.23.23-.53.35-.85.35v.83c.54,0,1.06-.21,1.44-.6.82-.81,2.14-.81,2.95,0l.1.1c.51.51,1.33.51,1.84,0,.18-.18.48-.18.66,0l.77.77c1.49,1.5,3.5,2.38,5.62,2.47.18.7.3,1.4.34,2.12l.83-.06c-.11-1.65-.55-3.26-1.3-4.74l-.75.38c.24.47.44.95.61,1.45-1.8-.14-3.5-.93-4.77-2.21l-.77-.77h0Z"/>
      <path class="cls-1" d="M14.37,2.02l6.94,4.24c.49.3,1.13.23,1.54-.18l1.62-1.62c.16-.16.16-.43,0-.59l-.83-.83c-.14-.14-.36-.16-.53-.05l-1.02.68-1.9-1.27.99-1.31c.13-.17.11-.4-.04-.55l-.42-.42c-.13-.13-.32-.16-.48-.08l-2.3,1.15-.77-.46c-.82-.49-1.87-.36-2.55.31l-.33.33c-.16.16-.16.43,0,.59.03.03.05.04.08.06h0ZM16.74,1.44l.97.58c.12.08.28.08.4.02l2.09-1.05-.94,1.25c-.14.18-.1.45.08.58,0,0,.01,0,.02.01l2.5,1.67c.14.09.32.09.46,0l.97-.65.3.3-1.33,1.33c-.14.14-.35.16-.51.06l-6.49-3.96c.41-.37,1.01-.43,1.48-.15h0Z"/>
    </g>
  </g>
</svg>