<?xml version="1.0" encoding="UTF-8"?>
<svg id="Layer_2" data-name="Layer 2" xmlns="http://www.w3.org/2000/svg" viewBox="0 0 25 25.01">
  <defs>
    <style>
      .cls-1 {
        fill: #afc097;
        stroke-width: 0px;
      }
    </style>
  </defs>
  <g id="Layer_1-2" data-name="Layer 1">
    <g>
      <path class="cls-1" d="M7.08,15h-3.33v.83h3.33v-.83Z"/>
      <path class="cls-1" d="M24.95,19.81l-1.25-2.5c-.07-.14-.22-.23-.37-.23h-2.5v-1.25c0-.23-.19-.42-.42-.42h-8.33c-.23,0-.42.19-.42.42v7.5c0,.23.19.42.42.42h1.73c.23.89,1.13,1.43,2.02,1.2.59-.15,1.05-.61,1.2-1.2h3.03c.23.89,1.13,1.43,2.02,1.2.59-.15,1.05-.61,1.2-1.2h1.31c.23,0,.42-.19.42-.42v-3.33c0-.07-.02-.13-.05-.19ZM15.42,24.17c-.46,0-.83-.37-.83-.83s.38-.83.83-.83.83.38.83.83-.38.83-.83.83ZM20,22.92h-2.98c-.19-.73-.85-1.25-1.61-1.25-.76,0-1.42.52-1.61,1.25h-1.31v-6.67h7.5v6.67ZM22.5,17.92h.57l.83,1.67h-1.41v-1.67ZM21.67,24.17c-.46,0-.83-.37-.83-.83s.37-.83.83-.83.83.38.83.83-.37.83-.83.83ZM24.17,22.92h-.89c-.19-.73-.85-1.25-1.61-1.25-.29,0-.58.08-.83.23v-3.98h.83v2.08c0,.23.19.42.42.42h2.08v2.5Z"/>
      <path class="cls-1" d="M10,5.83h-.83v.83h.83v-.83Z"/>
      <path class="cls-1" d="M11.67,5.83h-.83v.83h.83v-.83Z"/>
      <path class="cls-1" d="M13.33,5.83h-.83v.83h.83v-.83Z"/>
      <path class="cls-1" d="M15,5.83h-.83v.83h.83v-.83Z"/>
      <path class="cls-1" d="M22.95,6.96l-1.29-1.29c-.96-.96-2.26-1.5-3.62-1.5h-3.23l-1.96-3.14c-.07-.12-.21-.2-.35-.2h-1.25c-.23,0-.42.19-.42.42,0,.03,0,.07.01.1l.7,2.82h-3.32L7.07.3c-.05-.18-.22-.3-.4-.3h-2.08c-.23,0-.42.19-.42.42v4.17c0,.11.04.22.12.3l2.6,2.6c1.07,1.08,2.54,1.69,4.06,1.68h.11l-1.03,2.33c-.09.21,0,.46.21.55.01,0,.03,0,.04.01l1.25.42c.18.06.37,0,.48-.16l2.21-3.15h7.82c.71,0,1.29-.58,1.3-1.29,0-.35-.14-.67-.38-.92h0ZM12.27,1.67l1.56,2.5h-1.42l-.62-2.5h.49,0ZM5,.83h1.36l1,3.33h-2.36V.83ZM11.5,11.59l-.52-.17,1.37-3.08h1.43l-2.28,3.26ZM22.47,8.05c-.07.18-.24.29-.43.29h-7.24l.13-.18c.13-.19.09-.45-.1-.58-.07-.05-.15-.07-.24-.07h-2.5c-.17,0-.31.1-.38.25l-.26.59h-.48c-1.3,0-2.55-.52-3.47-1.44l-1.89-1.89h12.46c.91,0,1.79.3,2.53.83h-3.07v.83h3.98l.88.88c.13.13.18.33.1.5h0Z"/>
      <path class="cls-1" d="M10.21,23.86c-.26-.28-.61-.46-1-.52l1.59-4.45c.08-.22-.04-.45-.25-.53h0l-1.02-.34-.79-4.34c-.04-.2-.21-.34-.41-.34h-1.67v-1.25c0-.23-.19-.42-.42-.42h-1.67c-.23,0-.42.19-.42.42v1.25h-1.67c-.2,0-.37.15-.41.34l-.79,4.34-1.02.34c-.22.07-.34.31-.26.53H.02s1.59,4.46,1.59,4.46c-.38.05-.73.23-1,.52-.15.19-.38.3-.62.3v.83c.45,0,.88-.19,1.19-.53.15-.19.38-.3.62-.31.09,0,.17.02.26.05,0,0,0,0,0,0,.13.07.25.15.35.26.31.33.74.52,1.19.52s.88-.19,1.19-.53c.26-.34.75-.41,1.1-.15.05.04.1.09.15.15.3.33.73.53,1.18.53.45,0,.88-.19,1.19-.52.1-.1.22-.19.35-.25,0,0,0,0,0,0,.08-.03.17-.05.26-.05.24,0,.47.12.62.3.3.33.73.53,1.18.53v-.83c-.24,0-.47-.12-.62-.3h0ZM5,12.5h.83v.83h-.83v-.83ZM5,23.39c-.29.09-.55.25-.77.47-.26.34-.75.41-1.1.15-.05-.04-.1-.09-.15-.15-.13-.13-.27-.24-.43-.33l-1.61-4.52,4.05-1.35v5.72h0ZM5.28,16.69l-3.08,1.03.65-3.55h5.14l.65,3.55-3.08-1.03c-.09-.03-.18-.03-.26,0ZM8.27,23.53c-.15.09-.3.2-.42.33-.26.34-.75.41-1.09.15-.05-.04-.1-.09-.15-.15-.21-.22-.48-.39-.77-.48v-5.72l4.05,1.35-1.62,4.52Z"/>
      <path class="cls-1" d="M16.67,5.83h-.83v.83h.83v-.83Z"/>
    </g>
  </g>
</svg>