<?xml version="1.0" encoding="UTF-8"?>
<svg id="Layer_2" data-name="Layer 2" xmlns="http://www.w3.org/2000/svg" xmlns:xlink="http://www.w3.org/1999/xlink" viewBox="0 0 92.98 91.31">
  <defs>
    <style>
      .cls-1 {
        fill: url(#linear-gradient);
      }

      .cls-1, .cls-2, .cls-3, .cls-4, .cls-5, .cls-6, .cls-7, .cls-8 {
        stroke-width: 0px;
      }

      .cls-2 {
        fill: url(#linear-gradient-6);
      }

      .cls-3 {
        fill: url(#linear-gradient-5);
      }

      .cls-4 {
        fill: url(#linear-gradient-2);
      }

      .cls-5 {
        fill: url(#linear-gradient-7);
      }

      .cls-6 {
        fill: url(#linear-gradient-3);
      }

      .cls-7 {
        fill: url(#linear-gradient-8);
      }

      .cls-8 {
        fill: url(#linear-gradient-4);
      }
    </style>
    <linearGradient id="linear-gradient" x1="0" y1="45.68" x2="92.89" y2="45.68" gradientUnits="userSpaceOnUse">
      <stop offset="0" stop-color="#7d7d7d"/>
      <stop offset="1" stop-color="#000"/>
    </linearGradient>
    <linearGradient id="linear-gradient-2" x1="8.21" y1="39.16" x2="41.14" y2="39.16" xlink:href="#linear-gradient"/>
    <linearGradient id="linear-gradient-3" x1="82.18" y1="96.9" x2="27.27" y2="46.96" xlink:href="#linear-gradient"/>
    <linearGradient id="linear-gradient-4" x1="35.69" y1="13.9" x2="54.14" y2="13.9" xlink:href="#linear-gradient"/>
    <linearGradient id="linear-gradient-5" x1="28.62" y1="45.69" x2="92.99" y2="45.69" gradientUnits="userSpaceOnUse">
      <stop offset="0" stop-color="#227d7d"/>
      <stop offset="1" stop-color="#90ffff"/>
    </linearGradient>
    <linearGradient id="linear-gradient-6" x1="8.32" y1="39.14" x2="41.27" y2="39.14" xlink:href="#linear-gradient-5"/>
    <linearGradient id="linear-gradient-7" x1="37.26" y1="72.51" x2="61.63" y2="72.51" xlink:href="#linear-gradient-5"/>
    <linearGradient id="linear-gradient-8" x1="35.69" y1="13.9" x2="54.28" y2="13.9" xlink:href="#linear-gradient-5"/>
  </defs>
  <g id="Layer_1-2" data-name="Layer 1">
    <g>
      <path class="cls-1" d="M37.4,81.91C1.73,57.12,8.39,15.2,8.39,15.2c9.18-8.04,16.98-7.31,16.98-7.31l15.76,21.29-16.33,22.18v19.09l22.1-31.93,45.99,52.73L52.59,29.58l11.54-16.09C61.7,11.2,48.42-.86,28.62.17,14.31.91,4.53,8.09,1.08,10.89c-8.53,56.55,36.24,77.35,36.24,77.35,4.94-2.9,13.58-8.96,19.58-19.83,2.32-4.21,3.74-8.22,4.63-11.62-3.09,9.59-24.13,25.11-24.13,25.11ZM54.14,9.02l-7.69,12.68-10.75-15.6s14.14,1.14,18.44,2.93Z"/>
      <path class="cls-4" d="M41.14,29.18l-16.33,22.18v19.09l-3.18-3.71,1.15-15.31,14.06-20.23-14.54-20.64c-2.68-.16-13.57,6.01-13.57,6.01l-.51.18c.1-1.01.19-1.56.19-1.56,9.18-8.04,16.98-7.31,16.98-7.31l15.76,21.29Z"/>
      <path class="cls-6" d="M60.46,60.37c.43-1.25.78-2.44,1.07-3.57-3.09,9.59-24.13,25.11-24.13,25.11-1.14-.79-2.24-1.61-3.3-2.43,9.92-4.41,23.45-22.67,23.45-22.67l-13.4-14.3,2.76-3.98,42.11,48.28h0s3.88,4.45,3.88,4.45l-32.44-30.88Z"/>
      <path class="cls-8" d="M54.14,9.02l-7.69,12.67-1.45-2.1h0s4.35-7.89,4.35-7.89l-11.11-1.92-2.54-3.69s14.14,1.14,18.44,2.93Z"/>
      <g>
        <path class="cls-3" d="M92.89,91.25L52.51,29.63l-.04-.05.04-.05,11.56-16.07v.08c-4.73-4.43-10.35-7.88-16.38-10.26-3.02-1.18-6.18-2-9.37-2.55-3.2-.58-6.46-.64-9.7-.56,3.24-.08,6.5-.03,9.7.53,3.2.54,6.36,1.35,9.39,2.52,6.05,2.36,11.69,5.8,16.45,10.23l.04.04-.03.04-11.51,16.11v-.11s40.22,61.72,40.22,61.72Z"/>
        <path class="cls-2" d="M8.39,15.2c.61-.5,1.21-1.01,1.82-1.5.64-.46,1.25-.96,1.92-1.38,1.31-.88,2.68-1.66,4.11-2.33,1.43-.65,2.92-1.2,4.45-1.59,1.53-.37,3.1-.63,4.69-.56h.02s.01.02.01.02l15.81,21.25.05.06-.05.06-16.38,22.15v-.03s-.04,19.09-.04,19.09l-.04-19.09h0s0-.03,0-.03l16.28-22.22v.12S25.34,7.91,25.34,7.91l.03.02c-1.56-.07-3.14.17-4.66.54-1.53.38-3.01.92-4.45,1.56-1.43.67-2.8,1.43-4.11,2.31-.67.42-1.28.91-1.92,1.37-.62.49-1.22,1-1.83,1.49Z"/>
        <path class="cls-5" d="M37.32,88.24c5.83-3.47,11.06-7.98,15.21-13.34,2.07-2.68,3.89-5.57,5.38-8.61,1.5-3.04,2.66-6.24,3.53-9.52l.19.06c-.99,2.8-2.78,5.2-4.66,7.44-1.9,2.24-3.93,4.36-6.07,6.37-4.26,4.03-8.79,7.77-13.5,11.27,4.66-3.55,9.15-7.34,13.4-11.36,2.13-2.01,4.15-4.14,6.03-6.38,1.86-2.24,3.64-4.64,4.6-7.4l.19.06c-1.7,6.59-4.79,12.81-8.99,18.16-2.08,2.69-4.45,5.15-7.02,7.37-2.58,2.21-5.36,4.18-8.3,5.88Z"/>
        <path class="cls-7" d="M35.69,6.1c3.11.22,6.22.53,9.31.94,1.55.2,3.09.44,4.63.72,1.53.29,3.07.6,4.54,1.18l.11.04-.06.1c-2.59,4.21-5.14,8.44-7.77,12.62,2.5-4.27,5.07-8.48,7.61-12.73l.05.14c-1.45-.54-2.98-.87-4.5-1.17-1.53-.29-3.07-.54-4.61-.75-3.09-.42-6.19-.78-9.29-1.09Z"/>
      </g>
    </g>
  </g>
</svg>