<?xml version="1.0" encoding="UTF-8"?>
<svg id="Layer_2" data-name="Layer 2" xmlns="http://www.w3.org/2000/svg" viewBox="0 0 507.66 102.97">
  <defs>
    <style>
      .cls-1 {
        fill: #00aeef;
      }

      .cls-1, .cls-2, .cls-3, .cls-4 {
        stroke-width: 0px;
      }

      .cls-2 {
        fill: #025585;
      }

      .cls-3 {
        fill: #00c4e6;
      }

      .cls-4 {
        fill: #0178bb;
      }
    </style>
  </defs>
  <g id="Layer_2-2" data-name="Layer 2">
    <path class="cls-4" d="M75.11,5.67c-1.9-.88-4.47-2-6.43-2.75-3.84-1.2-5.95-1.86-10.14-2.43.09.01-.01,0,0,0-.09-.01-.19-.03-.28-.04-.09-.01-.19-.03-.28-.04-.28-.04-.56-.07-.84-.1C53.42,0,52.94-.04,49.82.02c-.89.05-2.07.11-2.96.19-7.48.84-13.07,2.82-16.44,4.34l-.95.44c-1.39.68-1.42.69-2.12,1.07-1.51.83-1.54.85-2.32,1.32-4.17,2.61-6.77,4.67-10.29,8.15-1.11,1.2-2.55,2.84-3.59,4.1C17.55,12.78,47.32.9,68.89,3.9c3.02.42,4.03.8,6.22,1.77h0Z"/>
    <path class="cls-4" d="M94.64,63.18c-25.16-10.83-82.56,18.03-81.49,22.55.03.13.15.28.21.4l2.2,2.29c3.85,3.48,4,3.62,6.47,5.36,4.23,2.72,4.48,2.88,7.28,4.24l1.97.89c-4.04-2.61,15.88-12.76,32.29-16.45,6.34-1.43,17.8-3.43,22.42.5,5.2,6.37-12.9,16.12-15.4,15.49-.11-.03-.23-.11-.33-.16,0-.4.01-.54.9-1.26,1.39-1.49-.53-1.62-1.42-1.6-5.55.09-17.93,5.77-15.96,7.32.24.19.79.26,1.61.21.89-.08,2.08-.19,2.97-.3q2.4-.36,3.66-.62,1.94-.43,2.91-.69,1.65-.47,2.47-.73,1.48-.5,2.21-.77,1.39-.54,2.08-.83,1.37-.6,2.05-.92c1.39-.68,1.42-.69,2.12-1.07,1.51-.83,1.54-.85,2.32-1.32,3.36-2.1,6.18-4.13,9.86-7.71,2.08-2.2,3.72-3.94,6.04-7.28,1.11-1.75,2.52-4.13,3.52-5.95,1.02-2.25,3.72-8.24-2.97-11.59h0Z"/>
    <path class="cls-2" d="M94.64,63.18c-13.48-5.8-36.22-.21-54.26,6.93h0c-2.2.85-8.51,2.91-3.79-.31,4.73-3.22,3.68-5.52-2.56-2.43-6.24,3.09-24.75,13.92-20.66,18.76l2.2,2.29c3.21,2.9,3.85,3.48,5.4,4.59,7.99-7.1,51.56-27.08,71.82-18.36,1.65.83,2.66,1.83,3.24,2.89.57-.96,1.12-1.93,1.58-2.77,1.02-2.25,3.72-8.24-2.97-11.59h0Z"/>
    <path class="cls-2" d="M101.84,39.96c-1.4-5.11-1.52-5.53-2.89-8.79-1.05-2.2-2.57-5.09-3.79-7.2-1.26-1.65-2.86-3.71-8.44-5.36C54.96,10.93,2.52,35.38,1.03,41.6c-.25,1.56-.59,3.63-.76,5.2C0,51.99-.02,52.19.18,55.22c.58,5.26.61,5.46,1.31,8.43l.04.18c.25-7.97,66.98-36.7,93.61-24.74,2.17.97,6.99,2.81,7.78,7.83-.27-2.21-.69-4.9-1.08-6.96h0Z"/>
    <path class="cls-2" d="M98.96,31.16c-1.05-2.2-2.57-5.09-3.79-7.2-1.26-1.65-2.86-3.71-8.44-5.36-15.33-3.7-35.47.08-52.38,5.68h0c-7.48,2.18.86-3.02,6.83-4.64,3.04-.82,5.63-3.09-.13-1.96C31.54,19.54,1.19,34.74,1.03,41.6c-.25,1.56-.59,3.63-.76,5.2-.17,3.04-.24,4.37-.23,5.56,10.27-9.47,60.83-31.72,92.62-23.78,3.13.96,5.12,2.04,6.51,3.11-.07-.17-.14-.34-.22-.53h0Z"/>
    <path class="cls-1" d="M11.14,19.63c1.05-1.26,2.48-2.9,3.59-4.1,3.19-3.13,5.65-5.25,10.29-8.15q1.54-.9,2.32-1.32,1.41-.73,2.12-1.07l.95-.44c-5.55,2.6-4.68,3.3-4.56,3.38.62.38,3.59-.41,6.19-1.86,3.88-1.79,6.75-1.31,5.79.98-2.76,6.64-25.51,16.71-27.1,13.79-.2-.37.16-.91.4-1.21h0Z"/>
    <path class="cls-1" d="M17.64,13.45c-.12-.21-.04-.48.08-.73-.99.87-1.96,1.79-3,2.81-1.11,1.2-2.54,2.84-3.59,4.1-.24.29-.6.83-.4,1.21,1.59,2.93,24.34-7.15,27.1-13.79.15-.37.21-.68.17-.96-7.74,5.07-19.25,9.41-20.37,7.36h0Z"/>
    <path class="cls-3" d="M75.11,5.67c22.37,11.38-32.79,49.99-63.65,58.04-3.96,1.03-9.2,2.03-9.92.12-.77-2.04-2.74-12.07-.51-22.23.12,6.21,37.8-8.52,53.98-26.02,6.05-6.54,8.74-14.52-3.54-15.47,9.62-.34,17.29,2.33,23.64,5.56h0Z"/>
    <path class="cls-3" d="M95.16,23.96c.42.78.94,1.85,1.15,2.71,5.32,21.8-71.19,67.39-82.94,59.46,4.38,5.57,14.53,11.93,17.92,12.78,17.91,4.5,73-27.29,71.73-51.21-.54-10.22-4.85-19.35-7.86-23.74h0Z"/>
    <path class="cls-1" d="M94.09,80.72c-1.74,2.38-3.24,4.44-6.04,7.28-2.58,2.48-5.1,4.77-9.86,7.71q-1.54.9-2.32,1.32-1.41.73-2.12,1.07-1.36.63-2.05.92-1.38.57-2.08.83c-1.44.52-1.46.53-2.21.77-1.6.49-1.63.5-2.47.73-1.83.46-1.9.48-2.91.69-2.22.42-2.36.45-3.66.62-.89.1-2.08.23-2.97.3,8.62-1.05,34.51-13.93,42.21-28.18-1,1.82-2.35,4.24-3.52,5.95h0Z"/>
    <path class="cls-1" d="M80.16,11.52c-.18-.88-.51-1.71-1.02-2.48,0-.01-.01-.02-.02-.03h0c-.85-1.28-2.16-2.4-4.01-3.35-3.86-1.96-8.2-3.72-13.18-4.72,1.4.45,2.72.98,3.94,1.6,19.13,9.73-24.98,44.24-57.46,50.7-3.65.73-6.41.58-8.38.17.18,5.19,1.05,9.2,1.51,10.41.72,1.91,5.95.91,9.92-.12,12.15-3.17,28.07-11.07,41.53-20.19,4.81-3.25,11.15-5.87,2.41,1.16-5.51,4.43,0,4.59,9.97-3.4,16.86-13.53,16.16-24.94,14.79-29.75h0Z"/>
    <path class="cls-1" d="M100.26,34.33c.05.51.04,1.1.06,1.61,1.38,25.93-56.74,60.16-78.57,57.7,3.78,2.78,7.63,4.8,9.54,5.28,1.92.48,4.27.55,6.94.25h0c1.5-.13,2.34.51.53.82-2.05.35-4.2.41-7.26.15-1.59-.14-1.96,3.87,9.09,1.58,39.53-8.2,54.53-32.89,59.91-43.62h0c.6-.15-.68,1.93-1.01,3.37-.5,2.18,2.27,2.7,3.55-6.5,1.01-7.19-1.11-16.03-2.78-20.63h0Z"/>
    <path class="cls-1" d="M127.32,20.94h32.22c5.26,0,9.13,1.2,11.6,3.58,2.47,2.39,3.71,6.03,3.71,10.92,0,3.22-.7,5.84-2.09,7.85-1.4,2.01-3.11,3.42-5.16,4.23,4.35,1.18,7.3,4.08,8.86,8.7.54,1.67.81,3.6.81,5.8,0,5.26-1.24,9.13-3.71,11.6-2.47,2.47-6.34,3.71-11.6,3.71h-34.64V20.94h0ZM162.77,59.61c0-3.22-1.61-4.83-4.83-4.83h-16.11v11.28h16.11c3.22,0,4.83-1.61,4.83-4.83v-1.61h0ZM160.35,37.06c0-3.22-1.61-4.83-4.83-4.83h-13.7v11.28h13.7c3.22,0,4.83-1.61,4.83-4.83v-1.61h0Z"/>
    <path class="cls-2" d="M227.31,76.53c-11.98,1.07-21.91,1.61-29.81,1.61-5.26,0-9.13-1.24-11.6-3.71-2.47-2.47-3.71-6.34-3.71-11.6v-25.78c0-5.64,1.28-9.73,3.83-12.29,2.55-2.55,6.65-3.83,12.29-3.83h29v11.28h-25.78c-3.22,0-4.83,1.61-4.83,4.83v25.78c0,1.24.36,2.22,1.09,2.94.73.72,1.65,1.09,2.78,1.09s2.36-.01,3.71-.04c1.34-.03,2.74-.07,4.19-.12,1.45-.05,2.91-.11,4.39-.16,1.48-.05,3.38-.16,5.72-.32,2.34-.16,5.25-.35,8.74-.56v10.88h0Z"/>
    <path class="cls-2" d="M276.45,65.25c0,4.03-1.14,7.18-3.42,9.47s-5.44,3.42-9.47,3.42h-18.53c-4.03,0-7.18-1.14-9.47-3.42-2.28-2.28-3.42-5.44-3.42-9.47v-18.53c0-4.03,1.14-7.18,3.42-9.47,2.28-2.28,5.44-3.42,9.47-3.42h18.53c4.03,0,7.18,1.14,9.47,3.42,2.28,2.28,3.42,5.44,3.42,9.47v18.53h0ZM262.35,47.93c0-2.15-1.07-3.22-3.22-3.22h-9.67c-2.15,0-3.22,1.07-3.22,3.22v16.11c0,2.15,1.07,3.22,3.22,3.22h9.67c2.15,0,3.22-1.07,3.22-3.22v-16.11h0Z"/>
    <path class="cls-2" d="M307.47,45.52c-2.85,0-6.07.54-9.67,1.61v30.21h-14.1v-42.7h12.49l.81,4.03c2.52-1.66,5.12-2.89,7.77-3.67,2.66-.78,4.9-1.17,6.73-1.17h3.63c3.65,0,6.58,1.1,8.78,3.3,2.2,2.2,3.3,5.13,3.3,8.78v31.42h-14.1v-29c0-.81-.27-1.48-.81-2.01-.54-.54-1.21-.81-2.01-.81h-2.82Z"/>
    <path class="cls-2" d="M358.22,45.52c-2.85,0-6.07.54-9.67,1.61v30.21h-14.1v-42.7h12.49l.81,4.03c2.52-1.66,5.12-2.89,7.77-3.67,2.66-.78,4.9-1.17,6.73-1.17h3.63c3.65,0,6.58,1.1,8.78,3.3,2.2,2.2,3.3,5.13,3.3,8.78v31.42h-14.1v-29c0-.81-.27-1.48-.81-2.01-.54-.54-1.21-.81-2.01-.81h-2.82Z"/>
    <path class="cls-2" d="M401.72,43.9c-2.15,0-3.22,1.07-3.22,3.22v4.43h13.7v-4.43c0-2.15-1.07-3.22-3.22-3.22h-7.25ZM424.68,76.53c-10.37,1.07-19.76,1.61-28.2,1.61-3.65,0-6.58-1.1-8.78-3.3-2.2-2.2-3.3-5.13-3.3-8.78v-19.33c0-4.03,1.14-7.18,3.42-9.47,2.28-2.28,5.44-3.42,9.47-3.42h16.11c4.03,0,7.18,1.14,9.47,3.42,2.28,2.28,3.42,5.44,3.42,9.47v14.9h-27.79v3.22c0,.81.27,1.48.81,2.01.54.54,1.21.81,2.01.81,5.32,0,13.1-.4,23.36-1.21v10.07h0Z"/>
    <path class="cls-2" d="M471.41,76.53c-10.04,1.07-18.9,1.61-26.58,1.61-3.65,0-6.58-1.1-8.78-3.3-2.2-2.2-3.3-5.13-3.3-8.78v-18.53c0-4.03,1.14-7.18,3.42-9.47,2.28-2.28,5.44-3.42,9.47-3.42h25.78v10.88h-21.35c-2.15,0-3.22,1.07-3.22,3.22v15.71c0,.81.27,1.48.81,2.01.54.54,1.21.81,2.01.81,4.83,0,12.08-.4,21.75-1.21v10.47h0Z"/>
    <path class="cls-2" d="M507.66,77.34c-5.21.54-10.31.81-15.31.81-3.65,0-6.58-1.1-8.78-3.3-2.2-2.2-3.3-5.13-3.3-8.78v-20.54h-4.83v-10.88h4.83l1.61-9.67h12.49v9.67h10.07v10.88h-10.07v18.53c0,.81.27,1.48.81,2.01.54.54,1.21.81,2.01.81h10.47v10.47h0Z"/>
    <path class="cls-2" d="M51.52,49.35c.39.74-1.78,2.65-3.96,3.79-2.18,1.14-4.26,1.47-4.65.74s1.07-2.26,3.25-3.4,4.97-1.86,5.36-1.12Z"/>
  </g>
</svg>