<?xml version="1.0" encoding="UTF-8"?>
<svg id="Layer_2" data-name="Layer 2" xmlns="http://www.w3.org/2000/svg" viewBox="0 0 2315.99 310">
  <defs>
    <style>
      .cls-1 {
        fill: #fff;
        stroke-width: 0px;
      }
    </style>
  </defs>
  <g id="Layer_1-2" data-name="Layer 1">
    <g>
      <g>
        <polygon class="cls-1" points="174.76 147.46 199.87 116.83 234.16 166.81 186.27 167.16 174.76 147.46"/>
        <path class="cls-1" d="M87.65,249.1L232.36,43l2.98-.6C224.13,33.17,178-2.57,110.49.15,52.14,2.49,12.92,32.16.48,42.4c1.86,29.86-5.75,79.35,7.83,133.41,4.8,19.14,14.1,32.73,19.2,41.31,29.68,50.05,72.8,78.21,101.25,92.88,14.7-7.86,39.02-23.26,60.9-50.63,22.11-27.64,31.77-55.04,36.17-71.18-8.3,16.01-22.65,38.96-46.44,60.9-18.35,16.94-36.57,27.95-50.63,35.02-18.28-11.79-55.83-36.26-77.66-83.74-29.37-63.9-18.93-124.95-21.96-147.18,15.25-10.62,40.24-24.93,77.18-31.17,60.61-10.26,108.33,11.63,125.21,20.38h-43.4l-22.84,31.59-19.8-31.59h-46.44l44.53,60.53-57.1,79.18,1.15,67h.03ZM157.79,87.98c0-3.94,3.19-7.14,7.14-7.14s7.14,3.19,7.14,7.14c0,2.86-1.7,5.32-4.13,6.46l4.13,20.66h-14.27l2.92-21.38c-1.76-1.3-2.92-3.37-2.92-5.74h-.01Z"/>
      </g>
      <g>
        <path class="cls-1" d="M432.12,189.48v2.27c0,5.76-4.67,10.42-10.42,10.42h-90.27v-97.96h90.27c5.76,0,10.42,4.67,10.42,10.42h47.63v-23.52c0-22.07-17.91-39.98-39.98-39.98h-121.25c-21.67,0-39.22,17.57-39.22,39.22v122c0,21.67,17.57,39.22,39.22,39.22h131.08c16.65,0,30.15-13.5,30.15-30.15v-31.98h-47.63v.02Z"/>
        <path class="cls-1" d="M498.65,51.13h52.61v78.92h82.24v47.16h-97.82c-20.46,0-37.04-16.58-37.04-37.04V51.13h.02Z"/>
        <path class="cls-1" d="M645.29,51.13v150.57h-110.07v49.88h129.87c17.79,0,32.21-14.42,32.21-32.21V51.13h-52.01Z"/>
        <path class="cls-1" d="M719.07,51.13v200.47h157.22c22.71,0,41.12-18.4,41.12-41.12v-48.39l-11.49-10.73,11.49-14.35v-44.74c0-22.71-18.4-41.12-41.12-41.12h-157.22v-.02ZM864.21,130.36h-81.64v46.87h81.64v25.11h-93.72v-100.71h93.72v28.73Z"/>
        <rect class="cls-1" x="1000.88" y="129.15" width="110.37" height="48.67"/>
        <path class="cls-1" d="M1123.95,202.32v49.29h-150.12c-20.13,0-36.43-16.32-36.43-36.43v-121.7c0-23.38,18.95-42.33,42.33-42.33h144.22v54.12h-135.15v97.06h135.15v-.02Z"/>
        <rect class="cls-1" x="1773.24" y="129.15" width="110.37" height="48.67"/>
        <polygon class="cls-1" points="2128.27 50.5 2315.99 50.5 2315.99 101.61 2249.92 101.61 2249.92 251.87 2193.44 251.87 2193.44 101.61 2128.27 101.61 2128.27 50.5"/>
        <path class="cls-1" d="M1896.31,202.32v49.29h-150.12c-20.13,0-36.43-16.32-36.43-36.43v-121.7c0-23.38,18.95-42.33,42.33-42.33h144.22v54.12h-135.15v97.06h135.15v-.02Z"/>
        <path class="cls-1" d="M1144.82,51.13h158.43c21.03,0,38.11,17.05,38.11,38.11v53.81c0,19.21-15.56,34.77-34.77,34.77h-4.24l39.01,73.78h-55.33l-42.02-73.78h-36.29v-48.67h80.13v-27.52h-92.52v149.98h-50.5V51.13h-.02Z"/>
        <polygon class="cls-1" points="2113.98 253.5 2052.2 253.5 2014.21 194.46 1975.02 253.5 1911.14 253.5 1980.8 150.95 1911.14 50.5 1975.02 50.5 2012.56 110.72 2052.8 50.5 2113.98 50.5 2045.49 151.38 2113.98 253.5"/>
        <path class="cls-1" d="M1691.42,253.35h-7.48c-25.73,0-50.26-10.86-67.55-29.91l-77.13-84.95.9,114.86h-55.39V51.16h18.62c23.39,0,45.58,10.34,60.63,28.26l70.88,84.4.23-112.66h56.3v202.19Z"/>
      </g>
    </g>
  </g>
</svg>