<?xml version="1.0" encoding="UTF-8"?>
<svg id="Layer_2" data-name="Layer 2" xmlns="http://www.w3.org/2000/svg" viewBox="0 0 32.88 35.06">
  <defs>
    <style>
      .cls-1 {
        fill: #afc097;
        fill-rule: evenodd;
        stroke-width: 0px;
      }
    </style>
  </defs>
  <g id="Layer_1-2" data-name="Layer 1">
    <g id="Layer_1-3" data-name="Layer_1">
      <g>
        <path class="cls-1" d="M7.15,24.87c-.27,0-.45-.27-.39-.51l2.03-8.14s1.54-4.01,5.51-2.9c.51.14.31.95-.23.8-3.14-.88-4.38,2.06-4.5,2.36l-2.01,8.08c-.04.18-.23.31-.41.31Z"/>
        <path class="cls-1" d="M25.73,24.87c-.18,0-.35-.12-.39-.31l-2.03-8.08c-.1-.29-1.34-3.21-4.42-2.38-.53.12-.74-.66-.21-.8,3.91-1.03,5.38,2.88,5.41,2.92l2.06,8.14c.04.25-.12.51-.41.51Z"/>
        <path class="cls-1" d="M16.5,13.36h-.02c-2.28-.16-4.03-3.7-4.11-5.24-.31-.53-1.52-2.86-.74-4.15.14-.35,1.77-3.68,4.85-3.97h.06c3.06.29,4.69,3.62,4.85,3.97.76,1.29-.45,3.62-.76,4.15-.08,1.54-1.83,5.08-4.09,5.24h-.04ZM16.5.82c-2.67.27-4.13,3.51-4.17,3.56-.62,1.05.86,3.35.86,3.64,0,1.19,1.58,4.38,3.31,4.52,1.75-.14,3.33-3.33,3.33-4.52,0-.35,1.48-2.43.82-3.7-.02-.02-1.5-3.23-4.15-3.49Z"/>
        <path class="cls-1" d="M12.78,8.43c-.29,0-.53-.29-.35-.64.64-1.27.99-2.34.9-2.82-.06-.39.43-.64.7-.37.04.04.88.86,2.47.88.53,0,.53.84,0,.82-1.07-.02-1.87-.35-2.38-.64-.16.86-.58,1.71-.97,2.53-.08.14-.23.23-.37.23Z"/>
        <path class="cls-1" d="M20.22,8.43c-.18,0-.29-.1-.37-.27-.39-.76-.8-1.71-.97-2.49-.47.27-1.36.64-2.38.64-.53,0-.53-.8,0-.82,2.2-.04,2.38-1.23,2.94-.95.51.27-.27.58,1.15,3.29.14.27-.06.6-.37.6Z"/>
        <path class="cls-1" d="M16.5,17.33c-.12,0-.25-.06-.33-.16l-2.28-3.04c-.16-.23-.08-2.28-.08-2.69,0-.53.82-.53.82,0v2.3l2.2,2.94c.21.27,0,.66-.33.66Z"/>
        <path class="cls-1" d="M16.5,17.33c-.33,0-.53-.39-.33-.66l2.2-2.92v-2.32c0-.53.82-.53.82,0,0,.41.08,2.47-.08,2.69l-2.28,3.04c-.08.1-.21.16-.33.16Z"/>
        <path class="cls-1" d="M16.5,22.36c-.37,0-.53-.45-.29-.7l2.61-2.61v-2.32c0-.14.06-.29.21-.35l1.23-.72v-2.06c0-.53.82-.53.82,0v2.28c0,.16-.08.29-.21.37l-1.23.72v2.26c0,.1-.06.21-.12.29l-2.73,2.71c-.08.08-.18.12-.29.12Z"/>
        <path class="cls-1" d="M16.5,24.87c-.23,0-.41-.18-.41-.41v-7.54c0-.53.82-.53.82,0v7.54c0,.23-.18.41-.41.41Z"/>
        <path class="cls-1" d="M16.5,22.36c-.1,0-.21-.04-.29-.12l-2.71-2.71c-.08-.08-.12-.18-.12-.29v-2.26l-1.23-.72c-.14-.08-.21-.21-.21-.35v-2.3c0-.53.82-.53.82,0v2.06l1.23.72c.12.06.21.21.21.35v2.32l2.59,2.61c.27.25.08.7-.29.7Z"/>
        <path class="cls-1" d="M31.73,28.38H1.17c-.64,0-1.17-.51-1.17-1.15v-2.03c0-.64.53-1.15,1.17-1.15h30.56c.64,0,1.15.51,1.15,1.15v2.03c0,.64-.51,1.15-1.15,1.15ZM1.17,24.87c-.18,0-.35.14-.35.33v2.03c0,.18.16.33.35.33h30.56c.18,0,.33-.14.33-.33v-2.03c0-.18-.14-.33-.33-.33H1.17Z"/>
        <path class="cls-1" d="M30.52,35.06H2.49c-.23,0-.41-.18-.41-.41v-6.68c0-.53.82-.53.82,0v6.27h27.21v-6.27c0-.53.82-.53.82,0v6.68c0,.23-.18.41-.41.41Z"/>
        <path class="cls-1" d="M7.11,24.87c-.16,0-.33-.1-.39-.27-.86-2.22-4.56-13.71,3.62-14.96h3.04c.53,0,.53.82,0,.82h-2.96c-1.62.23-2.84.97-3.56,2.2-2.32,3.93.6,11.57.64,11.65.1.27-.1.55-.39.55ZM25.79,24.87c-.29,0-.49-.29-.39-.55.04-.08,2.94-7.73.64-11.65-.74-1.23-1.93-1.97-3.56-2.2h-2.86c-.53,0-.53-.82,0-.82h2.94c8.16,1.15,4.46,12.85,3.6,14.96-.06.16-.21.27-.37.27Z"/>
        <path class="cls-1" d="M25.88,31.43H7.13c-.53,0-.53-.82,0-.82h18.74c.53,0,.55.82,0,.82Z"/>
      </g>
    </g>
  </g>
</svg>