<?xml version="1.0" encoding="UTF-8"?>
<svg id="Layer_2" data-name="Layer 2" xmlns="http://www.w3.org/2000/svg" viewBox="0 0 34.1 34.1">
  <defs>
    <style>
      .cls-1 {
        fill: #afc097;
        stroke-width: 0px;
      }
    </style>
  </defs>
  <g id="Layer_1-2" data-name="Layer 1">
    <path class="cls-1" d="M33.02,21.83h-4.76c0-2.06-1.27-3.52-2.57-4.05,0,0,0,0-.01,0l-5.87-2.24v-1.05c1.13-.84,1.87-2.19,1.87-3.71v-.02h.32c1.11,0,2.02-.91,2.02-2.02,0-.83-.5-1.55-1.24-1.86v-3.17c0-1.08-.94-1.88-1.9-1.8-.13,0-.27-.06-.3-.2-.22-1.15-.94-1.7-2.2-1.7h-1.01c-.28,0-.5.22-.5.5s.22.5.5.5h1.01c.97,0,1.13.42,1.22.9.12.62.71,1.06,1.36,1.01.39-.03.83.31.83.8v3.33c0,.57-1.29.26-1.29-.71,0-.27-.18-.5-.44-.56s-.52.05-.65.29c-.42.79-1.23,1.28-2.12,1.28h-4.97c-.4,0-.73-.32-.73-.73v-3.19c0-1.33,1.08-2.41,2.41-2.41h1.03c.28,0,.5-.22.5-.5S15.3,0,15.03,0h-1.03C12.12,0,10.59,1.53,10.59,3.41v3.19c0,.21.04.42.11.61-.44.38-.71.94-.71,1.53,0,1.11.91,2.02,2.02,2.02h.32v.02c0,1.48.69,2.84,1.87,3.7v1.04l-5.78,2.26s0,0,0,0c-1.37.56-2.57,2.07-2.57,4.05H1.08c-.59,0-1.08.48-1.08,1.08v1.78c0,.59.48,1.08,1.08,1.08h.34v7.25c0,.59.48,1.08,1.08,1.08h29.09c.59,0,1.08-.48,1.08-1.08v-2.42c0-.28-.22-.5-.5-.5s-.5.22-.5.5v2.42s-.04.08-.08.08H2.5s-.08-.04-.08-.08v-7.25h29.25v2.5c0,.28.22.5.5.5s.5-.22.5-.5v-2.5h.34c.59,0,1.08-.48,1.08-1.08v-1.78c0-.59-.48-1.08-1.08-1.08h0ZM27.26,21.83h-6.41l.71-4.56,3.76,1.44c.8.33,1.94,1.38,1.94,3.13h0ZM18.8,21.83l-.34-1.92.34-.75c.28.05.55-.03.75-.2l.84-.7-.55,3.57h-1.03ZM14.26,21.83l-.54-3.49.77.63c.2.17.47.25.75.2l.34.75-.34,1.92h-.97ZM17.46,17.68c.03.06.05.08.55.82l-.39.85h-1.21l-.39-.85c.47-.69.52-.77.55-.82h.89ZM19.33,16.42c.07.03.06.03,1.17.45l-1.52,1.28-.61-.91.97-.82h0ZM15.06,18.15l-1.56-1.28c.26-.1.9-.35,1.17-.46l1,.83c-.48.71-.35.52-.61.91h0ZM16.51,20.35h1.01l.26,1.49h-1.54l.26-1.49h0ZM22,9.76h-.32v-1.45c.3-.05.6-.21.81-.47.32.17.53.51.53.89,0,.56-.46,1.02-1.02,1.02ZM12.01,9.76c-.56,0-1.02-.46-1.02-1.02,0-.28.12-.55.32-.74.28.2.63.32,1.02.32v1.43h-.32ZM13.33,10.78c0-2.58,0-2.07,0-2.45h3.95c.91,0,1.8-.37,2.46-1.04.21.39.54.69.95.87v2.63c0,1.99-1.62,3.62-3.62,3.62-2.33,0-3.74-1.83-3.74-3.62h0ZM17.07,15.39c.59,0,1.2-.12,1.75-.34v.5l-1.14.97c-.06.05-.11.1-.15.16h-1.02c-.04-.06-.09-.11-.15-.16l-1.17-.97v-.51c.58.23,1.21.36,1.87.36h0ZM6.95,20.89c.31-1.15,1.2-1.91,1.83-2.18l3.76-1.47.71,4.59h-6.41c0-.34.02-.62.11-.95h0ZM33.1,24.69s-.04.08-.08.08H1.08s-.08-.04-.08-.08v-1.78s.04-.08.08-.08h31.94s.08.04.08.08v1.78h0Z"/>
  </g>
</svg>