<?xml version="1.0" encoding="UTF-8"?>
<svg id="Layer_2" data-name="Layer 2" xmlns="http://www.w3.org/2000/svg" viewBox="0 0 34.08 34.11">
  <defs>
    <style>
      .cls-1 {
        fill: #afc097;
        stroke-width: 0px;
      }
    </style>
  </defs>
  <g id="Layer_1-2" data-name="Layer 1">
    <g id="Layer_9_copy_6" data-name="Layer 9 copy 6">
      <path class="cls-1" d="M34.08,31.12c-.14-1.45-1.52-5.6-1.52-5.6.09-.49.67-3.84.73-4.33,0-1.1-1.47-1.93-3.43-1.93-.26,0-.53.01-.79.05-.08-.2-.18-.39-.29-.57l-2.16-3.06.54-8.16c.19-2.86-1.97-5.33-4.82-5.52-.11,0-.23-.01-.35-.01h-.91c-1.7-2.23-4.87-2.66-7.1-.97-.37.28-.69.6-.97.97h-.9c-2.86,0-5.19,2.32-5.19,5.18,0,.11,0,.24.01.35l.54,8.16-2.16,3.05c-.37.52-.54,1.15-.52,1.78h-1.5c-.25,0-.47.16-.53.41L.02,31.12c-.04.17,0,.35.1.49l1.83,2.29c.11.13.26.21.43.21h29.32c.16,0,.32-.08.43-.21l1.83-2.29c.09-.11.13-.37.11-.49h0ZM29.87,20.37c1.4,0,2.26.5,2.33.8-.58,1.17-4.07,1.17-4.65,0,.06-.3.92-.8,2.32-.8ZM31.91,22.77l-.37,2.22v.09c0,.39-.71.83-1.65.83s-1.65-.44-1.65-.83v-.09l-.37-2.22c1.32.47,2.77.47,4.09,0h-.05ZM27.88,19.39c.04.06.07.12.11.19-.94.34-1.54.93-1.54,1.62,0,.22.19,1.13.23,1.36l-2.2,1.99c-.31.29-.8.26-1.09-.04-.13-.14-.2-.31-.2-.5,0-.21.08-.43.23-.58l2.33-2.33c.2-.19.22-.52.04-.73l-3.38-4.29c-.19-.24-.54-.27-.78-.08-.13.1-.2.26-.2.42v4.13h-2.25l1.47-8.06h.97c.85,0,1.66.41,2.15,1.1l4.1,5.81ZM24.54,20.53h-2v-2.53l2,2.53ZM14.56,12.47h.33l1.57,2-.85,3.81-1.05-5.81ZM17.04,13.44l-.77-.98h1.53l-.77.98ZM17.04,16.89l.8,3.64h-1.6l.79-3.64ZM17.63,14.46l1.57-2h.33l-1.06,5.83-.84-3.82ZM17.04,1.12c2.2,0,3.99,1.78,3.99,3.98s-1.78,3.99-3.98,3.99-3.99-1.78-3.99-3.98h0c0-2.2,1.78-3.99,3.98-3.99ZM8.02,7.46c-.15-2.25,1.56-4.2,3.82-4.35.09,0,.18,0,.26,0h.27c-1.1,2.58.09,5.56,2.67,6.67s5.56-.09,6.67-2.67c.54-1.27.54-2.72,0-4h.27c2.26,0,4.09,1.83,4.09,4.09,0,.09,0,.18,0,.26l-.45,6.81-.94-1.32c-.7-.99-1.84-1.58-3.05-1.58h-9.16c-1.22,0-2.36.59-3.05,1.58l-.94,1.32-.46-6.81ZM6.21,19.39l4.09-5.81c.5-.69,1.3-1.1,2.15-1.1h.97l1.47,8.06h-2.25v-4.14c0-.3-.25-.55-.55-.54-.16,0-.33.08-.43.21l-3.38,4.29c-.18.22-.16.54.04.73l2.36,2.32c.16.15.24.37.23.58,0,.42-.37.76-.79.75-.19,0-.37-.08-.5-.2l-3.15-2.83c-.67-.59-.77-1.58-.26-2.31h0ZM9.54,20.53l2-2.53v2.53h-2ZM31.43,32.99H2.64l-.95-1.19h30.7l-.96,1.19ZM1.28,30.72l2.46-9.08h1.35c.16.34.39.64.67.89l3.15,2.84c.77.69,1.96.62,2.64-.16.66-.74.62-1.87-.08-2.57l-1.02-1.01h13.19l-1.02,1.01c-.73.73-.73,1.92,0,2.65.7.7,1.83.74,2.57.08l1.69-1.52.24,1.29c.04,1.06,1.24,1.88,2.76,1.88.64.01,1.27-.15,1.83-.47l1.1,4.18H1.28ZM23.41,26.62l-2.13-.73-.85-2.83c-.07-.23-.29-.39-.53-.39h-5.72c-.24,0-.46.16-.53.39l-1.73,5.73c-.09.29.09.6.38.69.05.01.1.02.15.02h9.16c.31,0,.55-.25.55-.56,0-.05,0-.1-.02-.15l-.48-1.6,1.39.47c.06.02.11.03.18.03.3,0,.55-.24.55-.54,0-.24-.15-.44-.37-.52h0ZM20.88,28.4h-7.7l1.39-4.62h4.92l.51,1.68-1.3-.44c-.29-.1-.6.05-.7.34s.05.6.34.7l2.04.69.51,1.65Z"/>
    </g>
  </g>
</svg>