<?xml version="1.0" encoding="UTF-8"?>
<svg id="Layer_2" data-name="Layer 2" xmlns="http://www.w3.org/2000/svg" viewBox="0 0 35.24 34.09">
  <defs>
    <style>
      .cls-1 {
        fill: #afc097;
        stroke-width: 0px;
      }
    </style>
  </defs>
  <g id="Layer_1-2" data-name="Layer 1">
    <g id="Chief_Data_Officer" data-name="Chief Data Officer">
      <g>
        <path class="cls-1" d="M34.95,34.09c-.16,0-.29-.13-.29-.29v-2.6c0-.43-.17-.58-1.16-.58H1.73c-.64,0-1.16.52-1.16,1.16v2.02c0,.16-.13.29-.29.29s-.29-.13-.29-.29v-2.02c0-.96.78-1.73,1.73-1.73h31.78c.61,0,1.73,0,1.73,1.16v2.6c0,.16-.13.29-.29.29Z"/>
        <path class="cls-1" d="M3.9,29.47c-.16,0-.29-.13-.29-.29v-7.54c0-1.85,1.1-3.52,2.8-4.25l5.46-2.34c.15-.06.32,0,.38.15.06.15,0,.32-.15.38l-5.46,2.34c-1.49.64-2.45,2.1-2.45,3.72v7.54c0,.16-.13.29-.29.29Z"/>
        <path class="cls-1" d="M14.3,29.47c-.08,0-.17-.04-.22-.1l-1.44-1.7c-.05-.06-.08-.14-.07-.22l.87-8.7c.01-.15.14-.26.29-.26h1.16c.15,0,.27.11.29.26l.87,8.7c0,.08-.02.16-.07.22l-1.44,1.7c-.06.06-.14.1-.22.1ZM13.16,27.39l1.14,1.35,1.14-1.35-.83-8.32h-.63l-.83,8.32Z"/>
        <path class="cls-1" d="M8.53,29.47c-.16,0-.29-.13-.29-.29v-5.78c0-.16.13-.29.29-.29s.29.13.29.29v5.78c0,.16-.13.29-.29.29Z"/>
        <path class="cls-1" d="M10.8,19.07s-.08,0-.12-.03c-.1-.04-.16-.13-.17-.24l-.24-2.85c-.01-.12.06-.24.17-.29l1.43-.61c.13-.05.28-.01.35.11l1.16,1.73c.09.13.06.3-.07.39l-2.35,1.73s-.11.06-.17.06ZM10.86,16.11l.18,2.13,1.71-1.26-.87-1.3-1.02.44Z"/>
        <path class="cls-1" d="M17.8,19.07c-.06,0-.12-.02-.17-.06l-2.34-1.73c-.12-.09-.15-.26-.07-.39l1.16-1.73c.08-.12.23-.16.35-.11l1.43.61c.11.05.18.17.17.29l-.25,2.85c0,.1-.07.2-.17.24-.04.02-.08.03-.12.03ZM15.85,16.98l1.71,1.26.18-2.13-1.02-.44-.87,1.3Z"/>
        <path class="cls-1" d="M14.88,19.07h-1.16c-.48,0-.87-.39-.87-.87v-.58c0-.48.39-.87.87-.87h1.16c.48,0,.87.39.87.87v.58c0,.48-.39.87-.87.87ZM13.73,17.33c-.16,0-.29.13-.29.29v.58c0,.16.13.29.29.29h1.16c.16,0,.29-.13.29-.29v-.58c0-.16-.13-.29-.29-.29h-1.16Z"/>
        <path class="cls-1" d="M14.3,15.02c-3.05,0-5.73-2.29-6.45-5.49-.91-.05-1.64-.81-1.64-1.73s.73-1.68,1.64-1.73c.72-3.2,3.4-5.49,6.45-5.49s5.73,2.29,6.45,5.49c.91.05,1.64.81,1.64,1.73s-.73,1.68-1.64,1.73c-.72,3.2-3.4,5.49-6.45,5.49ZM8.09,8.94c.14,0,.26.1.28.23.59,3.05,3.08,5.27,5.93,5.27s5.35-2.22,5.93-5.27c.03-.15.16-.24.31-.23,0,0,.05,0,.06,0,.71,0,1.21-.51,1.21-1.15,0-.64-.52-1.16-1.16-1.16-.02,0-.04,0-.05,0-.15.02-.34-.08-.37-.23-.59-3.05-3.08-5.27-5.93-5.27s-5.35,2.22-5.93,5.27c-.03.15-.17.24-.31.23h-.11c-.64-.01-1.16.51-1.16,1.14s.52,1.16,1.16,1.16c0,0,.11-.01.11-.01,0,0,.02,0,.03,0Z"/>
        <path class="cls-1" d="M13.29,17.54s-.01,0-.02,0c-.09,0-.17-.05-.22-.13l-1.3-1.94s-.05-.1-.05-.16v-1.06c0-.1.05-.19.13-.24.08-.05.18-.06.27-.02,1.42.6,2.98.6,4.39,0,.09-.04.19-.03.27.02.08.05.13.14.13.24v1.06c0,.06-.02.11-.05.16l-1.3,1.94c-.05.08-.13.12-.22.13-.08,0-.18-.03-.24-.1-.04-.05-.11-.11-.22-.11h-1.16c-.11,0-.18.07-.22.11-.05.07-.14.1-.22.1ZM13.73,16.76h1.16c.13,0,.25.03.37.08l1.08-1.62v-.55c-1.31.46-2.73.46-4.04,0v.55l1.08,1.62c.11-.05.24-.08.37-.08Z"/>
        <path class="cls-1" d="M24.35,20.22c-.11,0-.22-.07-.27-.18-.41-.97-1.17-1.72-2.12-2.13l-5.46-2.34c-.15-.06-.21-.23-.15-.38.06-.15.23-.21.38-.15l5.46,2.34c1.09.47,1.95,1.33,2.42,2.43.06.15,0,.32-.15.38-.04.02-.08.02-.11.02Z"/>
        <path class="cls-1" d="M29.9,30.62h-9.82c-.96,0-1.73-.78-1.73-1.73v-6.36c0-.96.78-1.73,1.73-1.73h9.82c.96,0,1.73.78,1.73,1.73v6.36c0,.96-.78,1.73-1.73,1.73ZM20.08,21.38c-.64,0-1.16.52-1.16,1.16v6.36c0,.64.52,1.16,1.16,1.16h9.82c.64,0,1.16-.52,1.16-1.16v-6.36c0-.64-.52-1.16-1.16-1.16h-9.82Z"/>
        <path class="cls-1" d="M29.75,17.04h-4.62c-.48,0-.87-.39-.87-.87v-1.16c0-.48.39-.87.87-.87h4.62c.48,0,.87.39.87.87v1.16c0,.48-.39.87-.87.87ZM25.13,14.73c-.16,0-.29.13-.29.29v1.16c0,.16.13.29.29.29h4.62c.16,0,.29-.13.29-.29v-1.16c0-.16-.13-.29-.29-.29h-4.62Z"/>
        <path class="cls-1" d="M29.75,14.73h-4.62c-.48,0-.87-.39-.87-.87v-1.16c0-.48.39-.87.87-.87h4.62c.48,0,.87.39.87.87v1.16c0,.48-.39.87-.87.87ZM25.13,12.42c-.16,0-.29.13-.29.29v1.16c0,.16.13.29.29.29h4.62c.16,0,.29-.13.29-.29v-1.16c0-.16-.13-.29-.29-.29h-4.62Z"/>
        <path class="cls-1" d="M29.75,12.42h-4.62c-.48,0-.87-.39-.87-.87v-1.16c0-.48.39-.87.87-.87h4.62c.48,0,.87.39.87.87v1.16c0,.48-.39.87-.87.87ZM25.13,10.11c-.16,0-.29.13-.29.29v1.16c0,.16.13.29.29.29h4.62c.16,0,.29-.13.29-.29v-1.16c0-.16-.13-.29-.29-.29h-4.62Z"/>
        <path class="cls-1" d="M12,9.77c-.06,0-.13,0-.19-.01l-.44-.05c-.72-.08-1.31-.6-1.49-1.3l-.33-1.34c-.02-.09,0-.18.05-.25s.14-.11.23-.11h3.24c.28,0,.54.13.7.36.17.23.21.51.12.78l-.24.73c-.24.71-.91,1.18-1.65,1.18ZM11.87,9.19c.53.05,1.05-.27,1.22-.78l.24-.73c.03-.09.02-.18-.04-.26s-.14-.12-.23-.12h-2.87l.24.98c.12.47.52.82.99.87l.44.05Z"/>
        <path class="cls-1" d="M16.61,9.77c-.74,0-1.41-.47-1.65-1.18l-.24-.73c-.09-.27-.05-.55.12-.78.16-.23.42-.36.7-.36h3.24c.09,0,.17.04.23.11s.07.16.05.25l-.33,1.34c-.18.7-.77,1.22-1.49,1.3l-.44.05c-.06,0-.13.01-.19.01ZM15.54,7.29c-.09,0-.18.04-.23.12s-.07.17-.04.26l.24.73c.17.51.69.85,1.22.78l.44-.05c.48-.05.88-.4.99-.87l.24-.98h-2.87Z"/>
        <path class="cls-1" d="M14.74,7.87h-.87c-.16,0-.29-.13-.29-.29s.13-.29.29-.29h.87c.16,0,.29.13.29.29s-.13.29-.29.29Z"/>
        <path class="cls-1" d="M33.22,1.73h-2.31c-.16,0-.29-.13-.29-.29s.13-.29.29-.29h2.31c.16,0,.29.13.29.29s-.13.29-.29.29Z"/>
        <path class="cls-1" d="M32.07,2.89c-.16,0-.29-.13-.29-.29V.29c0-.16.13-.29.29-.29s.29.13.29.29v2.31c0,.16-.13.29-.29.29Z"/>
        <path class="cls-1" d="M29.75,5.49h-2.31c-.16,0-.29-.13-.29-.29s.13-.29.29-.29h2.31c.16,0,.29.13.29.29s-.13.29-.29.29Z"/>
        <path class="cls-1" d="M28.6,6.64c-.16,0-.29-.13-.29-.29v-2.31c0-.16.13-.29.29-.29s.29.13.29.29v2.31c0,.16-.13.29-.29.29Z"/>
        <path class="cls-1" d="M24.99,27.15c-.8,0-1.44-.65-1.44-1.44s.65-1.44,1.44-1.44,1.44.65,1.44,1.44-.65,1.44-1.44,1.44ZM24.99,24.84c-.48,0-.87.39-.87.87s.39.87.87.87.87-.39.87-.87-.39-.87-.87-.87Z"/>
      </g>
    </g>
  </g>
</svg>