<?xml version="1.0" encoding="UTF-8"?>
<svg id="Layer_2" data-name="Layer 2" xmlns="http://www.w3.org/2000/svg" viewBox="0 0 38.28 34.1">
  <defs>
    <style>
      .cls-1 {
        fill: #afc097;
        fill-rule: evenodd;
        stroke-width: 0px;
      }
    </style>
  </defs>
  <g id="Layer_1-2" data-name="Layer 1">
    <g id="Layer_1-3" data-name="Layer_1">
      <g id="_241368840" data-name=" 241368840">
        <g>
          <g>
            <g>
              <g id="_241365216" data-name=" 241365216">
                <path class="cls-1" d="M37.83,21.98c-2.69,0-5.31-1.2-6.06-1.64-.75.45-3.29,1.64-6.06,1.64-.22,0-.45-.22-.45-.45s.22-.45.45-.45c2.92,0,5.76-1.57,5.83-1.64s.3-.07.45,0c0,.07,2.92,1.64,5.83,1.64.22,0,.45.22.45.45s-.22.45-.45.45Z"/>
              </g>
              <g id="_241369392" data-name=" 241369392">
                <path class="cls-1" d="M31.78,34.1h-.07c-2.02-.52-3.81-1.79-5.08-3.66-.9-1.42-1.27-2.62-1.27-2.69-.07,0-.07-.07-.07-.15v-6.06c0-.22.22-.45.45-.45.3,0,.45.22.45.45v6.06c.22.45,1.57,4.49,5.61,5.61,4.04-1.12,5.46-5.08,5.61-5.61v-6.06c0-.22.22-.45.45-.45s.45.22.45.45v6.21c0,.07-.37,1.27-1.35,2.69-1.27,1.87-2.99,3.14-5.01,3.66h-.15Z"/>
              </g>
            </g>
            <g>
              <g id="_241369464" data-name=" 241369464">
                <path class="cls-1" d="M36.19,23.4c-1.94,0-3.81-.82-4.41-1.12-.6.3-2.47,1.12-4.41,1.12-.22,0-.45-.15-.45-.45,0-.22.22-.45.45-.45,2.09,0,4.11-1.12,4.19-1.12.15-.07.3-.07.45,0,0,0,2.09,1.12,4.19,1.12.22,0,.45.22.45.45,0,.3-.22.45-.45.45Z"/>
              </g>
              <g id="_241369512" data-name=" 241369512">
                <path class="cls-1" d="M31.78,32.23h-.07c-3.66-.97-4.71-4.56-4.71-4.71,0-.07-.07-.07-.07-.15v-4.41c0-.22.22-.45.45-.45.3,0,.45.22.45.45v4.34c.15.45,1.2,3.22,3.96,4.04,2.84-.82,3.81-3.59,3.96-4.04v-4.34c0-.22.15-.45.45-.45.22,0,.45.22.45.45v4.56c-.07.15-1.12,3.74-4.71,4.71h-.15Z"/>
              </g>
            </g>
          </g>
          <g>
            <g id="_241368816" data-name=" 241368816">
              <path class="cls-1" d="M17.35,11.37H6.73c-.15,0-.37-.15-.37-.3l-.82-3.22c-.07-.07,0-.22.07-.37.07-.07.22-.15.37-.15h12.19c.07,0,.22.07.3.15.07.15.15.3.07.37l-.75,3.22c-.07.15-.22.3-.45.3ZM7.1,10.47h9.87l.6-2.24H6.51l.6,2.24Z"/>
            </g>
            <g id="_241370040" data-name=" 241370040">
              <path class="cls-1" d="M17.35,8.22H6.65c-.22,0-.45-.22-.45-.45v-3.66c0-2.32,1.87-4.11,4.11-4.11h3.36c2.24,0,4.11,1.79,4.11,4.11v3.66c0,.22-.15.45-.45.45ZM7.1,7.33h9.79v-3.22c0-1.79-1.42-3.22-3.22-3.22h-3.36c-1.72,0-3.22,1.42-3.22,3.22v3.22Z"/>
            </g>
            <g id="_241370112" data-name=" 241370112">
              <path class="cls-1" d="M12.04,6.13c-1.12,0-2.09-.9-2.09-2.02s.97-2.09,2.09-2.09,2.02.97,2.02,2.09-.9,2.02-2.02,2.02ZM12.04,2.92c-.67,0-1.2.52-1.2,1.2,0,.6.52,1.12,1.2,1.12.6,0,1.12-.52,1.12-1.12,0-.67-.52-1.2-1.12-1.2Z"/>
            </g>
            <g id="_241370136" data-name=" 241370136">
              <path class="cls-1" d="M23.55,32.23H.45c-.22,0-.45-.22-.45-.45v-7.85c0-3.22,2.69-5.91,5.91-5.91h3.89c.3,0,.45.22.45.45s-.15.45-.45.45h-3.89c-2.77,0-5.01,2.24-5.01,5.01v7.4h22.21v-7.4c0-2.77-2.24-5.01-5.01-5.01h-3.89c-.22,0-.45-.22-.45-.45s.22-.45.45-.45h3.89c3.29,0,5.91,2.69,5.91,5.91v7.85c0,.22-.15.45-.45.45Z"/>
            </g>
            <g id="_241370208" data-name=" 241370208">
              <path class="cls-1" d="M14.21,18.92c-.22,0-.45-.22-.45-.45v-2.39c0-.3.22-.45.45-.45s.45.15.45.45v2.39c0,.22-.22.45-.45.45ZM9.79,18.92c-.22,0-.45-.22-.45-.45v-2.47c0-.22.22-.45.45-.45.3,0,.45.22.45.45v2.47c0,.22-.15.45-.45.45Z"/>
            </g>
            <g id="_241369824" data-name=" 241369824">
              <path class="cls-1" d="M12.04,16.97c-3.14,0-5.76-2.62-5.76-5.76v-.3c0-.22.22-.45.45-.45h10.62c.22,0,.45.22.45.45v.3c0,3.14-2.62,5.76-5.76,5.76ZM7.18,11.37c.07,2.62,2.24,4.71,4.86,4.71s4.79-2.09,4.86-4.71H7.18Z"/>
            </g>
            <g id="_241370232" data-name=" 241370232">
              <path class="cls-1" d="M18.09,29.68c-.15,0-.22-.07-.3-.15l-2.02-1.87c-.07-.07-.15-.22-.15-.3v-2.77c0-.22.22-.45.45-.45h4.11c.3,0,.45.22.45.45v2.77c0,.07,0,.22-.15.3l-2.09,1.87c-.07.07-.22.15-.3.15ZM16.52,27.14l1.57,1.5,1.64-1.5v-2.09h-3.22v2.09Z"/>
            </g>
            <g id="_241370088" data-name=" 241370088">
              <path class="cls-1" d="M10.69,21.98c-.07,0-.22-.07-.3-.15l-3.44-2.99c-.15-.15-.22-.37-.15-.52s.22-.3.45-.3h2.54c.07,0,.15,0,.22.07l2.17,1.05c.15.07.22.15.22.3.07.07,0,.22-.07.37l-1.27,1.94c-.07.07-.15.15-.3.22h-.07ZM8.45,18.92l2.17,1.94.75-1.12-1.64-.82h-1.27Z"/>
            </g>
            <g id="_241369872" data-name=" 241369872">
              <path class="cls-1" d="M13.31,21.98h-.07c-.07-.07-.22-.15-.22-.22l-1.42-1.79c-.07-.07-.15-.15-.15-.3-.07-.22,0-.52.22-.6l2.39-1.05h2.09c.15,0,.37.07.37.3.07.15.07.3-.07.45l-2.77,3.07c-.07.07-.22.15-.37.15ZM12.49,19.66l.9,1.12,1.72-1.87h-.82l-1.79.75Z"/>
            </g>
            <g id="_241370304" data-name=" 241370304">
              <path class="cls-1" d="M13.31,24.9c-.22,0-.45-.22-.45-.45v-2.99c0-.22.22-.45.45-.45s.45.22.45.45v2.99c0,.22-.22.45-.45.45ZM10.69,24.9c-.22,0-.45-.22-.45-.45v-2.99c0-.22.22-.45.45-.45.3,0,.45.22.45.45v2.99c0,.22-.15.45-.45.45Z"/>
            </g>
            <g id="_241369584" data-name=" 241369584">
              <path class="cls-1" d="M12.04,25.57h-.22l-9.65-5.38c-.22-.07-.3-.37-.22-.6.15-.22.37-.3.6-.15l9.5,5.16,9.42-5.16c.22-.15.52-.07.6.15.15.22.07.52-.15.6l-9.65,5.38h-.22Z"/>
            </g>
          </g>
          <g id="_241369752" data-name=" 241369752">
            <path class="cls-1" d="M31.03,28.49c-.07,0-.15,0-.22-.07l-1.35-.75c-.22-.15-.3-.45-.22-.67.15-.15.45-.22.67-.15l1.05.67,2.62-2.62c.22-.22.52-.22.67,0,.15.15.15.45,0,.6l-2.84,2.84c-.15.15-.22.15-.37.15Z"/>
          </g>
        </g>
      </g>
    </g>
  </g>
</svg>