<?xml version="1.0" encoding="UTF-8"?>
<svg id="Layer_2" data-name="Layer 2" xmlns="http://www.w3.org/2000/svg" viewBox="0 0 30.68 34.09">
  <defs>
    <style>
      .cls-1 {
        fill: #afc097;
        stroke-width: 0px;
      }
    </style>
  </defs>
  <g id="Layer_1-2" data-name="Layer 1">
    <g>
      <path class="cls-1" d="M29.17,18.34l-1.9-.88s-.02-.09-.03-.14c1.99-.7,3.43-2.59,3.43-4.82,0-2.82-2.29-5.11-5.11-5.11-.39,0-.77.04-1.14.13,0-.04,0-.09,0-.13,0-2.19-1.78-3.98-3.98-3.98-.7,0-1.39.19-1.99.53-1.27-2.42-3.76-3.94-6.53-3.94-4.07,0-7.39,3.31-7.39,7.39v.03c-2.55.28-4.54,2.45-4.54,5.08,0,2.23,1.44,4.13,3.43,4.82-.01.05-.02.09-.03.14l-1.9.88c-.19.09-.31.27-.33.48-.02.35-.04.71-.04,1.07s.02.71.04,1.07c.01.21.14.39.33.48l1.89.88c.1.51.23,1,.39,1.46l-1.2,1.7c-.12.17-.14.39-.05.57.3.63.66,1.25,1.07,1.85.12.17.31.26.52.24l2.08-.19c.33.38.69.73,1.07,1.07l-.19,2.08c-.02.2.07.4.24.52.6.41,1.23.77,1.85,1.07.18.09.4.07.57-.05l1.7-1.2c.47.16.96.29,1.46.39l.88,1.89c.09.19.26.31.47.33.39.03.74.05,1.08.05s.69-.02,1.08-.05c.2-.02.38-.14.47-.33l.88-1.89c.51-.1,1-.23,1.46-.39l1.7,1.2c.17.12.39.14.57.05.62-.3,1.25-.66,1.85-1.07.17-.12.26-.32.24-.52l-.19-2.08c.38-.33.73-.69,1.07-1.07l2.08.19c.2.02.4-.08.52-.24.41-.6.77-1.22,1.07-1.85.09-.19.07-.4-.05-.57l-1.2-1.7c.16-.47.29-.96.39-1.46l1.89-.88c.19-.09.31-.27.33-.48.02-.35.04-.71.04-1.07s-.02-.71-.04-1.07c-.01-.21-.14-.39-.33-.48h0ZM1.14,12.5c0-2.19,1.78-3.98,3.97-3.98h0c.16,0,.32-.05.44-.17.11-.12.17-.28.16-.44-.01-.17-.03-.35-.03-.52,0-3.45,2.8-6.25,6.25-6.25,2.54,0,4.81,1.52,5.78,3.88.07.17.22.29.39.34.18.04.36,0,.5-.12.51-.44,1.17-.68,1.85-.68,1.57,0,2.84,1.27,2.84,2.84,0,.27-.04.54-.12.8-.06.21,0,.44.17.59.17.15.4.18.61.09.51-.23,1.06-.34,1.61-.34,2.19,0,3.98,1.78,3.98,3.98s-1.78,3.98-3.98,3.98h-6.82v-2.04l.97-.97c.11-.11.17-.25.17-.4v-1.24c.66-.24,1.14-.86,1.14-1.6,0-.94-.76-1.7-1.7-1.7s-1.7.76-1.7,1.7c0,.74.48,1.36,1.14,1.6v1.01l-.97.97c-.11.11-.17.25-.17.4v2.27h-1.7v-8.06c.66-.24,1.14-.86,1.14-1.6,0-.94-.76-1.7-1.7-1.7s-1.7.76-1.7,1.7c0,.74.48,1.36,1.14,1.6v8.06h-1.7v-2.27c0-.15-.06-.3-.17-.4l-1.54-1.54v-1.01c.66-.24,1.14-.86,1.14-1.6,0-.94-.76-1.7-1.7-1.7s-1.7.76-1.7,1.7c0,.74.48,1.36,1.14,1.6v1.24c0,.15.06.3.17.4l1.54,1.54v2.04h-6.82c-2.19,0-3.98-1.78-3.98-3.98h0ZM23.29,19.83c0,4.39-3.57,7.95-7.95,7.95s-7.95-3.57-7.95-7.95c0-.75.11-1.49.32-2.22h15.27c.21.72.32,1.46.32,2.22h0ZM14.77,6.82c0-.31.26-.57.57-.57s.57.25.57.57-.26.57-.57.57-.57-.25-.57-.57ZM18.75,10.23c0-.31.26-.57.57-.57s.57.25.57.57-.26.57-.57.57-.57-.25-.57-.57ZM10.23,9.66c0-.31.26-.57.57-.57s.57.25.57.57-.26.57-.57.57-.57-.25-.57-.57ZM28.39,20.54l-1.85.86c-.17.08-.29.23-.32.41-.12.65-.28,1.27-.49,1.85-.06.17-.04.37.07.52l1.17,1.67c-.19.38-.41.76-.65,1.12l-2.03-.19c-.18-.02-.37.06-.49.2-.41.49-.87.94-1.35,1.35-.14.12-.22.3-.2.49l.19,2.03c-.37.24-.75.46-1.12.65l-1.67-1.17c-.15-.11-.35-.13-.52-.07-.58.21-1.2.37-1.85.49-.18.03-.34.15-.41.32l-.86,1.85c-.46.03-.85.03-1.31,0l-.86-1.85c-.08-.17-.23-.29-.41-.32-.65-.12-1.27-.28-1.85-.49-.17-.06-.37-.04-.52.07l-1.67,1.17c-.38-.19-.75-.41-1.12-.65l.19-2.03c.02-.18-.06-.37-.2-.49-.49-.41-.94-.87-1.35-1.35-.12-.14-.3-.22-.49-.2l-2.03.19c-.24-.37-.46-.75-.65-1.12l1.17-1.67c.11-.15.13-.35.07-.52-.21-.58-.37-1.2-.49-1.85-.03-.18-.15-.34-.32-.41l-1.85-.86c-.01-.22-.02-.44-.02-.66s0-.44.02-.66l1.85-.86c.17-.08.29-.23.32-.41.02-.13.05-.25.08-.38.19.02.38.03.57.03h1.41c-.18.72-.27,1.47-.27,2.22,0,5.01,4.08,9.09,9.09,9.09s9.09-4.08,9.09-9.09c0-.75-.09-1.49-.27-2.22h1.41c.19,0,.38-.01.57-.03.03.13.06.25.08.38.03.18.15.34.32.41l1.85.86c.01.22.02.43.02.65s0,.44-.02.66h0Z"/>
      <path class="cls-1" d="M12.5,18.75h1.14v1.14h-1.14v-1.14Z"/>
      <path class="cls-1" d="M14.77,18.75h1.14v1.14h-1.14v-1.14Z"/>
      <path class="cls-1" d="M17.04,18.75h1.14v1.14h-1.14v-1.14Z"/>
    </g>
  </g>
</svg>