<?xml version="1.0" encoding="UTF-8"?>
<svg id="Layer_2" data-name="Layer 2" xmlns="http://www.w3.org/2000/svg" viewBox="0 0 34.09 34.09">
  <defs>
    <style>
      .cls-1 {
        fill: #afc097;
        stroke-width: 0px;
      }
    </style>
  </defs>
  <g id="Layer_1-2" data-name="Layer 1">
    <g id="Layer_9" data-name="Layer 9">
      <g>
        <path class="cls-1" d="M14.91,22.37h0c-1.76,0-3.2,1.43-3.2,3.2s1.43,3.2,3.2,3.2h0c1.76,0,3.2-1.43,3.2-3.2s-1.43-3.2-3.2-3.2ZM12.78,25.56c0-1.18.95-2.13,2.13-2.13s2.13.95,2.13,2.13-.95,2.13-2.13,2.13-2.13-.95-2.13-2.13Z"/>
        <path class="cls-1" d="M17.04,11.18h.53c.29,0,.53-.24.53-.53s-.24-.53-.53-.53h-.53c-.29,0-.53.24-.53.53s.24.53.53.53Z"/>
        <path class="cls-1" d="M12.78,10.12h-.53c-.29,0-.53.24-.53.53s.24.53.53.53h.53c.29,0,.53-.24.53-.53s-.24-.53-.53-.53Z"/>
        <path class="cls-1" d="M34.02,19.44l-4.79-8.52c-.09-.17-.27-.27-.46-.27h0c-.19,0-.37.1-.46.27l-3.42,6.12h-1.05l1.68-2.93c.05-.08.07-.18.07-.27,0-.1-.02-.43-.03-.44-.15-3.16-1.41-6.46-3.79-9.84C19.11-.22,13.9-1.13,10.12,1.51c-.8.56-1.49,1.25-2.05,2.05-2.37,3.38-3.64,6.68-3.79,9.84,0,.02-.03.34-.03.44,0,.1.02.19.07.27l1.68,2.93h-2.2c-.88,0-1.6.72-1.6,1.6,0,.04,0,.07,0,.11l.21,3.16-1.97,4.19C.15,26.72,0,27.4,0,28.1c0,1.25.49,2.45,1.38,3.33l1.79,1.79.02.37c.02.28.25.5.53.5h22.37c.28,0,.51-.22.53-.5l.03-.37,1.79-1.79c.89-.88,1.38-2.08,1.38-3.33,0-.69-.15-1.38-.45-2l-1.97-4.18h0s.11-1.67.11-1.67h6.04c.29,0,.53-.24.53-.53,0-.09-.02-.18-.07-.26h0ZM22.59,17.04h-4.48c1.17-.87,1.94-2.18,2.12-3.63l.37-2.95c2.26.78,3.67,1.97,3.89,3.11,0,.04,0,.09,0,.13l-1.91,3.33ZM10.65,13.28l-.06-.5h2.73c.11,0,.21-.03.3-.09l1.3-.87,1.3.87c.09.06.19.09.3.09h2.73l-.06.5c-.29,2.35-2.44,4.02-4.79,3.73-1.95-.24-3.49-1.78-3.73-3.73ZM19.37,11.72h-2.7l-1.46-.98c-.18-.12-.41-.12-.59,0l-1.46.98h-2.7l-.2-1.56c1.52-.38,3.08-.57,4.65-.57,1.57-.01,3.13.18,4.65.56l-.2,1.57ZM8.94,4.17C11.25.88,15.79.07,19.09,2.38c.7.49,1.3,1.09,1.79,1.79,1.55,2.11,2.67,4.5,3.3,7.04-1.84-1.62-5.29-2.69-9.26-2.69s-7.43,1.07-9.26,2.68c.63-2.54,1.74-4.92,3.29-7.03ZM5.33,13.71s0-.09,0-.14c.22-1.26,1.72-2.39,3.89-3.12l.37,2.95c.18,1.45.95,2.76,2.12,3.63h-4.48l-1.91-3.33ZM2.13,30.67c-.68-.68-1.07-1.61-1.07-2.58,0-.54.12-1.07.35-1.55l1.15-2.45.5,7.51-.93-.93ZM28.41,26.54c.23.49.35,1.01.35,1.55,0,.97-.38,1.89-1.07,2.58l-.93.93.5-7.51,1.15,2.45ZM25.6,33.02H4.22l-.96-14.35c-.02-.29.2-.55.5-.57.01,0,.02,0,.04,0h20.48l-.75,1.34c-.14.26-.05.58.2.72.08.04.17.07.26.07h2.46l-.85,12.78ZM24.9,19.17l3.86-6.9,3.88,6.9h-7.74Z"/>
        <path class="cls-1" d="M28.23,13.85v2.13c0,.29.24.53.53.53s.53-.24.53-.53v-2.13c0-.29-.24-.53-.53-.53s-.53.24-.53.53Z"/>
        <circle class="cls-1" cx="28.76" cy="18.11" r=".53"/>
      </g>
    </g>
  </g>
</svg>