<?xml version="1.0" encoding="UTF-8"?>
<svg id="Layer_2" data-name="Layer 2" xmlns="http://www.w3.org/2000/svg" viewBox="0 0 24.8 34.09">
  <defs>
    <style>
      .cls-1 {
        fill: #afc097;
        stroke-width: 0px;
      }
    </style>
  </defs>
  <g id="Layer_1-2" data-name="Layer 1">
    <g>
      <path class="cls-1" d="M23.05,18.61H1.75l.03-.17c.68-3.05,3.22-5.29,6.33-5.57h.15s0,.13,0,.13c.03,1.2,1.88,2.18,4.13,2.18s4.1-.98,4.13-2.18v-.15s.15.01.15.01c3.11.28,5.65,2.52,6.33,5.57l.04.17ZM2.09,18.34h20.61c-.69-2.8-3.04-4.86-5.91-5.18-.16,1.3-2.04,2.3-4.39,2.3s-4.23-1-4.39-2.3c-2.87.32-5.22,2.38-5.91,5.18Z"/>
      <path class="cls-1" d="M12.4,13.75c-2.75,0-5.09-2.98-5.44-6.93v-.15c-.04-.17-.05-.34-.06-.51,0-.12-.01-.24-.01-.36,0-.3.02-.59.06-.88.41-2.8,2.75-4.92,5.45-4.92s5.04,2.11,5.45,4.92c.04.29.06.59.06.88,0,.12,0,.24-.01.36,0,.17-.03.35-.05.52v.14c-.36,3.95-2.7,6.93-5.45,6.93ZM12.4.27c-2.57,0-4.8,2.01-5.18,4.69-.04.27-.06.56-.06.84,0,.12,0,.23,0,.35,0,.17.03.33.05.49v.16c.35,3.81,2.57,6.68,5.18,6.68s4.83-2.87,5.17-6.68v-.15c.04-.17.05-.33.06-.5,0-.11.01-.23.01-.35,0-.28-.02-.56-.06-.84-.39-2.67-2.61-4.69-5.18-4.69ZM12.4,12.92c-2.41,0-4.47-2.61-4.79-6.06l-.02-.19.19.05c.18.05.36.12.54.21-.11-.84-.29-3.06.72-3.46l.06-.02.05.03s1.54.74,3.26.79c1.71-.05,3.24-.78,3.25-.79l.05-.03.06.02c1.01.4.83,2.62.72,3.45.18-.1.35-.17.54-.21l.19-.05-.02.19c-.32,3.45-2.38,6.06-4.79,6.06ZM7.9,7.04c.36,3.21,2.27,5.61,4.5,5.61s4.13-2.4,4.5-5.61c-.17.06-.35.15-.51.27l-.26.19.05-.32c.14-.83.32-3.03-.45-3.43-.3.14-1.71.74-3.31.79-1.61-.04-3.02-.65-3.32-.79-.74.38-.63,2.39-.45,3.43v.26l-.21-.13c-.17-.12-.34-.21-.51-.27Z"/>
      <path class="cls-1" d="M2.9,33.3c-.22,0-.4.18-.4.4s.18.4.4.4h18.99c.22,0,.4-.18.4-.4s-.18-.4-.4-.4H2.9Z"/>
      <path class="cls-1" d="M1.75,31.1c.03,1.04.88,1.88,1.92,1.88h17.46c1.04,0,1.9-.84,1.92-1.88l1.74-10.09v-.04s0-.05,0-.05c0-1.06-.86-1.92-1.92-1.92H1.92c-1.06,0-1.92.86-1.92,1.92v.09s1.75,10.09,1.75,10.09ZM21.13,32.45H3.67c-.77,0-1.4-.63-1.4-1.4l-1.75-10.13c0-.77.63-1.4,1.4-1.4h20.95c.77,0,1.4.63,1.4,1.4l-1.75,10.13c0,.77-.63,1.4-1.4,1.4Z"/>
      <circle class="cls-1" cx="12.4" cy="25.82" r=".83"/>
    </g>
  </g>
</svg>