<?xml version="1.0" encoding="UTF-8"?>
<svg id="Layer_2" data-name="Layer 2" xmlns="http://www.w3.org/2000/svg" viewBox="0 0 33.51 34.09">
  <defs>
    <style>
      .cls-1 {
        fill: #afc097;
        stroke-width: 0px;
      }
    </style>
  </defs>
  <g id="Layer_1-2" data-name="Layer 1">
    <path class="cls-1" d="M32.88,21.29c-.11-.11-.22-.2-.31-.29-.36-.33-.54-.5-.63-.65-.09-.15-.14-.39-.25-.87-.03-.12-.06-.26-.09-.41-.2-.86-.93-1.47-1.81-1.52-.16,0-.29-.02-.42-.02-.49-.02-.73-.04-.9-.1-.17-.06-.36-.21-.75-.5-.1-.08-.21-.16-.33-.25-.71-.53-1.66-.53-2.37,0-.12.09-.24.18-.33.25-.39.3-.59.44-.75.5-.07.03-.15.04-.26.06-1.8-1.62-3.96-2.73-6.28-3.27,2.51-1.21,4.25-3.77,4.25-6.74,0-4.12-3.35-7.47-7.47-7.47s-7.47,3.35-7.47,7.47c0,2.97,1.74,5.53,4.25,6.74-2.34.54-4.52,1.67-6.32,3.31C2.01,19.87.37,23.08,0,26.55c-.02.16.03.31.14.43s.25.18.41.18h13.61s0,0,0,0,0,0,0,0h5.54c.19.45.56.82,1.04,1.03.14.06.27.12.39.16.06.02.11.05.16.07l-1.53,3.29c-.11.23-.08.5.08.7.15.2.4.3.65.25l1.55-.27.79,1.36c.12.21.34.34.58.34.01,0,.02,0,.03,0,.25-.01.48-.16.58-.39l1.51-3.24c.34-.1.53-.15.68-.15s.34.05.68.15l1.51,3.24c.11.23.33.38.58.39.01,0,.02,0,.03,0,.24,0,.46-.13.58-.34l.79-1.36,1.55.27c.25.04.5-.05.65-.26.15-.2.18-.47.08-.7l-1.53-3.29c.05-.02.11-.04.16-.07.11-.05.24-.1.39-.16.81-.35,1.29-1.17,1.18-2.05-.02-.15-.04-.29-.05-.42-.06-.49-.09-.73-.06-.9s.14-.39.37-.83c.06-.11.12-.23.19-.37.4-.79.23-1.73-.41-2.33h0ZM19.11,23.62c.07.14.13.26.19.37.22.44.34.65.37.83s0,.42-.06.9c-.01.1-.03.22-.04.34h-4.16l1.39-1.53c.12-.13.17-.31.13-.48l-.71-3.43.14.16c.11.12.26.2.42.2.02,0,.03,0,.05,0,.18-.02.34-.12.43-.28l2.53-4.5c.83.39,1.62.87,2.36,1.44-.66.2-1.17.74-1.33,1.43-.04.15-.07.29-.09.41-.11.48-.16.72-.25.87s-.27.32-.63.65c-.09.08-.19.18-.31.29-.64.6-.81,1.54-.41,2.33h0ZM11.65,19.47l-2.08-3.7c.39-.14.78-.27,1.18-.38l2.62,2.03-1.73,2.05ZM13.6,18.86l.56-.67.56.67,1.06,5.14-1.62,1.79-1.62-1.79,1.06-5.14ZM14.95,17.42l2.62-2.03c.4.11.79.23,1.18.38l-2.08,3.7-1.73-2.05ZM7.79,7.47c0-3.51,2.86-6.37,6.37-6.37s6.37,2.86,6.37,6.37-2.86,6.37-6.37,6.37h0c-3.51,0-6.37-2.86-6.37-6.37ZM14.16,14.94h0c.67,0,1.34.05,2,.15l-2,1.55-2-1.55c.65-.1,1.32-.15,2-.15,0,0,0,0,0,0h0ZM8.55,16.19l2.53,4.51c.09.16.25.26.43.28.02,0,.03,0,.05,0,.16,0,.32-.07.42-.2l.14-.16-.71,3.43c-.04.17.01.35.13.48l1.39,1.53H1.18c.68-4.42,3.52-8.05,7.37-9.87h0ZM23.36,32.5l-.57-.99c-.12-.2-.34-.3-.57-.27l-1.13.2,1.1-2.37c.07.11.16.24.27.41.07.1.14.22.23.35.34.53.9.84,1.49.89l-.83,1.78ZM30.18,31.24c-.23-.04-.45.07-.57.27l-.57.99-.83-1.77c.59-.05,1.15-.36,1.49-.89.09-.13.16-.25.23-.35.11-.17.2-.3.27-.41l1.1,2.37-1.13-.2ZM32.31,23.12c-.07.14-.13.26-.19.37-.55,1.07-.57,1.18-.42,2.37.02.12.03.26.05.41.05.4-.16.75-.52.91-.14.06-.27.11-.38.16-1.11.47-1.19.54-1.84,1.55-.07.1-.14.22-.22.35-.22.33-.6.47-.99.36-.15-.04-.28-.08-.39-.12-.57-.18-.89-.27-1.2-.27s-.63.09-1.2.27c-.12.04-.25.08-.39.12-.38.11-.77-.03-.99-.36-.08-.13-.16-.24-.22-.35-.65-1.01-.74-1.08-1.84-1.55-.11-.05-.24-.1-.38-.16-.37-.16-.57-.51-.52-.91.02-.15.04-.29.05-.41.15-1.19.13-1.3-.42-2.37-.06-.11-.12-.23-.19-.37-.18-.36-.11-.76.18-1.03.11-.11.21-.2.3-.28.88-.82.94-.91,1.2-2.08.03-.12.06-.25.09-.4.09-.39.41-.65.8-.67.15,0,.29-.02.41-.02,1.2-.06,1.3-.1,2.26-.82.1-.07.21-.16.33-.25.32-.24.73-.24,1.05,0,.12.09.23.17.33.25.96.72,1.06.76,2.26.82.12,0,.26.01.41.02.4.02.71.29.8.67.04.15.07.28.09.4.27,1.17.32,1.27,1.2,2.08.09.08.19.18.3.28.29.27.36.68.18,1.03h0ZM26.2,19.39c-2.27,0-4.12,1.85-4.12,4.12s1.85,4.12,4.12,4.12,4.12-1.85,4.12-4.12-1.85-4.12-4.12-4.12ZM26.2,26.52c-1.66,0-3.02-1.35-3.02-3.02s1.35-3.02,3.02-3.02,3.02,1.35,3.02,3.02-1.35,3.02-3.02,3.02Z"/>
  </g>
</svg>