<?xml version="1.0" encoding="UTF-8"?>
<svg id="Layer_2" data-name="Layer 2" xmlns="http://www.w3.org/2000/svg" viewBox="0 0 27.33 27.79">
  <defs>
    <style>
      .cls-1 {
        fill: #afc097;
        stroke-width: 0px;
      }
    </style>
  </defs>
  <g id="Layer_1-2" data-name="Layer 1">
    <g id="Investment-Global-World-Online_Banking-Map" data-name="Investment-Global-World-Online Banking-Map">
      <g>
        <path class="cls-1" d="M6.02,9.26v-.46c.77,0,1.39-.62,1.39-1.39s-.62-1.39-1.39-1.39h-.93c-.26,0-.46-.21-.46-.46s.21-.46.46-.46h.93c.26,0,.46.21.46.46h.93c0-.77-.62-1.39-1.39-1.39v-.46h-.93v.46c-.77,0-1.39.62-1.39,1.39s.62,1.39,1.39,1.39h.93c.26,0,.46.21.46.46s-.21.46-.46.46h-.93c-.26,0-.46-.21-.46-.46h-.93c0,.77.62,1.39,1.39,1.39v.46h.93Z"/>
        <path class="cls-1" d="M23.16,6.02h-.93c-.26,0-.46-.21-.46-.46h-.93c0,.77.62,1.39,1.39,1.39v.46h.93v-.46c.77,0,1.39-.62,1.39-1.39s-.62-1.39-1.39-1.39h-.93c-.26,0-.46-.21-.46-.46s.21-.46.46-.46h.93c.26,0,.46.21.46.46h.93c0-.77-.62-1.39-1.39-1.39v-.46h-.93v.46c-.77,0-1.39.62-1.39,1.39s.62,1.39,1.39,1.39h.93c.26,0,.46.21.46.46s-.21.46-.46.46Z"/>
        <path class="cls-1" d="M27.33,4.63C27.33,2.07,25.25,0,22.69,0c-1.55,0-2.99.77-3.85,2.06-1.7-.75-3.55-1.14-5.41-1.14-2.05,0-4.07.47-5.9,1.37-2.31-1.09-5.06-.11-6.15,2.2-.29.62-.45,1.3-.44,1.99.04.64.21,1.27.5,1.85-3.33,6.63-.66,14.7,5.97,18.03,6.63,3.33,14.7.66,18.03-5.97.94-1.87,1.43-3.94,1.43-6.04,0-1.98-.43-3.93-1.28-5.72.93-1.37,1.75-2.89,1.75-4.01ZM22.7.92c2.05,0,3.7,1.66,3.7,3.7,0,1.58-2.42,4.74-3.7,6.24-1.28-1.5-3.7-4.66-3.7-6.24,0-2.05,1.66-3.7,3.7-3.7ZM5.56,2.78c2.05,0,3.7,1.66,3.7,3.7,0,1.58-2.42,4.74-3.7,6.24-1.28-1.5-3.7-4.66-3.7-6.24,0-2.05,1.66-3.7,3.7-3.7ZM.93,14.35c0-1.72.36-3.42,1.04-4.99.57.97,1.21,1.9,1.92,2.78-.11.08-.18.22-.18.36v1.39c0,.12.05.24.13.33l2.18,2.18v1.01l-1.26,1.25c-.09.09-.13.21-.13.33v1.2l-1.4,1.39c-1.5-2.11-2.31-4.64-2.31-7.22ZM11.58,26.72c-3.04-.46-5.81-2.02-7.78-4.4l1.62-1.62c.09-.09.13-.21.13-.33v-1.2l1.26-1.25c.09-.09.13-.21.13-.33v-1.39c0-.12-.05-.24-.13-.33l-2.18-2.18v-.63c.29.34.5.57.58.67.17.19.46.2.65.03.01-.01.02-.02.03-.03.44-.49,4.29-4.85,4.29-7.26,0-1.4-.64-2.73-1.73-3.6,1-.43,2.04-.72,3.12-.88v3.1c0,.12.05.24.13.33l1.85,1.85c.09.09.21.13.33.13h2.13l2.04,2.04v2.4l-.55.55c-.25-.3-.53-.58-.84-.81v-1.86c0-.26-.21-.46-.46-.46h-2.78c-.26,0-.46.21-.46.46v.93s.01.06.02.09c-2.16.43-3.72,2.33-3.72,4.54.02.47.12.93.3,1.36l-1.56,1.55c-.09.09-.13.21-.13.33v1.39c0,.12.05.24.13.33l.93.93c.09.09.21.13.33.13h1.39v1.39c0,.12.05.24.13.33l.79.79v2.91ZM17.6,15.28c0,1.58-2.42,4.74-3.7,6.24-1.28-1.5-3.7-4.66-3.7-6.24,0-2.05,1.66-3.7,3.7-3.7s3.7,1.66,3.7,3.7ZM13.9,10.46v-.27h1.85v.85c-.52-.23-1.08-.35-1.65-.38l-.2-.2ZM13.43,25.01v1.85c-.31,0-.62-.01-.93-.04v-3.2c0-.12-.05-.24-.13-.33l-.79-.79v-1.66c0-.26-.21-.46-.46-.46h-1.66l-.65-.65v-1.01l1.17-1.17c1.01,1.79,2.21,3.47,3.58,4.99.17.19.46.2.65.03.01-.01.02-.02.03-.03.09-.1.3-.33.58-.67v1.56l-1.26,1.25c-.09.09-.13.21-.13.33ZM21.31,24.06c-1.98,1.61-4.4,2.57-6.95,2.76v-1.63l1.26-1.25c.09-.09.13-.21.13-.33v-1.66l.79-.79c.09-.09.13-.21.13-.33v-1.39c.72-.98,1.29-2.06,1.69-3.2l.63.62v2.13c0,.12.05.24.13.33l2.18,2.18v2.57ZM25.94,14.35c0,3.33-1.33,6.53-3.7,8.87v-1.93c0-.12-.05-.24-.13-.33l-2.18-2.18v-2.13c0-.12-.05-.24-.13-.33l-1.26-1.26c-.03-.63-.18-1.24-.45-1.8v-.12l.79-.79c.09-.09.13-.21.13-.33v-2.78c0-.12-.05-.24-.13-.33l-2.32-2.32c-.09-.09-.21-.13-.33-.13h-2.13l-1.58-1.58V1.89c.31-.02.62-.04.93-.04,1.71,0,3.4.35,4.97,1.03-.23.55-.34,1.15-.34,1.75,0,2.41,3.85,6.77,4.29,7.26.17.19.46.2.65.03.01-.01.02-.02.03-.03.19-.21,1.04-1.17,1.93-2.38.65,1.53.98,3.18.97,4.84Z"/>
        <path class="cls-1" d="M14.36,18.06v-.46c.77,0,1.39-.62,1.39-1.39s-.62-1.39-1.39-1.39h-.93c-.26,0-.46-.21-.46-.46s.21-.46.46-.46h.93c.26,0,.46.21.46.46h.93c0-.77-.62-1.39-1.39-1.39v-.46h-.93v.46c-.77,0-1.39.62-1.39,1.39s.62,1.39,1.39,1.39h.93c.26,0,.46.21.46.46s-.21.46-.46.46h-.93c-.26,0-.46-.21-.46-.46h-.93c0,.77.62,1.39,1.39,1.39v.46h.93Z"/>
      </g>
    </g>
  </g>
</svg>