<?xml version="1.0" encoding="UTF-8"?>
<svg id="Layer_2" data-name="Layer 2" xmlns="http://www.w3.org/2000/svg" viewBox="0 0 34.09 34.09">
  <defs>
    <style>
      .cls-1 {
        fill: #afc097;
        stroke-width: 0px;
      }
    </style>
  </defs>
  <g id="Layer_1-2" data-name="Layer 1">
    <g>
      <path class="cls-1" d="M32.38,17.04h-7.39v-1.7c0-1.88-1.53-3.41-3.41-3.41h-.85c-.41-.4-.89-.72-1.42-.94v-.39c1.01-.76,1.64-1.92,1.7-3.18v-2.31h0v-1.18c0-1.25-1.02-2.27-2.27-2.27-.52.05-1-.3-1.09-.82-.15-.56-.69-.92-1.26-.83-1.92.32-3.33,1.98-3.33,3.92v3.49c.07,1.26.69,2.43,1.7,3.18v.39c-.53.22-1.01.54-1.42.94h-.85c-1.88,0-3.41,1.53-3.41,3.41v1.7H1.7c-.94,0-1.7.76-1.7,1.7s.76,1.7,1.7,1.7v.57c0,.94.76,1.7,1.7,1.7v9.66c0,.94.76,1.7,1.7,1.7h23.86c.94,0,1.7-.76,1.7-1.7v-9.66c.94,0,1.7-.76,1.7-1.7v-.57c.94,0,1.7-.76,1.7-1.7s-.76-1.7-1.7-1.7ZM17.04,12.47c-.56-.15-1-.6-1.14-1.17v-.12c.74.23,1.53.23,2.27,0v.11c-.13.57-.57,1.02-1.14,1.17ZM19.08,12.13c.28.13.55.31.78.51-.16.37-.46.66-.83.82-.14-.21-.32-.39-.53-.53.24-.23.43-.5.57-.8h0ZM15.04,1.93c.41-.42.94-.7,1.52-.8.22,1.02,1.15,1.73,2.19,1.67.63,0,1.14.51,1.14,1.14v.59c-1.61-.07-2.38-.42-2.7-.64-.47-.33-1.11-.25-1.5.18-.4.45-.91.78-1.49.94v-1.08c0-.75.3-1.47.84-2ZM14.2,7.38v-1.21c.91-.19,1.73-.66,2.34-1.35.52.36,1.51.77,3.34.84v1.7c-.05,1.55-1.29,2.8-2.84,2.86-1.55-.05-2.79-1.29-2.84-2.84ZM15.01,12.14c.14.3.33.57.57.8-.21.14-.39.32-.52.53-.37-.16-.66-.45-.83-.81.24-.21.5-.38.79-.51ZM10.23,15.34c0-1.26,1.02-2.27,2.27-2.27h.66c.4,1.16,1.93,1.65,2,1.68.06.02.11.03.17.03.26,0,.49-.18.55-.43.17-.69,1.07-.71,1.14-.71h.02s.97,0,1.14.71c.06.25.29.43.55.43.06,0,.12,0,.17-.03.07-.02,1.6-.52,2-1.68h.67c1.26,0,2.27,1.02,2.27,2.27v1.7h-13.63v-1.7ZM29.54,32.38c0,.31-.25.57-.57.57H5.11c-.31,0-.57-.25-.57-.57v-9.66h25v9.66ZM31.25,21.02c0,.31-.25.57-.57.57H3.41c-.31,0-.57-.25-.57-.57v-.57h28.41v.57ZM32.38,19.32H1.7c-.31,0-.57-.25-.57-.57s.25-.57.57-.57h30.68c.31,0,.57.25.57.57s-.25.57-.57.57Z"/>
      <path class="cls-1" d="M17.04,31.81c2.2,0,3.98-1.78,3.98-3.98s-1.78-3.98-3.98-3.98-3.98,1.78-3.98,3.98c0,2.2,1.78,3.97,3.98,3.98ZM17.04,25c1.57,0,2.84,1.27,2.84,2.84s-1.27,2.84-2.84,2.84-2.84-1.27-2.84-2.84c0-1.57,1.27-2.84,2.84-2.84Z"/>
    </g>
  </g>
</svg>