<?xml version="1.0" encoding="UTF-8"?>
<svg id="Layer_2" data-name="Layer 2" xmlns="http://www.w3.org/2000/svg" viewBox="0 0 34.09 34.09">
  <defs>
    <style>
      .cls-1 {
        fill: #afc097;
        stroke-width: 0px;
      }
    </style>
  </defs>
  <g id="Layer_1-2" data-name="Layer 1">
    <g>
      <path class="cls-1" d="M18.3,20.32c-.26-.1-.55.02-.65.28l-2.13,5.34c-.1.26.02.55.28.65.06.02.12.04.19.04.2,0,.39-.12.46-.31l2.13-5.34c.1-.26-.02-.55-.28-.65Z"/>
      <path class="cls-1" d="M14.19,21.49c-.2-.2-.51-.2-.71,0l-1.6,1.6c-.2.2-.2.51,0,.71l1.6,1.6c.1.1.23.15.35.15s.26-.05.35-.15c.2-.2.2-.51,0-.71l-1.25-1.25,1.25-1.25c.2-.19.2-.51,0-.71h0Z"/>
      <path class="cls-1" d="M20.6,21.49c-.2-.2-.51-.2-.71,0-.2.2-.2.51,0,.71l1.25,1.25-1.25,1.25c-.2.2-.2.51,0,.71.1.1.23.15.35.15s.26-.05.35-.15l1.6-1.6c.2-.2.2-.51,0-.71l-1.6-1.6Z"/>
      <path class="cls-1" d="M15.44,8.47c.28,0,.5-.22.5-.5v-.53c0-.28-.22-.5-.5-.5s-.5.22-.5.5v.53c0,.28.22.5.5.5Z"/>
      <path class="cls-1" d="M18.64,8.47c.28,0,.5-.22.5-.5v-.53c0-.28-.22-.5-.5-.5s-.5.22-.5.5v.53c0,.28.22.5.5.5Z"/>
      <path class="cls-1" d="M16.51,10.61h1.07c.28,0,.5-.22.5-.5s-.22-.5-.5-.5h-1.07c-.28,0-.5.22-.5.5s.22.5.5.5Z"/>
      <path class="cls-1" d="M33.05,30.95h-6.01c.07-.18.11-.37.11-.57,0-.49-.23-.93-.58-1.22.36-.38.58-.89.58-1.45v-8.54c0-1.02-.73-1.87-1.69-2.06-.2-.67-.73-1.22-1.41-1.43l-3.44-1.03c-.24-.07-.4-.29-.4-.54v-1.52c.73-.65,1.26-1.53,1.48-2.53h.15c.46,0,.9-.2,1.19-.55.25-.3.38-.67.37-1.06,0,0,0,0,0,0v-3.69c0-2.63-2.14-4.77-4.77-4.77h-3.74c-.76,0-1.46.42-1.83,1.08-1.35.12-2.41,1.25-2.41,2.62v4.81h0c0,.37.13.72.37,1.01.3.35.73.55,1.19.55h.15c.22,1,.75,1.88,1.48,2.53v1.52c0,.25-.16.47-.4.54l-3.44,1.03c-.69.21-1.22.76-1.41,1.43-.96.19-1.69,1.04-1.69,2.06v8.54c0,.56.22,1.07.58,1.45-.36.29-.58.73-.58,1.22,0,.2.04.39.11.57H1.03c-.57,0-1.03.46-1.03,1.03v1.07c0,.57.46,1.03,1.03,1.03h32.02c.57,0,1.03-.46,1.03-1.03v-1.07c0-.57-.46-1.03-1.03-1.03ZM24.35,17.08h-4.21c.45-.32.84-.71,1.18-1.17l2.45.73c.24.07.45.23.59.43h0ZM13.31,2.07h.1c.21,0,.4-.13.47-.33.16-.44.57-.74,1.03-.74h3.74c2.08,0,3.77,1.69,3.77,3.77v2.29c-.19-.08-.41-.12-.63-.12h0c-.28,0-.51-.23-.51-.51v-.26c0-.73-.52-1.38-1.24-1.53l-5.34-1.14c-.46-.1-.94.01-1.31.31s-.58.74-.58,1.22v1.41c0,.28-.23.51-.51.51-.22,0-.43.04-.63.12v-3.36c0-.9.73-1.64,1.64-1.64ZM13.31,9.51c-.03-.25-.24-.44-.5-.44h-.57c-.17,0-.32-.07-.43-.2-.11-.13-.15-.29-.13-.47.04-.26.31-.47.62-.47.83,0,1.51-.68,1.51-1.51v-1.41c0-.17.08-.33.21-.44.1-.08.23-.13.36-.13.04,0,.08,0,.12.01l5.34,1.14c.26.06.45.29.45.56v.26c0,.83.68,1.51,1.51,1.51h0c.3,0,.57.21.62.47.03.17-.02.34-.13.47-.11.13-.27.2-.43.2h-.57c-.25,0-.46.19-.5.44-.24,1.88-1.84,3.3-3.74,3.3s-3.5-1.42-3.74-3.3h0ZM14.87,14.11v-.83c.65.34,1.39.52,2.17.52s1.52-.19,2.17-.52v.83c0,.68.43,1.27,1.08,1.49-.81.93-1.99,1.48-3.25,1.48s-2.43-.54-3.25-1.48c.65-.21,1.08-.8,1.08-1.49h0ZM10.32,16.65l2.45-.73c.33.45.73.85,1.18,1.17h-4.21c.14-.2.35-.36.59-.43h0ZM7.94,30.39c0-.31.25-.57.57-.57h12.81c.28,0,.5-.22.5-.5s-.22-.5-.5-.5h-12.27c-.61,0-1.1-.49-1.1-1.1v-8.54c0-.61.49-1.1,1.1-1.1h16.01c.61,0,1.1.49,1.1,1.1v8.54c0,.61-.49,1.1-1.1,1.1h-1.6c-.28,0-.5.22-.5.5s.22.5.5.5h2.13c.31,0,.57.25.57.57s-.25.57-.57.57H8.5c-.31,0-.57-.25-.57-.57h0ZM33.09,33.05s-.02.03-.03.03H1.03s-.03-.02-.03-.03v-1.07s.02-.03.03-.03h32.02s.03.02.03.03v1.07Z"/>
    </g>
  </g>
</svg>