<?xml version="1.0" encoding="UTF-8"?>
<svg id="Layer_2" data-name="Layer 2" xmlns="http://www.w3.org/2000/svg" viewBox="0 0 27.97 34.09">
  <defs>
    <style>
      .cls-1 {
        fill: #afc097;
        stroke-width: 0px;
      }
    </style>
  </defs>
  <g id="Layer_1-2" data-name="Layer 1">
    <g>
      <path class="cls-1" d="M4.53,23.42v-.41c0-1.58,0-3.16,0-4.74,0-3.43,2.2-6.15,5.47-6.78.32-.06.64-.08.97-.1.27-.02.48.08.48.39s-.2.41-.47.42c-1.02.01-1.97.28-2.84.83-1.8,1.15-2.77,2.81-2.82,5-.04,1.77,0,3.55,0,5.35h.88c0-.29,0-.6,0-.91,0-1.43.92-2.38,2.32-2.39,1.38,0,2.75,0,4.13,0,.01,0,.02,0,.1-.02-.19-.16-.33-.3-.5-.42-.28-.18-.33-.42-.26-.74.22-.99.41-1.98.65-2.96.1-.43.11-.83-.06-1.24-.1-.23-.17-.48-.24-.72-.06-.23,0-.43.22-.51.23-.08.42,0,.51.25.16.47.32.93.45,1.41.04.15,0,.32-.03.47-.22,1.06-.45,2.11-.67,3.17-.02.11,0,.29.08.36.35.31.71.59,1.09.89.38-.3.75-.59,1.11-.9.07-.06.08-.25.06-.36-.2-1.01-.41-2.03-.64-3.03-.08-.33-.06-.63.06-.94.13-.33.22-.67.33-1.01.08-.26.26-.39.51-.3.27.09.34.34.22.56-.64,1.18-.17,2.32.06,3.48.09.47.19.95.31,1.41.08.31.02.54-.25.71-.17.11-.31.25-.53.43.15.01.24.02.33.02,1.3,0,2.6,0,3.9,0,1.47,0,2.38.94,2.38,2.46v.84h.81c0-.12.02-.23.02-.35,0-1.6,0-3.2,0-4.81,0-3.14-2.08-5.57-5.09-6-.18-.02-.36-.03-.54-.03-.27,0-.5-.08-.5-.42,0-.26.18-.41.52-.4,1.65.06,3.1.65,4.31,1.81,1.39,1.34,2.07,3,2.09,4.96.01,1.65,0,3.3,0,4.94,0,.09,0,.18.02.3h1.11c.95,0,1.9,0,2.85,0,.42,0,.54.11.54.55,0,3.18,0,6.36,0,9.54,0,.47-.1.57-.59.57-2.59,0-5.17,0-7.76,0H.79c-.1,0-.2,0-.3,0-.37-.01-.48-.13-.48-.5,0-.67,0-1.34,0-2.01v-7.54c0-.53.09-.62.6-.62h3.92ZM13.96,30.88h5.24c.15,0,.29,0,.44-.02.88-.1,1.41-.7,1.41-1.61,0-.93,0-1.86,0-2.79v-3.83c0-1.19-.53-1.73-1.68-1.73-2.06,0-4.11,0-6.17,0-1.5,0-3,0-4.5,0-.16,0-.31,0-.47.02-.58.07-1.05.48-1.19,1.06-.04.18-.05.36-.05.55,0,1.5.03,2.99.03,4.49,0,.81-.03,1.61-.03,2.42,0,.65.39,1.19.96,1.35.27.07.55.08.83.08,1.72,0,3.45,0,5.17,0h0ZM6.19,24.24c-.08,0-.14-.02-.19-.02-1.64,0-3.29,0-4.93,0-.25,0-.29.11-.29.33,0,2.81,0,5.62,0,8.44,0,.1.02.2.03.28h26.38v-9.02h-5.34v2.37c.15.02.28.03.4.05.84.12,1.48.94,1.27,1.79-.37,1.48-1.16,2.63-2.66,3.06-.53.15-1.1.16-1.66.16-3.1.01-6.2,0-9.3,0-.44,0-.87.02-1.31,0-.45-.02-.92-.03-1.36-.15-1.52-.41-2.3-1.56-2.68-3.03-.23-.9.41-1.73,1.32-1.84.11-.01.22-.03.33-.04v-2.37h0ZM6.21,27.47c-.7-.08-1.1.42-.87,1.04.1.27.2.54.33.79.15.27.34.52.54.81v-2.63h0ZM21.8,27.45v2.57c.35-.3.57-.66.87-1.47.24-.64-.1-1.12-.87-1.1Z"/>
      <path class="cls-1" d="M14,0c.66.04,1.33,0,1.97.12,1.52.28,2.58,1.53,2.66,3.12.05.91.04,1.82.03,2.73,0,.5-.22.9-.66,1.17-.12.07-.2.28-.23.44-.14.93-.46,1.78-1,2.53-.61.85-1.39,1.39-2.48,1.3-.12-.01-.25-.01-.37,0-1.27.12-2.12-.54-2.77-1.58-.44-.71-.7-1.48-.81-2.32-.01-.11-.11-.26-.2-.3-.53-.22-.82-.63-.82-1.19,0-1.07-.02-2.15.1-3.2.17-1.5,1.49-2.68,2.96-2.76.54-.03,1.07,0,1.61,0,0-.02,0-.03,0-.05h0ZM12.83,4.97c-.48.5-.76.61-1.4.59-.26,0-.51.01-.77,0-.29,0-.52.07-.54.41-.02.34.19.45.48.5.39.06.49.2.51.59.04.89.31,1.71.8,2.45.48.72,1.1,1.17,2,1.08.14-.02.29-.01.44,0,.73.06,1.27-.27,1.7-.84.62-.82.97-1.75.98-2.8,0-.29.09-.53.4-.53.3,0,.45-.13.44-.42,0-.31-.19-.43-.49-.43-.92,0-1.83-.02-2.75,0-.66,0-1.27-.11-1.79-.6h0ZM10.07,4.75c.56,0,1.04,0,1.53,0,.53,0,.75-.3.63-.82-.04-.19-.07-.39-.08-.58,0-.24.12-.4.36-.41.24,0,.37.13.4.37.16,1.06.6,1.44,1.64,1.44h3.31c0-.42.02-.89,0-1.36-.07-1.39-.95-2.42-2.3-2.52-1.1-.08-2.21-.06-3.32.02-1.01.07-1.86.9-2.04,1.91-.11.65-.1,1.32-.15,1.95h0Z"/>
      <path class="cls-1" d="M13.98,24.12c.96,0,1.75.81,1.75,1.8,0,.99-.79,1.8-1.76,1.79-.95,0-1.73-.81-1.73-1.78,0-.99.78-1.81,1.74-1.81ZM13.97,24.93c-.54,0-.95.44-.94,1,0,.55.43.97.97.97.54,0,.95-.44.94-1,0-.55-.43-.97-.97-.97Z"/>
    </g>
  </g>
</svg>