<?xml version="1.0" encoding="UTF-8"?>
<svg id="Layer_2" data-name="Layer 2" xmlns="http://www.w3.org/2000/svg" viewBox="0 0 28.45 34.09">
  <defs>
    <style>
      .cls-1 {
        fill: #afc097;
        stroke-width: 0px;
      }
    </style>
  </defs>
  <g id="Layer_1-2" data-name="Layer 1">
    <g>
      <path class="cls-1" d="M19.85,28.78c.09-.18.16-.36.23-.55l1.7-.28c.22-.04.39-.24.39-.46v-2.72c0-.23-.17-.42-.39-.46l-1.7-.28c-.07-.19-.14-.37-.23-.55l1.01-1.41c.13-.19.11-.44-.05-.6l-1.92-1.92c-.16-.16-.42-.18-.6-.05l-1.41,1.01c-.18-.09-.36-.16-.55-.23l-.28-1.71c-.04-.22-.24-.39-.46-.39h-2.72c-.23,0-.42.17-.46.39l-.28,1.71c-.18.06-.37.14-.55.23l-1.41-1.01c-.19-.13-.44-.11-.6.05l-1.92,1.92c-.16.16-.18.42-.05.6l1.01,1.41c-.09.18-.16.36-.23.55l-1.71.28c-.22.04-.39.24-.39.46v2.72c0,.23.17.42.39.46l1.71.28c.07.19.14.37.23.55l-1.01,1.41c-.13.19-.11.44.05.6l1.92,1.92c.16.16.42.18.6.05l1.41-1.01c.18.09.36.16.55.23l.28,1.71c.04.22.24.39.46.39h2.72c.23,0,.42-.17.46-.39l.28-1.71c.18-.06.37-.14.55-.23l1.41,1.01c.19.13.44.11.6-.05l1.92-1.92c.16-.16.18-.42.05-.6l-1.01-1.41ZM18.5,31.78l-1.32-.94c-.14-.1-.34-.12-.49-.03-.3.16-.61.29-.92.38-.17.05-.29.2-.33.37l-.27,1.59h-1.92l-.27-1.59c-.03-.18-.16-.32-.33-.37-.31-.1-.63-.22-.92-.38-.16-.09-.35-.07-.49.03l-1.31.94-1.37-1.37.94-1.32c.1-.14.12-.34.03-.49-.16-.3-.29-.61-.38-.92-.05-.17-.2-.29-.37-.33l-1.59-.27v-1.92l1.59-.27c.18-.03.32-.16.37-.33.1-.32.22-.63.38-.92.09-.16.07-.35-.03-.49l-.94-1.31,1.37-1.37,1.32.94c.14.1.34.12.49.03.3-.16.61-.29.92-.38.17-.05.29-.2.33-.37l.27-1.59h1.93l.27,1.59c.03.18.16.32.33.37.31.1.63.22.92.38.16.08.35.07.49-.03l1.32-.94,1.35,1.37-.94,1.32c-.1.14-.12.34-.03.49.16.3.29.61.38.92.05.17.2.29.37.33l1.59.27v1.93l-1.59.27c-.18.03-.32.16-.37.33-.1.32-.22.63-.38.92-.09.16-.07.35.03.49l.94,1.3-1.36,1.37Z"/>
      <path class="cls-1" d="M14.22,22.21c-2.16,0-3.92,1.76-3.92,3.92s1.76,3.92,3.92,3.92,3.92-1.76,3.92-3.92-1.76-3.92-3.92-3.92ZM14.22,29.12c-1.65,0-2.99-1.34-2.99-2.99s1.34-2.99,2.99-2.99,2.99,1.34,2.99,2.99-1.34,2.99-2.99,2.99Z"/>
      <path class="cls-1" d="M7.81,5.22h11.76c.26,0,.47-.21.47-.47s-.21-.47-.47-.47H7.81c-.26,0-.47.21-.47.47s.21.47.47.47Z"/>
      <path class="cls-1" d="M7.81,7.36h11.76c.26,0,.47-.21.47-.47s-.21-.47-.47-.47H7.81c-.26,0-.47.21-.47.47s.21.47.47.47Z"/>
      <path class="cls-1" d="M7.81,9.49h6.42c.26,0,.47-.21.47-.47s-.21-.47-.47-.47h-6.42c-.26,0-.47.21-.47.47s.21.47.47.47Z"/>
      <path class="cls-1" d="M28.06,12.29c-.29-.33-.71-.52-1.15-.52h-.46v-1.67c0-.85-.69-1.54-1.54-1.54h-.6V.47c0-.26-.21-.47-.47-.47H7.81c-.26,0-.47.21-.47.47v1.67h-1.67c-.26,0-.47.21-.47.47v4.35h-1.67c-.84,0-1.54.69-1.54,1.54v3.28h-.45c-.44,0-.86.19-1.15.52S-.04,13.07.01,13.5l1.87,14.97c.09.77.75,1.35,1.52,1.35h3.39c.26,0,.47-.21.47-.47s-.21-.47-.47-.47h-3.39c-.3,0-.56-.22-.59-.52L.94,13.39c-.02-.18.03-.34.14-.48.12-.13.27-.2.45-.2h25.38c.18,0,.33.07.45.2s.17.3.14.48l-1.87,14.97c-.04.3-.29.52-.59.52h-3.39c-.26,0-.47.21-.47.47s.21.47.47.47h3.39c.78,0,1.43-.58,1.52-1.35l1.87-14.97c.05-.45-.09-.89-.37-1.22ZM24.91,9.49c.33,0,.6.27.6.6v1.67h-1.2v-2.27h.6ZM8.28.94h15.1v10.83h-1.2V2.61c0-.26-.21-.47-.47-.47h-13.43V.94ZM6.14,3.08h15.1v8.69H6.14V3.08ZM2.93,8.49c0-.33.27-.6.6-.6h1.67v3.88h-2.27v-3.27h0Z"/>
      <path class="cls-1" d="M8.28,16.51v-2.14c0-.26-.21-.47-.47-.47H3.53c-.26,0-.47.21-.47.47v2.14c0,.26.21.47.47.47h4.28c.26,0,.47-.21.47-.47ZM7.34,16.04h-3.34v-1.2h3.34v1.2Z"/>
    </g>
  </g>
</svg>