<svg id="Layer_1" data-name="Layer 1" xmlns="http://www.w3.org/2000/svg" viewBox="0 0 258.59 258.59"><defs><style>.cls-1{fill:#2c372f;fill-rule:evenodd;opacity:0.5;}</style></defs><path class="cls-1" d="M50.51,0H208.08a50.61,50.61,0,0,1,50.51,50.51V208.08a50.62,50.62,0,0,1-50.51,50.51H50.51A50.61,50.61,0,0,1,0,208.08V50.51A50.59,50.59,0,0,1,50.51,0Zm3,195.58A9.47,9.47,0,0,0,63,205.05h49.56a9.47,9.47,0,0,0,.19-18.94H85.87l35.25-35.25a9.47,9.47,0,0,0-13.39-13.4L72.47,172.72V146a9.47,9.47,0,0,0-18.93,0ZM205.05,63a9.47,9.47,0,0,0-9.47-9.47H146a9.47,9.47,0,1,0-.2,18.93.67.67,0,0,0,.2,0h26.7l-35.26,35.26a9.47,9.47,0,0,0,13.4,13.39h0l35.25-35.25v26.7a9.47,9.47,0,0,0,18.94,0Z"/></svg>